<?xml version="1.0" encoding="us-ascii" standalone="no"?><svg xmlns="http://www.w3.org/2000/svg" xmlns:xlink="http://www.w3.org/1999/xlink" contentStyleType="text/css" height="954px" preserveAspectRatio="none" style="width:533px;height:954px;background:#FFFFFF;" version="1.1" viewBox="0 0 533 954" width="533px" zoomAndPan="magnify"><defs/><g><ellipse cx="269.75" cy="20" fill="#222222" rx="10" ry="10" style="stroke:#222222;stroke-width:1.0;"/><polygon fill="#F1F1F1" points="197.75,50,341.75,50,353.75,62,341.75,74,197.75,74,185.75,62,197.75,50" style="stroke:#181818;stroke-width:0.5;"/><text fill="#000000" font-family="sans-serif" font-size="11" lengthAdjust="spacing" textLength="144" x="197.75" y="66.5547">&#1055;&#1077;&#1088;&#1074;&#1099;&#1081; &#1079;&#1072;&#1087;&#1091;&#1089;&#1082; &#1087;&#1088;&#1086;&#1075;&#1088;&#1072;&#1084;&#1084;&#1099;?</text><text fill="#000000" font-family="sans-serif" font-size="11" lengthAdjust="spacing" textLength="12" x="173.75" y="59.2393">&#1076;&#1072;</text><text fill="#000000" font-family="sans-serif" font-size="11" lengthAdjust="spacing" textLength="18" x="353.75" y="59.2393">&#1085;&#1077;&#1090;</text><rect fill="#F1F1F1" height="35.9609" rx="12.5" ry="12.5" style="stroke:#181818;stroke-width:0.5;" width="23" x="139.25" y="133.3154"/><text fill="#000000" font-family="sans-serif" font-size="12" lengthAdjust="spacing" textLength="3" x="149.25" y="156.2646">&#160;</text><rect fill="#F1F1F1" height="67.8828" rx="12.5" ry="12.5" style="stroke:#181818;stroke-width:0.5;" width="178" x="61.75" y="224.2764"/><text fill="#000000" font-family="sans-serif" font-size="12" lengthAdjust="spacing" textLength="140" x="74.75" y="247.2256">&#1059;&#1082;&#1072;&#1079;&#1099;&#1074;&#1072;&#1077;&#1084; &#1087;&#1091;&#1089;&#1090;&#1091;&#1102; &#1087;&#1072;&#1087;&#1082;&#1091;</text><text fill="#000000" font-family="sans-serif" font-size="12" lengthAdjust="spacing" textLength="155" x="74.75" y="263.1865">&#1080;&#1083;&#1080; &#1088;&#1072;&#1085;&#1077;&#1077; &#1089;&#1091;&#1097;&#1077;&#1089;&#1090;&#1074;&#1086;&#1074;&#1072;&#1074;&#1096;&#1091;&#1102;</text><text fill="#000000" font-family="sans-serif" font-size="12" lengthAdjust="spacing" textLength="153" x="74.75" y="279.1475">&#1089; &#1085;&#1072;&#1089;&#1090;&#1088;&#1086;&#1081;&#1082;&#1072;&#1084;&#1080; &#1087;&#1088;&#1086;&#1075;&#1088;&#1072;&#1084;&#1084;&#1099;</text><polygon fill="#F1F1F1" points="71.25,84,230.25,84,242.25,96,230.25,108,71.25,108,59.25,96,71.25,84" style="stroke:#181818;stroke-width:0.5;"/><text fill="#000000" font-family="sans-serif" font-size="11" lengthAdjust="spacing" textLength="18" x="154.75" y="119.8701">&#1085;&#1077;&#1090;</text><text fill="#000000" font-family="sans-serif" font-size="11" lengthAdjust="spacing" textLength="159" x="71.25" y="100.5547">&#1042;&#1099;&#1073;&#1088;&#1072;&#1090;&#1100; &#1087;&#1072;&#1087;&#1082;&#1091; &#1087;&#1086; &#1091;&#1084;&#1086;&#1083;&#1095;&#1072;&#1085;&#1080;&#1102;?</text><polygon fill="#F1F1F1" points="150.75,312.1592,162.75,324.1592,150.75,336.1592,138.75,324.1592,150.75,312.1592" style="stroke:#181818;stroke-width:0.5;"/><rect fill="#F1F1F1" height="35.9609" rx="12.5" ry="12.5" style="stroke:#181818;stroke-width:0.5;" width="23" x="377.25" y="133.3154"/><text fill="#000000" font-family="sans-serif" font-size="12" lengthAdjust="spacing" textLength="3" x="387.25" y="156.2646">&#160;</text><ellipse cx="390.25" cy="190.7764" fill="#A80036" rx="1.5" ry="1.5" style="stroke:#A80036;stroke-width:1.0;"/><ellipse cx="152.25" cy="190.7764" fill="#A80036" rx="1.5" ry="1.5" style="stroke:#A80036;stroke-width:1.0;"/><line style="stroke:#A80036;stroke-width:1.0;" x1="388.75" x2="150.75" y1="189.2764" y2="189.2764"/><line style="stroke:#A80036;stroke-width:1.0;" x1="150.75" x2="150.75" y1="189.2764" y2="189.2764"/><polygon fill="#F1F1F1" points="293.75,84,483.75,84,495.75,96,483.75,108,293.75,108,281.75,96,293.75,84" style="stroke:#181818;stroke-width:0.5;"/><text fill="#000000" font-family="sans-serif" font-size="11" lengthAdjust="spacing" textLength="12" x="392.75" y="119.8701">&#1076;&#1072;</text><text fill="#000000" font-family="sans-serif" font-size="11" lengthAdjust="spacing" textLength="190" x="293.75" y="100.5547">&#1042;&#1099;&#1073;&#1088;&#1072;&#1090;&#1100; &#1085;&#1086;&#1074;&#1091;&#1102; &#1087;&#1072;&#1087;&#1082;&#1091; &#1076;&#1083;&#1103; &#1085;&#1072;&#1089;&#1090;&#1088;&#1086;&#1077;&#1082;?</text><polygon fill="#F1F1F1" points="269.75,342.1592,281.75,354.1592,269.75,366.1592,257.75,354.1592,269.75,342.1592" style="stroke:#181818;stroke-width:0.5;"/><rect fill="#F1F1F1" height="35.9609" rx="12.5" ry="12.5" style="stroke:#181818;stroke-width:0.5;" width="199" x="170.25" y="386.1592"/><text fill="#000000" font-family="sans-serif" font-size="12" lengthAdjust="spacing" textLength="176" x="183.25" y="409.1084">&#1055;&#1072;&#1087;&#1082;&#1072; &#1089; &#1085;&#1072;&#1089;&#1090;&#1088;&#1086;&#1081;&#1082;&#1072;&#1084;&#1080; &#1074;&#1099;&#1073;&#1088;&#1072;&#1085;&#1072;</text><polygon fill="#F1F1F1" points="182.75,442.1201,356.75,442.1201,368.75,454.1201,356.75,466.1201,182.75,466.1201,170.75,454.1201,182.75,442.1201" style="stroke:#181818;stroke-width:0.5;"/><text fill="#000000" font-family="sans-serif" font-size="11" lengthAdjust="spacing" textLength="174" x="182.75" y="458.6748">&#1042; &#1087;&#1088;&#1086;&#1075;&#1088;&#1072;&#1084;&#1084;&#1077; &#1077;&#1089;&#1090;&#1100; &#1087;&#1086;&#1083;&#1100;&#1079;&#1086;&#1074;&#1072;&#1090;&#1077;&#1083;&#1080;?</text><text fill="#000000" font-family="sans-serif" font-size="11" lengthAdjust="spacing" textLength="18" x="152.75" y="451.3594">&#1085;&#1077;&#1090;</text><text fill="#000000" font-family="sans-serif" font-size="11" lengthAdjust="spacing" textLength="12" x="368.75" y="451.3594">&#1076;&#1072;</text><rect fill="#F1F1F1" height="67.8828" rx="12.5" ry="12.5" style="stroke:#181818;stroke-width:0.5;" width="23" x="138.5" y="476.1201"/><text fill="#000000" font-family="sans-serif" font-size="12" lengthAdjust="spacing" textLength="3" x="148.5" y="499.0693">&#160;</text><text fill="#000000" font-family="sans-serif" font-size="12" lengthAdjust="spacing" textLength="3" x="148.5" y="515.0303">&#160;</text><text fill="#000000" font-family="sans-serif" font-size="12" lengthAdjust="spacing" textLength="3" x="148.5" y="530.9912">&#160;</text><rect fill="#F1F1F1" height="35.9609" rx="12.5" ry="12.5" style="stroke:#181818;stroke-width:0.5;" width="199" x="50.5" y="611.6582"/><text fill="#000000" font-family="sans-serif" font-size="12" lengthAdjust="spacing" textLength="176" x="63.5" y="634.6074">&#1057;&#1086;&#1079;&#1076;&#1072;&#1077;&#1084; &#1085;&#1086;&#1074;&#1086;&#1075;&#1086; &#1087;&#1086;&#1083;&#1100;&#1079;&#1086;&#1074;&#1072;&#1090;&#1077;&#1083;&#1103;</text><rect fill="#F1F1F1" height="35.9609" rx="12.5" ry="12.5" style="stroke:#181818;stroke-width:0.5;" width="278" x="11" y="667.9736"/><text fill="#000000" font-family="sans-serif" font-size="12" lengthAdjust="spacing" textLength="255" x="24" y="690.9229">&#1059;&#1082;&#1072;&#1079;&#1099;&#1074;&#1072;&#1077;&#1084; &#1090;&#1080;&#1087; (&#1089;&#1090;&#1091;&#1076;&#1077;&#1085;&#1090; &#1080;&#1083;&#1080; &#1087;&#1088;&#1077;&#1087;&#1086;&#1076;&#1072;&#1074;&#1072;&#1090;&#1077;&#1083;&#1100;)</text><rect fill="#F1F1F1" height="35.9609" rx="12.5" ry="12.5" style="stroke:#181818;stroke-width:0.5;" width="118" x="91" y="723.9346"/><text fill="#000000" font-family="sans-serif" font-size="12" lengthAdjust="spacing" textLength="95" x="104" y="746.8838">&#1059;&#1082;&#1072;&#1079;&#1099;&#1074;&#1072;&#1077;&#1084; &#1060;&#1048;&#1054;</text><rect fill="#F1F1F1" height="35.9609" rx="12.5" ry="12.5" style="stroke:#181818;stroke-width:0.5;" width="23" x="378" y="530.6973"/><text fill="#000000" font-family="sans-serif" font-size="12" lengthAdjust="spacing" textLength="3" x="388" y="553.6465">&#160;</text><ellipse cx="391" cy="600.8135" fill="#A80036" rx="1.5" ry="1.5" style="stroke:#A80036;stroke-width:1.0;"/><ellipse cx="151.5" cy="578.1582" fill="#A80036" rx="1.5" ry="1.5" style="stroke:#A80036;stroke-width:1.0;"/><line style="stroke:#A80036;stroke-width:1.0;" x1="389.5" x2="150" y1="599.3135" y2="599.3135"/><line style="stroke:#A80036;stroke-width:1.0;" x1="150" x2="150" y1="576.6582" y2="599.3135"/><polygon fill="#F1F1F1" points="321,476.1201,458,476.1201,470,490.751,458,505.3818,321,505.3818,309,490.751,321,476.1201" style="stroke:#181818;stroke-width:0.5;"/><text fill="#000000" font-family="sans-serif" font-size="11" lengthAdjust="spacing" textLength="79" x="393.5" y="517.252">&#1089;&#1086;&#1079;&#1076;&#1072;&#1090;&#1100; &#1085;&#1086;&#1074;&#1086;&#1075;&#1086;</text><text fill="#000000" font-family="sans-serif" font-size="11" lengthAdjust="spacing" textLength="101" x="321" y="487.9902">&#1057;&#1086;&#1079;&#1076;&#1072;&#1090;&#1100; &#1085;&#1086;&#1074;&#1086;&#1075;&#1086; &#1080;&#1083;&#1080;</text><text fill="#000000" font-family="sans-serif" font-size="11" lengthAdjust="spacing" textLength="137" x="321" y="502.6211">&#1074;&#1099;&#1073;&#1088;&#1072;&#1090;&#1100; &#1089;&#1091;&#1097;&#1077;&#1089;&#1090;&#1074;&#1091;&#1102;&#1097;&#1077;&#1075;&#1086;?</text><text fill="#000000" font-family="sans-serif" font-size="11" lengthAdjust="spacing" textLength="45" x="470" y="487.9902">&#1074;&#1099;&#1073;&#1088;&#1072;&#1090;&#1100;</text><polygon fill="#F1F1F1" points="269.75,765.8955,281.75,777.8955,269.75,789.8955,257.75,777.8955,269.75,765.8955" style="stroke:#181818;stroke-width:0.5;"/><rect fill="#F1F1F1" height="35.9609" rx="12.5" ry="12.5" style="stroke:#181818;stroke-width:0.5;" width="151" x="194.25" y="809.8955"/><text fill="#000000" font-family="sans-serif" font-size="12" lengthAdjust="spacing" textLength="128" x="207.25" y="832.8447">&#1055;&#1086;&#1083;&#1100;&#1079;&#1086;&#1074;&#1072;&#1090;&#1077;&#1083;&#1100; &#1074;&#1099;&#1073;&#1088;&#1072;&#1085;</text><rect fill="#F1F1F1" height="35.9609" rx="12.5" ry="12.5" style="stroke:#181818;stroke-width:0.5;" width="124" x="207.75" y="865.8564"/><text fill="#000000" font-family="sans-serif" font-size="12" lengthAdjust="spacing" textLength="101" x="220.75" y="888.8057">&#1042;&#1093;&#1086;&#1076; &#1074; &#1087;&#1088;&#1086;&#1075;&#1088;&#1072;&#1084;&#1084;&#1091;</text><ellipse cx="269.75" cy="932.8174" fill="none" rx="11" ry="11" style="stroke:#222222;stroke-width:1.0;"/><ellipse cx="269.75" cy="932.8174" fill="#222222" rx="6" ry="6" style="stroke:#222222;stroke-width:1.0;"/><line style="stroke:#181818;stroke-width:1.0;" x1="150.75" x2="150.75" y1="169.2764" y2="224.2764"/><polygon fill="#181818" points="146.75,214.2764,150.75,224.2764,154.75,214.2764,150.75,218.2764" style="stroke:#181818;stroke-width:1.0;"/><line style="stroke:#181818;stroke-width:1.0;" x1="150.75" x2="150.75" y1="108" y2="133.3154"/><polygon fill="#181818" points="146.75,123.3154,150.75,133.3154,154.75,123.3154,150.75,127.3154" style="stroke:#181818;stroke-width:1.0;"/><line style="stroke:#181818;stroke-width:1.0;" x1="242.25" x2="254.25" y1="96" y2="96"/><polygon fill="#181818" points="250.25,195.2373,254.25,205.2373,258.25,195.2373,254.25,199.2373" style="stroke:#181818;stroke-width:1.0;"/><line style="stroke:#181818;stroke-width:1.0;" x1="254.25" x2="254.25" y1="96" y2="324.1592"/><line style="stroke:#181818;stroke-width:1.0;" x1="254.25" x2="162.75" y1="324.1592" y2="324.1592"/><polygon fill="#181818" points="172.75,320.1592,162.75,324.1592,172.75,328.1592,168.75,324.1592" style="stroke:#181818;stroke-width:1.0;"/><line style="stroke:#181818;stroke-width:1.0;" x1="150.75" x2="150.75" y1="292.1592" y2="312.1592"/><polygon fill="#181818" points="146.75,302.1592,150.75,312.1592,154.75,302.1592,150.75,306.1592" style="stroke:#181818;stroke-width:1.0;"/><line style="stroke:#181818;stroke-width:1.0;" x1="388.75" x2="388.75" y1="169.2764" y2="189.2764"/><polygon fill="#181818" points="384.75,179.2764,388.75,189.2764,392.75,179.2764,388.75,183.2764" style="stroke:#181818;stroke-width:1.0;"/><line style="stroke:#181818;stroke-width:1.0;" x1="388.75" x2="388.75" y1="108" y2="133.3154"/><polygon fill="#181818" points="384.75,123.3154,388.75,133.3154,392.75,123.3154,388.75,127.3154" style="stroke:#181818;stroke-width:1.0;"/><line style="stroke:#181818;stroke-width:1.0;" x1="495.75" x2="507.75" y1="96" y2="96"/><polygon fill="#181818" points="503.75,210.2373,507.75,220.2373,511.75,210.2373,507.75,214.2373" style="stroke:#181818;stroke-width:1.0;"/><line style="stroke:#181818;stroke-width:1.0;" x1="507.75" x2="507.75" y1="96" y2="354.1592"/><line style="stroke:#181818;stroke-width:1.0;" x1="507.75" x2="281.75" y1="354.1592" y2="354.1592"/><polygon fill="#181818" points="291.75,350.1592,281.75,354.1592,291.75,358.1592,287.75,354.1592" style="stroke:#181818;stroke-width:1.0;"/><line style="stroke:#181818;stroke-width:1.0;" x1="185.75" x2="150.75" y1="62" y2="62"/><line style="stroke:#181818;stroke-width:1.0;" x1="150.75" x2="150.75" y1="62" y2="84"/><polygon fill="#181818" points="146.75,74,150.75,84,154.75,74,150.75,78" style="stroke:#181818;stroke-width:1.0;"/><line style="stroke:#181818;stroke-width:1.0;" x1="353.75" x2="388.75" y1="62" y2="62"/><line style="stroke:#181818;stroke-width:1.0;" x1="388.75" x2="388.75" y1="62" y2="84"/><polygon fill="#181818" points="384.75,74,388.75,84,392.75,74,388.75,78" style="stroke:#181818;stroke-width:1.0;"/><line style="stroke:#181818;stroke-width:1.0;" x1="150.75" x2="150.75" y1="336.1592" y2="354.1592"/><line style="stroke:#181818;stroke-width:1.0;" x1="150.75" x2="257.75" y1="354.1592" y2="354.1592"/><polygon fill="#181818" points="247.75,350.1592,257.75,354.1592,247.75,358.1592,251.75,354.1592" style="stroke:#181818;stroke-width:1.0;"/><line style="stroke:#181818;stroke-width:1.0;" x1="269.75" x2="269.75" y1="30" y2="50"/><polygon fill="#181818" points="265.75,40,269.75,50,273.75,40,269.75,44" style="stroke:#181818;stroke-width:1.0;"/><line style="stroke:#181818;stroke-width:1.0;" x1="269.75" x2="269.75" y1="366.1592" y2="386.1592"/><polygon fill="#181818" points="265.75,376.1592,269.75,386.1592,273.75,376.1592,269.75,380.1592" style="stroke:#181818;stroke-width:1.0;"/><line style="stroke:#181818;stroke-width:1.0;" x1="150" x2="150" y1="544.0029" y2="611.6582"/><polygon fill="#181818" points="146,601.6582,150,611.6582,154,601.6582,150,605.6582" style="stroke:#181818;stroke-width:1.0;"/><line style="stroke:#181818;stroke-width:1.0;" x1="150" x2="150" y1="647.6191" y2="667.9736"/><polygon fill="#181818" points="146,657.9736,150,667.9736,154,657.9736,150,661.9736" style="stroke:#181818;stroke-width:1.0;"/><line style="stroke:#181818;stroke-width:1.0;" x1="150" x2="150" y1="703.9346" y2="723.9346"/><polygon fill="#181818" points="146,713.9346,150,723.9346,154,713.9346,150,717.9346" style="stroke:#181818;stroke-width:1.0;"/><line style="stroke:#181818;stroke-width:1.0;" x1="389.5" x2="389.5" y1="566.6582" y2="599.3135"/><polygon fill="#181818" points="385.5,589.3135,389.5,599.3135,393.5,589.3135,389.5,593.3135" style="stroke:#181818;stroke-width:1.0;"/><line style="stroke:#181818;stroke-width:1.0;" x1="389.5" x2="389.5" y1="505.3818" y2="530.6973"/><polygon fill="#181818" points="385.5,520.6973,389.5,530.6973,393.5,520.6973,389.5,524.6973" style="stroke:#181818;stroke-width:1.0;"/><line style="stroke:#181818;stroke-width:1.0;" x1="470" x2="482" y1="490.751" y2="490.751"/><polygon fill="#181818" points="478,637.9736,482,647.9736,486,637.9736,482,641.9736" style="stroke:#181818;stroke-width:1.0;"/><line style="stroke:#181818;stroke-width:1.0;" x1="482" x2="482" y1="490.751" y2="777.8955"/><line style="stroke:#181818;stroke-width:1.0;" x1="482" x2="281.75" y1="777.8955" y2="777.8955"/><polygon fill="#181818" points="291.75,773.8955,281.75,777.8955,291.75,781.8955,287.75,777.8955" style="stroke:#181818;stroke-width:1.0;"/><line style="stroke:#181818;stroke-width:1.0;" x1="170.75" x2="150" y1="454.1201" y2="454.1201"/><line style="stroke:#181818;stroke-width:1.0;" x1="150" x2="150" y1="454.1201" y2="476.1201"/><polygon fill="#181818" points="146,466.1201,150,476.1201,154,466.1201,150,470.1201" style="stroke:#181818;stroke-width:1.0;"/><line style="stroke:#181818;stroke-width:1.0;" x1="368.75" x2="389.5" y1="454.1201" y2="454.1201"/><line style="stroke:#181818;stroke-width:1.0;" x1="389.5" x2="389.5" y1="454.1201" y2="476.1201"/><polygon fill="#181818" points="385.5,466.1201,389.5,476.1201,393.5,466.1201,389.5,470.1201" style="stroke:#181818;stroke-width:1.0;"/><line style="stroke:#181818;stroke-width:1.0;" x1="150" x2="150" y1="759.8955" y2="777.8955"/><line style="stroke:#181818;stroke-width:1.0;" x1="150" x2="257.75" y1="777.8955" y2="777.8955"/><polygon fill="#181818" points="247.75,773.8955,257.75,777.8955,247.75,781.8955,251.75,777.8955" style="stroke:#181818;stroke-width:1.0;"/><line style="stroke:#181818;stroke-width:1.0;" x1="269.75" x2="269.75" y1="422.1201" y2="442.1201"/><polygon fill="#181818" points="265.75,432.1201,269.75,442.1201,273.75,432.1201,269.75,436.1201" style="stroke:#181818;stroke-width:1.0;"/><line style="stroke:#181818;stroke-width:1.0;" x1="269.75" x2="269.75" y1="789.8955" y2="809.8955"/><polygon fill="#181818" points="265.75,799.8955,269.75,809.8955,273.75,799.8955,269.75,803.8955" style="stroke:#181818;stroke-width:1.0;"/><line style="stroke:#181818;stroke-width:1.0;" x1="269.75" x2="269.75" y1="845.8564" y2="865.8564"/><polygon fill="#181818" points="265.75,855.8564,269.75,865.8564,273.75,855.8564,269.75,859.8564" style="stroke:#181818;stroke-width:1.0;"/><line style="stroke:#181818;stroke-width:1.0;" x1="269.75" x2="269.75" y1="901.8174" y2="921.8174"/><polygon fill="#181818" points="265.75,911.8174,269.75,921.8174,273.75,911.8174,269.75,915.8174" style="stroke:#181818;stroke-width:1.0;"/><!--SRC=[VLF1Re904Btp5Nkilo27_WWNswxLn40ZV81AchQHQEAffvgc_G1AIqG4_8MPF-hCBee8oc5Ps9dtPjwyTRtUs3ECOL_Sm1fYd424SzWAs408U_Hn2gcWpGGA-AKrX0modDzsX3UGDYNzGTWn13qAOaN9Fno6CmmeZq4WHP-tXK2ViWlOuGlzpo71HOMJ4_bC8_7JDO_RKUzEZiJzm75SMPqB-8AKO3R46D4xXapeWedQnyK9kMKBI607YL0D41F4Wk9yV2DIYYU0Ge54-Cgvb81JGO6XGkFUjuei8uoc6BfKQJyC-uOSkRBUJPikEVETLIb8oXqkwxGnf2rIdmdqw7ZEgJvb9MebdTQQ0S9hJKM70Zd0r7vODNebtRHYUhWyoe2SeiGZ6MCMkNMaNM7PbbsMN0vqB7kUB4_Xaq0stA4Uf1A8cSarxKIuD8sBHg2G1FRYHfk1O6F8SNPmWUegLh1CM446dIkOy0tly64U9bpt_R7ya_aUobUabbr9h6Bg_cCly1TdL0BMCZIRPgTRUOdlYaCgmHiEQHCugBd2vC0LFhDeTD2y1hvfk9xpz0y0]--></g></svg>