<?xml version="1.0" encoding="us-ascii" standalone="no"?><svg xmlns="http://www.w3.org/2000/svg" xmlns:xlink="http://www.w3.org/1999/xlink" contentStyleType="text/css" height="411px" preserveAspectRatio="none" style="width:827px;height:411px;background:#FFFFFF;" version="1.1" viewBox="0 0 827 411" width="827px" zoomAndPan="magnify"><defs/><g><rect fill="none" height="23.9414" style="stroke:none;stroke-width:1.0;" width="794.5" x="15" y="13.0176"/><rect fill="#F1F1F1" height="35.9609" rx="12.5" ry="12.5" style="stroke:#181818;stroke-width:0.5;" width="130" x="43.5" y="41.959"/><text fill="#000000" font-family="sans-serif" font-size="12" lengthAdjust="spacing" textLength="110" x="53.5" y="64.9082">&#1042;&#1099;&#1083;&#1086;&#1078;&#1080;&#1090;&#1100; &#1079;&#1072;&#1076;&#1072;&#1085;&#1080;&#1077;</text><rect fill="#F1F1F1" height="35.9609" rx="12.5" ry="12.5" style="stroke:#181818;stroke-width:0.5;" width="175" x="21" y="225.8027"/><text fill="#000000" font-family="sans-serif" font-size="12" lengthAdjust="spacing" textLength="155" x="31" y="248.752">&#1055;&#1088;&#1086;&#1074;&#1077;&#1088;&#1080;&#1090;&#1100; &#1088;&#1072;&#1073;&#1086;&#1090;&#1091; &#1089;&#1090;&#1091;&#1076;&#1077;&#1085;&#1090;&#1072;</text><line style="stroke:#000000;stroke-width:1.5;" x1="15" x2="15" y1="13.0176" y2="399.7246"/><rect fill="#F1F1F1" height="35.9609" rx="12.5" ry="12.5" style="stroke:#181818;stroke-width:0.5;" width="198" x="291.25" y="97.9199"/><text fill="#000000" font-family="sans-serif" font-size="12" lengthAdjust="spacing" textLength="178" x="301.25" y="120.8691">&#1047;&#1072;&#1075;&#1088;&#1091;&#1079;&#1080;&#1090;&#1100; &#1088;&#1080;&#1089;&#1091;&#1085;&#1086;&#1082; &#1076;&#1083;&#1103; &#1079;&#1072;&#1076;&#1072;&#1085;&#1080;&#1103;</text><polygon fill="#F1F1F1" points="341.25,281.7637,439.25,281.7637,451.25,293.7637,439.25,305.7637,341.25,305.7637,329.25,293.7637,341.25,281.7637" style="stroke:#181818;stroke-width:0.5;"/><text fill="#000000" font-family="sans-serif" font-size="11" lengthAdjust="spacing" textLength="98" x="341.25" y="298.3184">&#1056;&#1072;&#1073;&#1086;&#1090;&#1072; &#1086;&#1090;&#1082;&#1083;&#1086;&#1085;&#1077;&#1085;&#1072;?</text><text fill="#000000" font-family="sans-serif" font-size="11" lengthAdjust="spacing" textLength="12" x="317.25" y="291.0029">&#1076;&#1072;</text><text fill="#000000" font-family="sans-serif" font-size="11" lengthAdjust="spacing" textLength="18" x="451.25" y="291.0029">&#1085;&#1077;&#1090;</text><rect fill="#F1F1F1" height="35.9609" rx="12.5" ry="12.5" style="stroke:#181818;stroke-width:0.5;" width="175" x="206" y="315.7637"/><text fill="#000000" font-family="sans-serif" font-size="12" lengthAdjust="spacing" textLength="155" x="216" y="338.7129">&#1057;&#1090;&#1091;&#1076;&#1077;&#1085;&#1090; &#1080;&#1089;&#1087;&#1088;&#1072;&#1074;&#1083;&#1103;&#1077;&#1090; &#1088;&#1072;&#1073;&#1086;&#1090;&#1091;</text><ellipse cx="293.5" cy="382.7246" fill="none" rx="11" ry="11" style="stroke:#222222;stroke-width:1.0;"/><ellipse cx="293.5" cy="382.7246" fill="#222222" rx="6" ry="6" style="stroke:#222222;stroke-width:1.0;"/><rect fill="#F1F1F1" height="35.9609" rx="12.5" ry="12.5" style="stroke:#181818;stroke-width:0.5;" width="172" x="401" y="315.7637"/><text fill="#000000" font-family="sans-serif" font-size="12" lengthAdjust="spacing" textLength="152" x="411" y="338.7129">&#1046;&#1076;&#1077;&#1090; &#1089;&#1083;&#1077;&#1076;&#1091;&#1102;&#1097;&#1077;&#1075;&#1086; &#1079;&#1072;&#1076;&#1072;&#1085;&#1080;&#1103;</text><ellipse cx="487" cy="382.7246" fill="none" rx="11" ry="11" style="stroke:#222222;stroke-width:1.0;"/><ellipse cx="487" cy="382.7246" fill="#222222" rx="6" ry="6" style="stroke:#222222;stroke-width:1.0;"/><line style="stroke:#000000;stroke-width:1.5;" x1="200" x2="200" y1="13.0176" y2="399.7246"/><rect fill="#F1F1F1" height="51.9219" rx="12.5" ry="12.5" style="stroke:#181818;stroke-width:0.5;" width="221" x="583" y="153.8809"/><text fill="#000000" font-family="sans-serif" font-size="12" lengthAdjust="spacing" textLength="149" x="593" y="176.8301">&#1040;&#1074;&#1090;&#1086;&#1084;&#1072;&#1090;&#1080;&#1095;&#1077;&#1089;&#1082;&#1072;&#1103; &#1087;&#1088;&#1086;&#1074;&#1077;&#1088;&#1082;&#1072;</text><text fill="#000000" font-family="sans-serif" font-size="12" lengthAdjust="spacing" textLength="201" x="593" y="192.791">&#1085;&#1072; &#1087;&#1083;&#1072;&#1075;&#1080;&#1072;&#1090; &#1080; &#1089;&#1086;&#1086;&#1090;&#1074;&#1077;&#1090;&#1089;&#1090;&#1074;&#1080;&#1077; &#1079;&#1072;&#1076;&#1072;&#1085;&#1080;&#1102;</text><line style="stroke:#000000;stroke-width:1.5;" x1="577" x2="577" y1="13.0176" y2="399.7246"/><line style="stroke:#000000;stroke-width:1.5;" x1="808" x2="808" y1="13.0176" y2="399.7246"/><line style="stroke:#181818;stroke-width:1.0;" x1="293.5" x2="293.5" y1="351.7246" y2="371.7246"/><polygon fill="#181818" points="289.5,361.7246,293.5,371.7246,297.5,361.7246,293.5,365.7246" style="stroke:#181818;stroke-width:1.0;"/><line style="stroke:#181818;stroke-width:1.0;" x1="487" x2="487" y1="351.7246" y2="371.7246"/><polygon fill="#181818" points="483,361.7246,487,371.7246,491,361.7246,487,365.7246" style="stroke:#181818;stroke-width:1.0;"/><line style="stroke:#181818;stroke-width:1.0;" x1="329.25" x2="293.5" y1="293.7637" y2="293.7637"/><line style="stroke:#181818;stroke-width:1.0;" x1="293.5" x2="293.5" y1="293.7637" y2="315.7637"/><polygon fill="#181818" points="289.5,305.7637,293.5,315.7637,297.5,305.7637,293.5,309.7637" style="stroke:#181818;stroke-width:1.0;"/><line style="stroke:#181818;stroke-width:1.0;" x1="451.25" x2="487" y1="293.7637" y2="293.7637"/><line style="stroke:#181818;stroke-width:1.0;" x1="487" x2="487" y1="293.7637" y2="315.7637"/><polygon fill="#181818" points="483,305.7637,487,315.7637,491,305.7637,487,309.7637" style="stroke:#181818;stroke-width:1.0;"/><line style="stroke:#181818;stroke-width:1.0;" x1="108.5" x2="108.5" y1="77.9199" y2="82.9199"/><line style="stroke:#181818;stroke-width:1.0;" x1="108.5" x2="390.25" y1="82.9199" y2="82.9199"/><line style="stroke:#181818;stroke-width:1.0;" x1="390.25" x2="390.25" y1="82.9199" y2="97.9199"/><polygon fill="#181818" points="386.25,87.9199,390.25,97.9199,394.25,87.9199,390.25,91.9199" style="stroke:#181818;stroke-width:1.0;"/><line style="stroke:#181818;stroke-width:1.0;" x1="390.25" x2="390.25" y1="133.8809" y2="138.8809"/><line style="stroke:#181818;stroke-width:1.0;" x1="390.25" x2="693.5" y1="138.8809" y2="138.8809"/><line style="stroke:#181818;stroke-width:1.0;" x1="693.5" x2="693.5" y1="138.8809" y2="153.8809"/><polygon fill="#181818" points="689.5,143.8809,693.5,153.8809,697.5,143.8809,693.5,147.8809" style="stroke:#181818;stroke-width:1.0;"/><line style="stroke:#181818;stroke-width:1.0;" x1="693.5" x2="693.5" y1="205.8027" y2="210.8027"/><line style="stroke:#181818;stroke-width:1.0;" x1="693.5" x2="108.5" y1="210.8027" y2="210.8027"/><line style="stroke:#181818;stroke-width:1.0;" x1="108.5" x2="108.5" y1="210.8027" y2="225.8027"/><polygon fill="#181818" points="104.5,215.8027,108.5,225.8027,112.5,215.8027,108.5,219.8027" style="stroke:#181818;stroke-width:1.0;"/><line style="stroke:#181818;stroke-width:1.0;" x1="108.5" x2="108.5" y1="261.7637" y2="266.7637"/><line style="stroke:#181818;stroke-width:1.0;" x1="108.5" x2="390.25" y1="266.7637" y2="266.7637"/><line style="stroke:#181818;stroke-width:1.0;" x1="390.25" x2="390.25" y1="266.7637" y2="281.7637"/><polygon fill="#181818" points="386.25,271.7637,390.25,281.7637,394.25,271.7637,390.25,275.7637" style="stroke:#181818;stroke-width:1.0;"/><text fill="#000000" font-family="sans-serif" font-size="18" lengthAdjust="spacing" textLength="133" x="41" y="32.4414">&#1055;&#1088;&#1077;&#1087;&#1086;&#1076;&#1072;&#1074;&#1072;&#1090;&#1077;&#1083;&#1100;</text><text fill="#000000" font-family="sans-serif" font-size="18" lengthAdjust="spacing" textLength="69" x="354" y="32.4414">&#1057;&#1090;&#1091;&#1076;&#1077;&#1085;&#1090;</text><text fill="#000000" font-family="sans-serif" font-size="18" lengthAdjust="spacing" textLength="94" x="645.5" y="32.4414">&#1055;&#1088;&#1086;&#1075;&#1088;&#1072;&#1084;&#1084;&#1072;</text><!--SRC=[TP4zJiD058Hxds9BSeMau2AKE28I2aX9wS8_1K942QA0Cd23nOc9PMFd2lDkn8o50GkGYzsTVVFjlES8MujHu8WMUtZay9RoNDig2iPui3lKl7f3QQcj70wiKLs34iKaYF12FQDKeB5KbYVUxYocUFWqyO7I4WeDIPLZSMsR0SesGYb9Ao_5TtvUk7la3DJgoBMq6nIMeEA9Y6Fdo2d5aixcX7dApCmGZ4YFG-deQD7IhzAKMRHZ0yCGwpx4l-FO_dZlgpUFLx4jSm9_3mF-Z_dCfku4pxr7ORLKtP0R5S6VZjpo8fopZWb6WNFZ8SHfcbthoiTHggT1a0bDY-NLTH1UBa9o6bM89DQZE38aVBJ0tZ9RsortExI_VahFcP_Ffi47]--></g></svg>