<?xml version="1.0" encoding="us-ascii" standalone="no"?><svg xmlns="http://www.w3.org/2000/svg" xmlns:xlink="http://www.w3.org/1999/xlink" contentStyleType="text/css" height="2040px" preserveAspectRatio="none" style="width:1995px;height:2040px;background:#FFFFFF;" version="1.1" viewBox="0 0 1995 2040" width="1995.2px" zoomAndPan="magnify"><defs/><g><!--class ConfigController--><g id="elem_ConfigController"><rect codeLine="2" fill="#F1F1F1" height="255.5625" id="ConfigController" rx="4" ry="4" style="stroke:#181818;stroke-width:0.8000000000000002;" width="275.2" x="1028.8" y="540.8"/><ellipse cx="1079.44" cy="566.4" fill="#ADD1B2" rx="17.6" ry="17.6" style="stroke:#181818;stroke-width:1.6000000000000003;"/><path d="M1083.865,559.8 Q1084.115,559.45 1084.415,559.275 Q1084.715,559.1 1085.065,559.1 Q1085.665,559.1 1086.04,559.525 Q1086.415,559.925 1086.415,560.9 L1086.415,563.225 Q1086.415,564.2 1086.04,564.625 Q1085.665,565.05 1085.065,565.05 Q1084.515,565.05 1084.19,564.725 Q1083.865,564.425 1083.69,563.6 Q1083.615,563.025 1083.315,562.725 Q1082.79,562.125 1081.815,561.775 Q1080.84,561.425 1079.84,561.425 Q1078.615,561.425 1077.59,561.95 Q1076.59,562.475 1075.79,563.675 Q1075.015,564.875 1075.015,566.525 L1075.015,568.275 Q1075.015,570.25 1076.44,571.575 Q1077.865,572.875 1080.415,572.875 Q1081.915,572.875 1082.965,572.475 Q1083.59,572.225 1084.265,571.525 Q1084.69,571.1 1084.915,570.975 Q1085.165,570.85 1085.49,570.85 Q1086.015,570.85 1086.415,571.275 Q1086.84,571.675 1086.84,572.225 Q1086.84,572.775 1086.29,573.425 Q1085.49,574.35 1084.215,574.875 Q1082.49,575.6 1080.415,575.6 Q1077.99,575.6 1076.065,574.6 Q1074.49,573.8 1073.39,572.1 Q1072.29,570.375 1072.29,568.325 L1072.29,566.475 Q1072.29,564.35 1073.265,562.525 Q1074.265,560.675 1076.015,559.7 Q1077.765,558.7 1079.74,558.7 Q1080.915,558.7 1081.94,558.975 Q1082.99,559.225 1083.865,559.8 Z " fill="#000000"/><text fill="#000000" font-family="sans-serif" font-size="22.4" lengthAdjust="spacing" textLength="164.8" x="1107.76" y="575.675">ConfigController</text><line style="stroke:#181818;stroke-width:0.8000000000000002;" x1="1030.4" x2="1302.4" y1="592" y2="592"/><text fill="#000000" font-family="sans-serif" font-size="22.4" lengthAdjust="spacing" textLength="177.6" x="1038.4" y="622.5719">default_folder: str</text><text fill="#000000" font-family="sans-serif" font-size="22.4" lengthAdjust="spacing" textLength="160" x="1038.4" y="652.3656">folder_path : str</text><text fill="#000000" font-family="sans-serif" font-size="22.4" lengthAdjust="spacing" textLength="163.2" x="1038.4" y="682.1594">main_config_file</text><text fill="#000000" font-family="sans-serif" font-size="22.4" lengthAdjust="spacing" textLength="256" x="1038.4" y="711.9531">managers: list&lt;Manager&gt;</text><line style="stroke:#181818;stroke-width:0.8000000000000002;" x1="1030.4" x2="1302.4" y1="723.975" y2="723.975"/><text fill="#000000" font-family="sans-serif" font-size="22.4" lengthAdjust="spacing" textLength="195.2" x="1038.4" y="754.5469">initialize(managers)</text><text fill="#000000" font-family="sans-serif" font-size="22.4" lengthAdjust="spacing" textLength="168" x="1038.4" y="784.3406">save_on_close()</text></g><!--class Manager--><g id="elem_Manager"><rect codeLine="10" fill="#F1F1F1" height="136.3875" id="Manager" rx="4" ry="4" style="stroke:#181818;stroke-width:0.8000000000000002;" width="409.6" x="912" y="892.8"/><ellipse cx="1064.4" cy="918.4" fill="#B4A7E5" rx="17.6" ry="17.6" style="stroke:#181818;stroke-width:1.6000000000000003;"/><path d="M1065.925,913.025 L1065.925,923.675 L1068.675,923.675 Q1069.65,923.675 1070.075,924.05 Q1070.5,924.425 1070.5,925.05 Q1070.5,925.65 1070.075,926.025 Q1069.65,926.4 1068.675,926.4 L1060.45,926.4 Q1059.475,926.4 1059.05,926.025 Q1058.625,925.65 1058.625,925.025 Q1058.625,924.425 1059.05,924.05 Q1059.475,923.675 1060.45,923.675 L1063.2,923.675 L1063.2,913.025 L1060.45,913.025 Q1059.475,913.025 1059.05,912.65 Q1058.625,912.275 1058.625,911.65 Q1058.625,911.05 1059.05,910.675 Q1059.475,910.3 1060.45,910.3 L1068.675,910.3 Q1069.65,910.3 1070.075,910.675 Q1070.5,911.05 1070.5,911.65 Q1070.5,912.275 1070.075,912.65 Q1069.65,913.025 1068.675,913.025 L1065.925,913.025 Z " fill="#000000"/><text fill="#000000" font-family="sans-serif" font-size="22.4" font-style="italic" lengthAdjust="spacing" textLength="91.2" x="1097.2" y="927.675">Manager</text><line style="stroke:#181818;stroke-width:0.8000000000000002;" x1="913.6" x2="1320" y1="944" y2="944"/><line style="stroke:#181818;stroke-width:0.8000000000000002;" x1="913.6" x2="1320" y1="956.8" y2="956.8"/><text fill="#000000" font-family="sans-serif" font-size="22.4" font-style="italic" lengthAdjust="spacing" textLength="390.4" x="921.6" y="987.3719">load_folder_configs(main_folder_path)</text><text fill="#000000" font-family="sans-serif" font-size="22.4" font-style="italic" lengthAdjust="spacing" textLength="217.6" x="921.6" y="1017.1656">save_folder_configs()</text></g><!--class PaintManager--><g id="elem_PaintManager"><rect codeLine="14" fill="#F1F1F1" height="464.1188" id="PaintManager" rx="4" ry="4" style="stroke:#181818;stroke-width:0.8000000000000002;" width="892.8" x="300.8" y="1124.8"/><ellipse cx="670" cy="1150.4" fill="#ADD1B2" rx="17.6" ry="17.6" style="stroke:#181818;stroke-width:1.6000000000000003;"/><path d="M674.425,1143.8 Q674.675,1143.45 674.975,1143.275 Q675.275,1143.1 675.625,1143.1 Q676.225,1143.1 676.6,1143.525 Q676.975,1143.925 676.975,1144.9 L676.975,1147.225 Q676.975,1148.2 676.6,1148.625 Q676.225,1149.05 675.625,1149.05 Q675.075,1149.05 674.75,1148.725 Q674.425,1148.425 674.25,1147.6 Q674.175,1147.025 673.875,1146.725 Q673.35,1146.125 672.375,1145.775 Q671.4,1145.425 670.4,1145.425 Q669.175,1145.425 668.15,1145.95 Q667.15,1146.475 666.35,1147.675 Q665.575,1148.875 665.575,1150.525 L665.575,1152.275 Q665.575,1154.25 667,1155.575 Q668.425,1156.875 670.975,1156.875 Q672.475,1156.875 673.525,1156.475 Q674.15,1156.225 674.825,1155.525 Q675.25,1155.1 675.475,1154.975 Q675.725,1154.85 676.05,1154.85 Q676.575,1154.85 676.975,1155.275 Q677.4,1155.675 677.4,1156.225 Q677.4,1156.775 676.85,1157.425 Q676.05,1158.35 674.775,1158.875 Q673.05,1159.6 670.975,1159.6 Q668.55,1159.6 666.625,1158.6 Q665.05,1157.8 663.95,1156.1 Q662.85,1154.375 662.85,1152.325 L662.85,1150.475 Q662.85,1148.35 663.825,1146.525 Q664.825,1144.675 666.575,1143.7 Q668.325,1142.7 670.3,1142.7 Q671.475,1142.7 672.5,1142.975 Q673.55,1143.225 674.425,1143.8 Z " fill="#000000"/><text fill="#000000" font-family="sans-serif" font-size="22.4" lengthAdjust="spacing" textLength="140.8" x="702.8" y="1159.675">PaintManager</text><line style="stroke:#181818;stroke-width:0.8000000000000002;" x1="302.4" x2="1192" y1="1176" y2="1176"/><text fill="#000000" font-family="sans-serif" font-size="22.4" lengthAdjust="spacing" textLength="164.8" x="310.4" y="1206.5719">image_data : list</text><text fill="#000000" font-family="sans-serif" font-size="22.4" lengthAdjust="spacing" textLength="249.6" x="310.4" y="1236.3656">image_data_filepath : str</text><text fill="#000000" font-family="sans-serif" font-size="22.4" lengthAdjust="spacing" textLength="220.8" x="310.4" y="1266.1594">main_folder_path : str</text><line style="stroke:#181818;stroke-width:0.8000000000000002;" x1="302.4" x2="1192" y1="1278.1813" y2="1278.1813"/><text fill="#000000" font-family="sans-serif" font-size="22.4" lengthAdjust="spacing" textLength="326.4" x="310.4" y="1308.7531">check_work_dialog(image_data)</text><text fill="#000000" font-family="sans-serif" font-size="22.4" lengthAdjust="spacing" textLength="769.6" x="310.4" y="1338.5469">checked_works_dialog(student_id, task_manager, similarity, unique_search)</text><text fill="#000000" font-family="sans-serif" font-size="22.4" lengthAdjust="spacing" textLength="638.4" x="310.4" y="1368.3406">create_paint_dialog(student_id, task, similarity, unique_search)</text><text fill="#000000" font-family="sans-serif" font-size="22.4" lengthAdjust="spacing" textLength="212.8" x="310.4" y="1398.1344">get_image(image_id)</text><text fill="#000000" font-family="sans-serif" font-size="22.4" lengthAdjust="spacing" textLength="366.4" x="310.4" y="1427.9281">get_not_checked_works(student_id)</text><text fill="#000000" font-family="sans-serif" font-size="22.4" lengthAdjust="spacing" textLength="390.4" x="310.4" y="1457.7219">load_folder_configs(main_folder_path)</text><text fill="#000000" font-family="sans-serif" font-size="22.4" lengthAdjust="spacing" textLength="316.8" x="310.4" y="1487.5156">open_image_window(image_id)</text><text fill="#000000" font-family="sans-serif" font-size="22.4" lengthAdjust="spacing" textLength="219.2" x="310.4" y="1517.3094">save_folder_configs()</text><text fill="#000000" font-family="sans-serif" font-size="22.4" lengthAdjust="spacing" textLength="380.8" x="310.4" y="1547.1031">show_images_by_ids(image_ids, title)</text><text fill="#000000" font-family="sans-serif" font-size="22.4" lengthAdjust="spacing" textLength="873.6" x="310.4" y="1576.8969">show_images_dialog(student_id, unique_search, task_manager, other_student_name)</text></g><!--class SimilarityModel--><g id="elem_SimilarityModel"><rect codeLine="29" fill="#F1F1F1" height="225.7688" id="SimilarityModel" rx="4" ry="4" style="stroke:#181818;stroke-width:0.8000000000000002;" width="459.2" x="680.8" y="1744.8"/><ellipse cx="828.4" cy="1770.4" fill="#ADD1B2" rx="17.6" ry="17.6" style="stroke:#181818;stroke-width:1.6000000000000003;"/><path d="M832.825,1763.8 Q833.075,1763.45 833.375,1763.275 Q833.675,1763.1 834.025,1763.1 Q834.625,1763.1 835,1763.525 Q835.375,1763.925 835.375,1764.9 L835.375,1767.225 Q835.375,1768.2 835,1768.625 Q834.625,1769.05 834.025,1769.05 Q833.475,1769.05 833.15,1768.725 Q832.825,1768.425 832.65,1767.6 Q832.575,1767.025 832.275,1766.725 Q831.75,1766.125 830.775,1765.775 Q829.8,1765.425 828.8,1765.425 Q827.575,1765.425 826.55,1765.95 Q825.55,1766.475 824.75,1767.675 Q823.975,1768.875 823.975,1770.525 L823.975,1772.275 Q823.975,1774.25 825.4,1775.575 Q826.825,1776.875 829.375,1776.875 Q830.875,1776.875 831.925,1776.475 Q832.55,1776.225 833.225,1775.525 Q833.65,1775.1 833.875,1774.975 Q834.125,1774.85 834.45,1774.85 Q834.975,1774.85 835.375,1775.275 Q835.8,1775.675 835.8,1776.225 Q835.8,1776.775 835.25,1777.425 Q834.45,1778.35 833.175,1778.875 Q831.45,1779.6 829.375,1779.6 Q826.95,1779.6 825.025,1778.6 Q823.45,1777.8 822.35,1776.1 Q821.25,1774.375 821.25,1772.325 L821.25,1770.475 Q821.25,1768.35 822.225,1766.525 Q823.225,1764.675 824.975,1763.7 Q826.725,1762.7 828.7,1762.7 Q829.875,1762.7 830.9,1762.975 Q831.95,1763.225 832.825,1763.8 Z " fill="#000000"/><text fill="#000000" font-family="sans-serif" font-size="22.4" lengthAdjust="spacing" textLength="150.4" x="861.2" y="1779.675">SimilarityModel</text><line style="stroke:#181818;stroke-width:0.8000000000000002;" x1="682.4" x2="1138.4" y1="1796" y2="1796"/><text fill="#000000" font-family="sans-serif" font-size="22.4" lengthAdjust="spacing" textLength="243.2" x="690.4" y="1826.5719">image_to_text_predictor</text><text fill="#000000" font-family="sans-serif" font-size="22.4" lengthAdjust="spacing" textLength="132.8" x="690.4" y="1856.3656">model_en_ru</text><text fill="#000000" font-family="sans-serif" font-size="22.4" lengthAdjust="spacing" textLength="435.2" x="690.4" y="1886.1594">sentence_predictor : SentenceTransformer</text><text fill="#000000" font-family="sans-serif" font-size="22.4" lengthAdjust="spacing" textLength="440" x="690.4" y="1915.9531">tokenizer_en_ru : PreTrainedTokenizerFast</text><line style="stroke:#181818;stroke-width:0.8000000000000002;" x1="682.4" x2="1138.4" y1="1927.975" y2="1927.975"/><text fill="#000000" font-family="sans-serif" font-size="22.4" lengthAdjust="spacing" textLength="432" x="690.4" y="1958.5469">compare_paint_and_task(paint, task, lang)</text></g><!--class TaskManager--><g id="elem_TaskManager"><rect codeLine="36" fill="#F1F1F1" height="344.9438" id="TaskManager" rx="4" ry="4" style="stroke:#181818;stroke-width:0.8000000000000002;" width="409.6" x="11.2" y="1684.8"/><ellipse cx="139.6" cy="1710.4" fill="#ADD1B2" rx="17.6" ry="17.6" style="stroke:#181818;stroke-width:1.6000000000000003;"/><path d="M144.025,1703.8 Q144.275,1703.45 144.575,1703.275 Q144.875,1703.1 145.225,1703.1 Q145.825,1703.1 146.2,1703.525 Q146.575,1703.925 146.575,1704.9 L146.575,1707.225 Q146.575,1708.2 146.2,1708.625 Q145.825,1709.05 145.225,1709.05 Q144.675,1709.05 144.35,1708.725 Q144.025,1708.425 143.85,1707.6 Q143.775,1707.025 143.475,1706.725 Q142.95,1706.125 141.975,1705.775 Q141,1705.425 140,1705.425 Q138.775,1705.425 137.75,1705.95 Q136.75,1706.475 135.95,1707.675 Q135.175,1708.875 135.175,1710.525 L135.175,1712.275 Q135.175,1714.25 136.6,1715.575 Q138.025,1716.875 140.575,1716.875 Q142.075,1716.875 143.125,1716.475 Q143.75,1716.225 144.425,1715.525 Q144.85,1715.1 145.075,1714.975 Q145.325,1714.85 145.65,1714.85 Q146.175,1714.85 146.575,1715.275 Q147,1715.675 147,1716.225 Q147,1716.775 146.45,1717.425 Q145.65,1718.35 144.375,1718.875 Q142.65,1719.6 140.575,1719.6 Q138.15,1719.6 136.225,1718.6 Q134.65,1717.8 133.55,1716.1 Q132.45,1714.375 132.45,1712.325 L132.45,1710.475 Q132.45,1708.35 133.425,1706.525 Q134.425,1704.675 136.175,1703.7 Q137.925,1702.7 139.9,1702.7 Q141.075,1702.7 142.1,1702.975 Q143.15,1703.225 144.025,1703.8 Z " fill="#000000"/><text fill="#000000" font-family="sans-serif" font-size="22.4" lengthAdjust="spacing" textLength="139.2" x="172.4" y="1719.675">TaskManager</text><line style="stroke:#181818;stroke-width:0.8000000000000002;" x1="12.8" x2="419.2" y1="1736" y2="1736"/><text fill="#000000" font-family="sans-serif" font-size="22.4" lengthAdjust="spacing" textLength="220.8" x="20.8" y="1766.5719">main_folder_path : str</text><text fill="#000000" font-family="sans-serif" font-size="22.4" lengthAdjust="spacing" textLength="99.2" x="20.8" y="1796.3656">tasks : list</text><text fill="#000000" font-family="sans-serif" font-size="22.4" lengthAdjust="spacing" textLength="184" x="20.8" y="1826.1594">tasks_filepath : str</text><line style="stroke:#181818;stroke-width:0.8000000000000002;" x1="12.8" x2="419.2" y1="1838.1813" y2="1838.1813"/><text fill="#000000" font-family="sans-serif" font-size="22.4" lengthAdjust="spacing" textLength="217.6" x="20.8" y="1868.7531">choose_task_dialog()</text><text fill="#000000" font-family="sans-serif" font-size="22.4" lengthAdjust="spacing" textLength="208" x="20.8" y="1898.5469">create_task_dialog()</text><text fill="#000000" font-family="sans-serif" font-size="22.4" lengthAdjust="spacing" textLength="179.2" x="20.8" y="1928.3406">find_task(task_id)</text><text fill="#000000" font-family="sans-serif" font-size="22.4" lengthAdjust="spacing" textLength="390.4" x="20.8" y="1958.1344">load_folder_configs(main_folder_path)</text><text fill="#000000" font-family="sans-serif" font-size="22.4" lengthAdjust="spacing" textLength="219.2" x="20.8" y="1987.9281">save_folder_configs()</text><text fill="#000000" font-family="sans-serif" font-size="22.4" lengthAdjust="spacing" textLength="232" x="20.8" y="2017.7219">show_description(task)</text></g><!--class UniqueSearchModel--><g id="elem_UniqueSearchModel"><rect codeLine="47" fill="#F1F1F1" height="344.9438" id="UniqueSearchModel" rx="4" ry="4" style="stroke:#181818;stroke-width:0.8000000000000002;" width="347.2" x="1520.8" y="1684.8"/><ellipse cx="1586.56" cy="1710.4" fill="#ADD1B2" rx="17.6" ry="17.6" style="stroke:#181818;stroke-width:1.6000000000000003;"/><path d="M1590.985,1703.8 Q1591.235,1703.45 1591.535,1703.275 Q1591.835,1703.1 1592.185,1703.1 Q1592.785,1703.1 1593.16,1703.525 Q1593.535,1703.925 1593.535,1704.9 L1593.535,1707.225 Q1593.535,1708.2 1593.16,1708.625 Q1592.785,1709.05 1592.185,1709.05 Q1591.635,1709.05 1591.31,1708.725 Q1590.985,1708.425 1590.81,1707.6 Q1590.735,1707.025 1590.435,1706.725 Q1589.91,1706.125 1588.935,1705.775 Q1587.96,1705.425 1586.96,1705.425 Q1585.735,1705.425 1584.71,1705.95 Q1583.71,1706.475 1582.91,1707.675 Q1582.135,1708.875 1582.135,1710.525 L1582.135,1712.275 Q1582.135,1714.25 1583.56,1715.575 Q1584.985,1716.875 1587.535,1716.875 Q1589.035,1716.875 1590.085,1716.475 Q1590.71,1716.225 1591.385,1715.525 Q1591.81,1715.1 1592.035,1714.975 Q1592.285,1714.85 1592.61,1714.85 Q1593.135,1714.85 1593.535,1715.275 Q1593.96,1715.675 1593.96,1716.225 Q1593.96,1716.775 1593.41,1717.425 Q1592.61,1718.35 1591.335,1718.875 Q1589.61,1719.6 1587.535,1719.6 Q1585.11,1719.6 1583.185,1718.6 Q1581.61,1717.8 1580.51,1716.1 Q1579.41,1714.375 1579.41,1712.325 L1579.41,1710.475 Q1579.41,1708.35 1580.385,1706.525 Q1581.385,1704.675 1583.135,1703.7 Q1584.885,1702.7 1586.86,1702.7 Q1588.035,1702.7 1589.06,1702.975 Q1590.11,1703.225 1590.985,1703.8 Z " fill="#000000"/><text fill="#000000" font-family="sans-serif" font-size="22.4" lengthAdjust="spacing" textLength="203.2" x="1618.24" y="1719.675">UniqueSearchModel</text><line style="stroke:#181818;stroke-width:0.8000000000000002;" x1="1522.4" x2="1866.4" y1="1736" y2="1736"/><text fill="#000000" font-family="sans-serif" font-size="22.4" lengthAdjust="spacing" textLength="212.8" x="1530.4" y="1766.5719">all_embeddings : dict</text><text fill="#000000" font-family="sans-serif" font-size="22.4" lengthAdjust="spacing" textLength="88" x="1530.4" y="1796.3656">extractor</text><text fill="#000000" font-family="sans-serif" font-size="22.4" lengthAdjust="spacing" textLength="60.8" x="1530.4" y="1826.1594">model</text><text fill="#000000" font-family="sans-serif" font-size="22.4" lengthAdjust="spacing" textLength="328" x="1530.4" y="1855.9531">transformation_chain : Compose</text><line style="stroke:#181818;stroke-width:0.8000000000000002;" x1="1522.4" x2="1866.4" y1="1867.975" y2="1867.975"/><text fill="#000000" font-family="sans-serif" font-size="22.4" lengthAdjust="spacing" textLength="219.2" x="1530.4" y="1898.5469">add_image(image, id)</text><text fill="#000000" font-family="sans-serif" font-size="22.4" lengthAdjust="spacing" textLength="272" x="1530.4" y="1928.3406">fetch_similar(image, top_k)</text><text fill="#000000" font-family="sans-serif" font-size="22.4" lengthAdjust="spacing" textLength="228.8" x="1530.4" y="1958.1344">find_duplicates(image)</text><text fill="#000000" font-family="sans-serif" font-size="22.4" lengthAdjust="spacing" textLength="208" x="1530.4" y="1987.9281">initialize(images_ids)</text><text fill="#000000" font-family="sans-serif" font-size="22.4" lengthAdjust="spacing" textLength="182.4" x="1530.4" y="2017.7219">remove_image(id)</text></g><!--class UserManager--><g id="elem_UserManager"><rect codeLine="58" fill="#F1F1F1" height="315.15" id="UserManager" rx="4" ry="4" style="stroke:#181818;stroke-width:0.8000000000000002;" width="409.6" x="1249.6" y="1199.2"/><ellipse cx="1379.6" cy="1224.8" fill="#ADD1B2" rx="17.6" ry="17.6" style="stroke:#181818;stroke-width:1.6000000000000003;"/><path d="M1384.025,1218.2 Q1384.275,1217.85 1384.575,1217.675 Q1384.875,1217.5 1385.225,1217.5 Q1385.825,1217.5 1386.2,1217.925 Q1386.575,1218.325 1386.575,1219.3 L1386.575,1221.625 Q1386.575,1222.6 1386.2,1223.025 Q1385.825,1223.45 1385.225,1223.45 Q1384.675,1223.45 1384.35,1223.125 Q1384.025,1222.825 1383.85,1222 Q1383.775,1221.425 1383.475,1221.125 Q1382.95,1220.525 1381.975,1220.175 Q1381,1219.825 1380,1219.825 Q1378.775,1219.825 1377.75,1220.35 Q1376.75,1220.875 1375.95,1222.075 Q1375.175,1223.275 1375.175,1224.925 L1375.175,1226.675 Q1375.175,1228.65 1376.6,1229.975 Q1378.025,1231.275 1380.575,1231.275 Q1382.075,1231.275 1383.125,1230.875 Q1383.75,1230.625 1384.425,1229.925 Q1384.85,1229.5 1385.075,1229.375 Q1385.325,1229.25 1385.65,1229.25 Q1386.175,1229.25 1386.575,1229.675 Q1387,1230.075 1387,1230.625 Q1387,1231.175 1386.45,1231.825 Q1385.65,1232.75 1384.375,1233.275 Q1382.65,1234 1380.575,1234 Q1378.15,1234 1376.225,1233 Q1374.65,1232.2 1373.55,1230.5 Q1372.45,1228.775 1372.45,1226.725 L1372.45,1224.875 Q1372.45,1222.75 1373.425,1220.925 Q1374.425,1219.075 1376.175,1218.1 Q1377.925,1217.1 1379.9,1217.1 Q1381.075,1217.1 1382.1,1217.375 Q1383.15,1217.625 1384.025,1218.2 Z " fill="#000000"/><text fill="#000000" font-family="sans-serif" font-size="22.4" lengthAdjust="spacing" textLength="136" x="1412.4" y="1234.075">UserManager</text><line style="stroke:#181818;stroke-width:0.8000000000000002;" x1="1251.2" x2="1657.6" y1="1250.4" y2="1250.4"/><text fill="#000000" font-family="sans-serif" font-size="22.4" lengthAdjust="spacing" textLength="220.8" x="1259.2" y="1280.9719">main_folder_path : str</text><text fill="#000000" font-family="sans-serif" font-size="22.4" lengthAdjust="spacing" textLength="102.4" x="1259.2" y="1310.7656">users : list</text><text fill="#000000" font-family="sans-serif" font-size="22.4" lengthAdjust="spacing" textLength="187.2" x="1259.2" y="1340.5594">users_filepath : str</text><line style="stroke:#181818;stroke-width:0.8000000000000002;" x1="1251.2" x2="1657.6" y1="1352.5813" y2="1352.5813"/><text fill="#000000" font-family="sans-serif" font-size="22.4" lengthAdjust="spacing" textLength="220.8" x="1259.2" y="1383.1531">choose_user_dialog()</text><text fill="#000000" font-family="sans-serif" font-size="22.4" lengthAdjust="spacing" textLength="211.2" x="1259.2" y="1412.9469">create_user_dialog()</text><text fill="#000000" font-family="sans-serif" font-size="22.4" lengthAdjust="spacing" textLength="147.2" x="1259.2" y="1442.7406">get_students()</text><text fill="#000000" font-family="sans-serif" font-size="22.4" lengthAdjust="spacing" textLength="390.4" x="1259.2" y="1472.5344">load_folder_configs(main_folder_path)</text><text fill="#000000" font-family="sans-serif" font-size="22.4" lengthAdjust="spacing" textLength="219.2" x="1259.2" y="1502.3281">save_folder_configs()</text></g><!--class Main--><g id="elem_Main"><rect codeLine="68" fill="#F1F1F1" height="434.325" id="Main" rx="4" ry="4" style="stroke:#181818;stroke-width:0.8000000000000002;" width="321.6" x="1149.6" y="11.2"/><ellipse cx="1279.6" cy="36.8" fill="#ADD1B2" rx="17.6" ry="17.6" style="stroke:#181818;stroke-width:1.6000000000000003;"/><path d="M1284.025,30.2 Q1284.275,29.85 1284.575,29.675 Q1284.875,29.5 1285.225,29.5 Q1285.825,29.5 1286.2,29.925 Q1286.575,30.325 1286.575,31.3 L1286.575,33.625 Q1286.575,34.6 1286.2,35.025 Q1285.825,35.45 1285.225,35.45 Q1284.675,35.45 1284.35,35.125 Q1284.025,34.825 1283.85,34 Q1283.775,33.425 1283.475,33.125 Q1282.95,32.525 1281.975,32.175 Q1281,31.825 1280,31.825 Q1278.775,31.825 1277.75,32.35 Q1276.75,32.875 1275.95,34.075 Q1275.175,35.275 1275.175,36.925 L1275.175,38.675 Q1275.175,40.65 1276.6,41.975 Q1278.025,43.275 1280.575,43.275 Q1282.075,43.275 1283.125,42.875 Q1283.75,42.625 1284.425,41.925 Q1284.85,41.5 1285.075,41.375 Q1285.325,41.25 1285.65,41.25 Q1286.175,41.25 1286.575,41.675 Q1287,42.075 1287,42.625 Q1287,43.175 1286.45,43.825 Q1285.65,44.75 1284.375,45.275 Q1282.65,46 1280.575,46 Q1278.15,46 1276.225,45 Q1274.65,44.2 1273.55,42.5 Q1272.45,40.775 1272.45,38.725 L1272.45,36.875 Q1272.45,34.75 1273.425,32.925 Q1274.425,31.075 1276.175,30.1 Q1277.925,29.1 1279.9,29.1 Q1281.075,29.1 1282.1,29.375 Q1283.15,29.625 1284.025,30.2 Z " fill="#000000"/><text fill="#000000" font-family="sans-serif" font-size="22.4" lengthAdjust="spacing" textLength="48" x="1312.4" y="46.075">Main</text><line style="stroke:#181818;stroke-width:0.8000000000000002;" x1="1151.2" x2="1469.6" y1="62.4" y2="62.4"/><text fill="#000000" font-family="sans-serif" font-size="22.4" lengthAdjust="spacing" textLength="168" x="1159.2" y="92.9719">config_controller</text><text fill="#000000" font-family="sans-serif" font-size="22.4" lengthAdjust="spacing" textLength="176" x="1159.2" y="122.7656">current_user : list</text><text fill="#000000" font-family="sans-serif" font-size="22.4" lengthAdjust="spacing" textLength="152" x="1159.2" y="152.5594">paint_manager</text><text fill="#000000" font-family="sans-serif" font-size="22.4" lengthAdjust="spacing" textLength="86.4" x="1159.2" y="182.3531">similarity</text><text fill="#000000" font-family="sans-serif" font-size="22.4" lengthAdjust="spacing" textLength="144" x="1159.2" y="212.1469">task_manager</text><text fill="#000000" font-family="sans-serif" font-size="22.4" lengthAdjust="spacing" textLength="150.4" x="1159.2" y="241.9406">unique_search</text><text fill="#000000" font-family="sans-serif" font-size="22.4" lengthAdjust="spacing" textLength="147.2" x="1159.2" y="271.7344">user_manager</text><line style="stroke:#181818;stroke-width:0.8000000000000002;" x1="1151.2" x2="1469.6" y1="283.7563" y2="283.7563"/><text fill="#000000" font-family="sans-serif" font-size="22.4" lengthAdjust="spacing" textLength="222.4" x="1159.2" y="314.3281">check_student_work()</text><text fill="#000000" font-family="sans-serif" font-size="22.4" lengthAdjust="spacing" textLength="185.6" x="1159.2" y="344.1219">main_commands()</text><text fill="#000000" font-family="sans-serif" font-size="22.4" lengthAdjust="spacing" textLength="49.6" x="1159.2" y="373.9156">run()</text><text fill="#000000" font-family="sans-serif" font-size="22.4" lengthAdjust="spacing" textLength="302.4" x="1159.2" y="403.7094">show_other_students_works()</text><text fill="#000000" font-family="sans-serif" font-size="22.4" lengthAdjust="spacing" textLength="268.8" x="1159.2" y="433.5031">user_choose_commands()</text></g><!--reverse link Manager to PaintManager--><g id="link_Manager_PaintManager"><path d="M1034.3602,1050.0147 C1008.6162,1077.3747 996.896,1089.84 964.032,1124.752 " fill="none" id="Manager-backto-PaintManager" style="stroke:#181818;stroke-width:1.6000000000000003;stroke-dasharray:7.0,7.0;"/><polygon fill="none" points="1054.096,1029.04,1027.3686,1043.4361,1041.3517,1056.5933,1054.096,1029.04" style="stroke:#181818;stroke-width:1.6000000000000003;"/></g><!--reverse link Manager to TaskManager--><g id="link_Manager_TaskManager"><path d="M882.8687,976.111 C660.5327,993.199 355.04,1031.76 272,1124.8 C137.632,1275.36 148.176,1519.776 175.712,1684.112 " fill="none" id="Manager-backto-TaskManager" style="stroke:#181818;stroke-width:1.6000000000000003;stroke-dasharray:7.0,7.0;"/><polygon fill="none" points="911.584,973.904,882.133,966.5392,883.6043,985.6827,911.584,973.904" style="stroke:#181818;stroke-width:1.6000000000000003;"/></g><!--reverse link Manager to UserManager--><g id="link_Manager_UserManager"><path d="M1192.842,1050.8764 C1232.922,1097.4844 1269.392,1139.936 1320.24,1199.12 " fill="none" id="Manager-backto-UserManager" style="stroke:#181818;stroke-width:1.6000000000000003;stroke-dasharray:7.0,7.0;"/><polygon fill="none" points="1174.064,1029.04,1185.5632,1057.1357,1200.1208,1044.6171,1174.064,1029.04" style="stroke:#181818;stroke-width:1.6000000000000003;"/></g><!--reverse link Main to UniqueSearchModel--><g id="link_Main_UniqueSearchModel"><path codeLine="83" d="M1488.8602,295.055 C1599.1002,343.999 1719.376,418.256 1785.6,540.8 C1984.352,908.528 1853.12,1420.912 1761.568,1684.432 " fill="none" id="Main-backto-UniqueSearchModel" style="stroke:#181818;stroke-width:1.6000000000000003;"/><polygon fill="none" points="1471.312,287.264,1477.4891,297.0089,1488.8602,295.055,1482.6831,285.3101,1471.312,287.264" style="stroke:#181818;stroke-width:1.6000000000000003;"/></g><!--reverse link Main to SimilarityModel--><g id="link_Main_SimilarityModel"><path codeLine="84" d="M1439.0639,462.2688 C1530.0239,638.8608 1638.752,881.36 1688,1124.8 C1728.88,1326.928 1807.808,1420.944 1688,1588.8 C1654.72,1635.424 1357.52,1728.608 1140.416,1791.648 " fill="none" id="Main-backto-SimilarityModel" style="stroke:#181818;stroke-width:1.6000000000000003;"/><polygon fill="none" points="1430.272,445.2,1428.9783,456.665,1439.0639,462.2688,1440.3575,450.8038,1430.272,445.2" style="stroke:#181818;stroke-width:1.6000000000000003;"/></g><!--reverse link Main to ConfigController--><g id="link_Main_ConfigController"><path codeLine="85" d="M1233.4543,463.4379 C1222.7343,496.0139 1217.984,510.448 1208.16,540.32 " fill="none" id="Main-backto-ConfigController" style="stroke:#181818;stroke-width:1.6000000000000003;"/><polygon fill="none" points="1239.456,445.2,1230.3759,452.3184,1233.4543,463.4379,1242.5345,456.3195,1239.456,445.2" style="stroke:#181818;stroke-width:1.6000000000000003;"/></g><!--reverse link Main to PaintManager--><g id="link_Main_PaintManager"><path codeLine="86" d="M1135.3931,376.7147 C1081.9851,427.7067 1039.936,476 1000,540.8 C888.944,721.04 823.072,954.032 786.56,1124.592 " fill="none" id="Main-backto-PaintManager" style="stroke:#181818;stroke-width:1.6000000000000003;"/><polygon fill="none" points="1149.28,363.456,1137.917,365.4564,1135.3931,376.7147,1146.7561,374.7143,1149.28,363.456" style="stroke:#181818;stroke-width:1.6000000000000003;"/></g><!--reverse link Main to UserManager--><g id="link_Main_UserManager"><path codeLine="87" d="M1340.4359,464.3409 C1368.6439,684.8849 1409.36,1003.072 1434.432,1199.088 " fill="none" id="Main-backto-UserManager" style="stroke:#181818;stroke-width:1.6000000000000003;"/><polygon fill="none" points="1338,445.296,1332.8697,455.6304,1340.4359,464.3409,1345.5662,454.0065,1338,445.296" style="stroke:#181818;stroke-width:1.6000000000000003;"/></g><!--reverse link Main to TaskManager--><g id="link_Main_TaskManager"><path codeLine="88" d="M1131.7108,302.7078 C863.6308,421.5238 352.72,693.472 147.2,1124.8 C62.736,1302.064 104.784,1530.656 151.712,1684.688 " fill="none" id="Main-backto-TaskManager" style="stroke:#181818;stroke-width:1.6000000000000003;"/><polygon fill="none" points="1149.264,294.928,1137.8941,292.9668,1131.7108,302.7078,1143.0807,304.669,1149.264,294.928" style="stroke:#181818;stroke-width:1.6000000000000003;"/></g><!--reverse link ConfigController to Manager--><g id="link_ConfigController_Manager"><path codeLine="89" d="M1143.0168,806.5338 C1137.4008,839.2698 1133.184,863.776 1128.32,892.112 " fill="none" id="ConfigController-backto-Manager" style="stroke:#181818;stroke-width:1.6000000000000003;"/><polygon fill="#181818" points="1144.64,797.072,1135.8973,810.1825,1143.2873,804.9568,1148.513,812.3468,1144.64,797.072" style="stroke:#181818;stroke-width:1.6000000000000003;"/></g><!--reverse link PaintManager to SimilarityModel--><g id="link_PaintManager_SimilarityModel"><path codeLine="90" d="M825.8241,1598.1138 C843.5841,1652.2578 858.72,1698.448 873.856,1744.576 " fill="none" id="PaintManager-backto-SimilarityModel" style="stroke:#181818;stroke-width:1.6000000000000003;stroke-dasharray:7.0,7.0;"/><polygon fill="#181818" points="822.832,1588.992,821.2389,1604.6694,825.3254,1596.5935,833.4013,1600.68,822.832,1588.992" style="stroke:#181818;stroke-width:1.6000000000000003;"/></g><!--reverse link PaintManager to UniqueSearchModel--><g id="link_PaintManager_UniqueSearchModel"><path codeLine="91" d="M1194.6425,1593.4569 C1313.2025,1655.7449 1426.176,1715.088 1520.624,1764.704 " fill="none" id="PaintManager-backto-UniqueSearchModel" style="stroke:#181818;stroke-width:1.6000000000000003;stroke-dasharray:7.0,7.0;"/><polygon fill="#181818" points="1186.144,1588.992,1195.9152,1601.355,1193.2261,1592.7127,1201.8684,1590.0236,1186.144,1588.992" style="stroke:#181818;stroke-width:1.6000000000000003;"/></g><!--reverse link PaintManager to TaskManager--><g id="link_PaintManager_TaskManager"><path codeLine="92" d="M494.0341,1595.5553 C459.8421,1627.5873 432.208,1653.456 399.44,1684.16 " fill="none" id="PaintManager-backto-TaskManager" style="stroke:#181818;stroke-width:1.6000000000000003;stroke-dasharray:7.0,7.0;"/><polygon fill="#181818" points="501.04,1588.992,486.1556,1594.1664,495.2017,1594.4614,494.9067,1603.5076,501.04,1588.992" style="stroke:#181818;stroke-width:1.6000000000000003;"/></g><!--SRC=[fLPBRniX4Bxlh-1eIqv-G1Jr4gctI96SdX61MHkPXItCrasZ_FSEB9XzE7rUekoylvbl1WT0PaK7eHSIzj0BBz1vPfs5HXeH0djmjjK7-elU6GEUlJMCAMZ5O92tpYZmTooW9-dunNk1HrPadT2MonI3jzf04bbn01_kcD41xn_7pq-aqLQZ5aR_W4qnsf8uY6_07OKnBi1csxmtsYBubafcsJjLzIPUAAcG-6wSKBcud3niKYMJ4hSpZvHZuH4pZKru8byigNJN6-Z0OfXbrntzovL0mKPaCra2l-xCjPR98yWJFpj_uegwuGwR6cPRzA2IHIWc0GT59N6jTWn5EF7Sm1qBkjD6U8slEpPO_NK07a1ucHeWFGW4oa_uFWhrcn078DDOO2vJgoAr3lcis4deQFEdKt8zs345Fskht7cMwVhaI7vqvz4hy9TNCWuNjq30D1fOcbrfm0pkihKEZvIqcCSzgfJPNthsw1IO2KNGSOJlo7iFIajQjqY6QCC9fXzYJHGEh8HgGkJOP-6p5pQqpdSG7T6TmDB2-D6Px9vyDD4Mr7FHVHQ9ZT9rjE1bsi8g7k5iqcSPjH7sK44ya-mtjF-GnZ5UgAkGFjTR88-EbZeLKje_uULItEfITDBy7Or-IHG5GNhTetOsnQuz-98Oi4y4gACKXiRLlO1IsXuYp3WdajDWupsfGutGoyH434yhGSMHnmEDWx37O4fDLsZ7Hc0je3pol7n5XQxdfqilrD0RBQbLcTpR-HNDl2R6HuM7pb4BSYOrWHZ0_-kO1_ATZ3bzVZZcgBqovgKu7e-yLUE8_c_41UPZxFjRMeJq7idBenPbW_TnYsCj5SwuAddXOuBBLcTAJtIpKv5RCL6FPxqSYtWF4xJyG7Pag4QmVh2LbxCJ4_8PtPRekQqJz_UcIJ3TpSsQkLMrk4vLiNpkgsRw1avoLEfKuUHiDAlV3_TaK9IpT_N-zdPLryfWZMbbCit-4m00]--></g></svg>