<?xml version="1.0" encoding="us-ascii" standalone="no"?><svg xmlns="http://www.w3.org/2000/svg" xmlns:xlink="http://www.w3.org/1999/xlink" contentStyleType="text/css" height="836px" preserveAspectRatio="none" style="width:1118px;height:836px;background:#FFFFFF;" version="1.1" viewBox="0 0 1118 836" width="1118px" zoomAndPan="magnify"><defs/><g><!--class src.config.ConfigController--><g id="elem_src.config.ConfigController"><rect codeLine="2" fill="#F1F1F1" height="159.7266" id="src.config.ConfigController" rx="2.5" ry="2.5" style="stroke:#181818;stroke-width:0.5;" width="154" x="73.5" y="72"/><ellipse cx="97.05" cy="88" fill="#ADD1B2" rx="11" ry="11" style="stroke:#181818;stroke-width:1.0;"/><path d="M99.8156,83.875 Q99.9719,83.6563 100.1594,83.5469 Q100.3469,83.4375 100.5656,83.4375 Q100.9406,83.4375 101.175,83.7031 Q101.4094,83.9531 101.4094,84.5625 L101.4094,86.0156 Q101.4094,86.625 101.175,86.8906 Q100.9406,87.1563 100.5656,87.1563 Q100.2219,87.1563 100.0188,86.9531 Q99.8156,86.7656 99.7063,86.25 Q99.6594,85.8906 99.4719,85.7031 Q99.1438,85.3281 98.5344,85.1094 Q97.925,84.8906 97.3,84.8906 Q96.5344,84.8906 95.8938,85.2188 Q95.2688,85.5469 94.7688,86.2969 Q94.2844,87.0469 94.2844,88.0781 L94.2844,89.1719 Q94.2844,90.4063 95.175,91.2344 Q96.0656,92.0469 97.6594,92.0469 Q98.5969,92.0469 99.2531,91.7969 Q99.6438,91.6406 100.0656,91.2031 Q100.3313,90.9375 100.4719,90.8594 Q100.6281,90.7813 100.8313,90.7813 Q101.1594,90.7813 101.4094,91.0469 Q101.675,91.2969 101.675,91.6406 Q101.675,91.9844 101.3313,92.3906 Q100.8313,92.9688 100.0344,93.2969 Q98.9563,93.75 97.6594,93.75 Q96.1438,93.75 94.9406,93.125 Q93.9563,92.625 93.2688,91.5625 Q92.5813,90.4844 92.5813,89.2031 L92.5813,88.0469 Q92.5813,86.7188 93.1906,85.5781 Q93.8156,84.4219 94.9094,83.8125 Q96.0031,83.1875 97.2375,83.1875 Q97.9719,83.1875 98.6125,83.3594 Q99.2688,83.5156 99.8156,83.875 Z " fill="#000000"/><text fill="#000000" font-family="sans-serif" font-size="14" lengthAdjust="spacing" textLength="103" x="112.95" y="93.7969">ConfigController</text><line style="stroke:#181818;stroke-width:0.5;" x1="74.5" x2="226.5" y1="104" y2="104"/><text fill="#000000" font-family="sans-serif" font-size="14" lengthAdjust="spacing" textLength="64" x="79.5" y="123.1074">config_file</text><text fill="#000000" font-family="sans-serif" font-size="14" lengthAdjust="spacing" textLength="142" x="79.5" y="141.7285">folder_path : bytes, str</text><text fill="#000000" font-family="sans-serif" font-size="14" lengthAdjust="spacing" textLength="140" x="79.5" y="160.3496">managers : NoneType</text><line style="stroke:#181818;stroke-width:0.5;" x1="74.5" x2="226.5" y1="167.8633" y2="167.8633"/><text fill="#000000" font-family="sans-serif" font-size="14" lengthAdjust="spacing" textLength="112" x="79.5" y="186.9707">get_main_folder()</text><text fill="#000000" font-family="sans-serif" font-size="14" lengthAdjust="spacing" textLength="122" x="79.5" y="205.5918">initialize(managers)</text><text fill="#000000" font-family="sans-serif" font-size="14" lengthAdjust="spacing" textLength="105" x="79.5" y="224.2129">save_on_close()</text></g><!--class src.utils.Manager--><g id="elem_src.utils.Manager"><rect codeLine="10" fill="#F1F1F1" height="85.2422" id="src.utils.Manager" rx="2.5" ry="2.5" style="stroke:#181818;stroke-width:0.5;" width="256" x="262.5" y="109.5"/><ellipse cx="358.25" cy="125.5" fill="#ADD1B2" rx="11" ry="11" style="stroke:#181818;stroke-width:1.0;"/><path d="M361.0156,121.375 Q361.1719,121.1563 361.3594,121.0469 Q361.5469,120.9375 361.7656,120.9375 Q362.1406,120.9375 362.375,121.2031 Q362.6094,121.4531 362.6094,122.0625 L362.6094,123.5156 Q362.6094,124.125 362.375,124.3906 Q362.1406,124.6563 361.7656,124.6563 Q361.4219,124.6563 361.2188,124.4531 Q361.0156,124.2656 360.9063,123.75 Q360.8594,123.3906 360.6719,123.2031 Q360.3438,122.8281 359.7344,122.6094 Q359.125,122.3906 358.5,122.3906 Q357.7344,122.3906 357.0938,122.7188 Q356.4688,123.0469 355.9688,123.7969 Q355.4844,124.5469 355.4844,125.5781 L355.4844,126.6719 Q355.4844,127.9063 356.375,128.7344 Q357.2656,129.5469 358.8594,129.5469 Q359.7969,129.5469 360.4531,129.2969 Q360.8438,129.1406 361.2656,128.7031 Q361.5313,128.4375 361.6719,128.3594 Q361.8281,128.2813 362.0313,128.2813 Q362.3594,128.2813 362.6094,128.5469 Q362.875,128.7969 362.875,129.1406 Q362.875,129.4844 362.5313,129.8906 Q362.0313,130.4688 361.2344,130.7969 Q360.1563,131.25 358.8594,131.25 Q357.3438,131.25 356.1406,130.625 Q355.1563,130.125 354.4688,129.0625 Q353.7813,127.9844 353.7813,126.7031 L353.7813,125.5469 Q353.7813,124.2188 354.3906,123.0781 Q355.0156,121.9219 356.1094,121.3125 Q357.2031,120.6875 358.4375,120.6875 Q359.1719,120.6875 359.8125,120.8594 Q360.4688,121.0156 361.0156,121.375 Z " fill="#000000"/><text fill="#000000" font-family="sans-serif" font-size="14" lengthAdjust="spacing" textLength="56" x="378.75" y="131.2969">Manager</text><line style="stroke:#181818;stroke-width:0.5;" x1="263.5" x2="517.5" y1="141.5" y2="141.5"/><line style="stroke:#181818;stroke-width:0.5;" x1="263.5" x2="517.5" y1="149.5" y2="149.5"/><text fill="#000000" font-family="sans-serif" font-size="14" font-style="italic" lengthAdjust="spacing" textLength="244" x="268.5" y="168.6074">load_folder_configs(main_folder_path)</text><text fill="#000000" font-family="sans-serif" font-size="14" font-style="italic" lengthAdjust="spacing" textLength="136" x="268.5" y="187.2285">save_folder_configs()</text></g><!--class src.paint.PaintManager--><g id="elem_src.paint.PaintManager"><rect codeLine="14" fill="#F1F1F1" height="290.0742" id="src.paint.PaintManager" rx="2.5" ry="2.5" style="stroke:#181818;stroke-width:0.5;" width="558" x="553.5" y="7"/><ellipse cx="784.25" cy="23" fill="#ADD1B2" rx="11" ry="11" style="stroke:#181818;stroke-width:1.0;"/><path d="M787.0156,18.875 Q787.1719,18.6563 787.3594,18.5469 Q787.5469,18.4375 787.7656,18.4375 Q788.1406,18.4375 788.375,18.7031 Q788.6094,18.9531 788.6094,19.5625 L788.6094,21.0156 Q788.6094,21.625 788.375,21.8906 Q788.1406,22.1563 787.7656,22.1563 Q787.4219,22.1563 787.2188,21.9531 Q787.0156,21.7656 786.9063,21.25 Q786.8594,20.8906 786.6719,20.7031 Q786.3438,20.3281 785.7344,20.1094 Q785.125,19.8906 784.5,19.8906 Q783.7344,19.8906 783.0938,20.2188 Q782.4688,20.5469 781.9688,21.2969 Q781.4844,22.0469 781.4844,23.0781 L781.4844,24.1719 Q781.4844,25.4063 782.375,26.2344 Q783.2656,27.0469 784.8594,27.0469 Q785.7969,27.0469 786.4531,26.7969 Q786.8438,26.6406 787.2656,26.2031 Q787.5313,25.9375 787.6719,25.8594 Q787.8281,25.7813 788.0313,25.7813 Q788.3594,25.7813 788.6094,26.0469 Q788.875,26.2969 788.875,26.6406 Q788.875,26.9844 788.5313,27.3906 Q788.0313,27.9688 787.2344,28.2969 Q786.1563,28.75 784.8594,28.75 Q783.3438,28.75 782.1406,28.125 Q781.1563,27.625 780.4688,26.5625 Q779.7813,25.4844 779.7813,24.2031 L779.7813,23.0469 Q779.7813,21.7188 780.3906,20.5781 Q781.0156,19.4219 782.1094,18.8125 Q783.2031,18.1875 784.4375,18.1875 Q785.1719,18.1875 785.8125,18.3594 Q786.4688,18.5156 787.0156,18.875 Z " fill="#000000"/><text fill="#000000" font-family="sans-serif" font-size="14" lengthAdjust="spacing" textLength="88" x="804.75" y="28.7969">PaintManager</text><line style="stroke:#181818;stroke-width:0.5;" x1="554.5" x2="1110.5" y1="39" y2="39"/><text fill="#000000" font-family="sans-serif" font-size="14" lengthAdjust="spacing" textLength="103" x="559.5" y="58.1074">image_data : list</text><text fill="#000000" font-family="sans-serif" font-size="14" lengthAdjust="spacing" textLength="156" x="559.5" y="76.7285">image_data_filepath : str</text><text fill="#000000" font-family="sans-serif" font-size="14" lengthAdjust="spacing" textLength="187" x="559.5" y="95.3496">main_folder_path : NoneType</text><line style="stroke:#181818;stroke-width:0.5;" x1="554.5" x2="1110.5" y1="102.8633" y2="102.8633"/><text fill="#000000" font-family="sans-serif" font-size="14" lengthAdjust="spacing" textLength="204" x="559.5" y="121.9707">check_work_dialog(image_data)</text><text fill="#000000" font-family="sans-serif" font-size="14" lengthAdjust="spacing" textLength="481" x="559.5" y="140.5918">checked_works_dialog(student_id, task_manager, similarity, unique_search)</text><text fill="#000000" font-family="sans-serif" font-size="14" lengthAdjust="spacing" textLength="399" x="559.5" y="159.2129">create_paint_dialog(student_id, task, similarity, unique_search)</text><text fill="#000000" font-family="sans-serif" font-size="14" lengthAdjust="spacing" textLength="133" x="559.5" y="177.834">get_image(image_id)</text><text fill="#000000" font-family="sans-serif" font-size="14" lengthAdjust="spacing" textLength="229" x="559.5" y="196.4551">get_not_checked_works(student_id)</text><text fill="#000000" font-family="sans-serif" font-size="14" lengthAdjust="spacing" textLength="244" x="559.5" y="215.0762">load_folder_configs(main_folder_path)</text><text fill="#000000" font-family="sans-serif" font-size="14" lengthAdjust="spacing" textLength="198" x="559.5" y="233.6973">open_image_window(image_id)</text><text fill="#000000" font-family="sans-serif" font-size="14" lengthAdjust="spacing" textLength="137" x="559.5" y="252.3184">save_folder_configs()</text><text fill="#000000" font-family="sans-serif" font-size="14" lengthAdjust="spacing" textLength="238" x="559.5" y="270.9395">show_images_by_ids(image_ids, title)</text><text fill="#000000" font-family="sans-serif" font-size="14" lengthAdjust="spacing" textLength="546" x="559.5" y="289.5605">show_images_dialog(student_id, unique_search, task_manager, other_student_name)</text></g><!--class src.similarity.SimilarityModel--><g id="elem_src.similarity.SimilarityModel"><rect codeLine="29" fill="#F1F1F1" height="141.1055" id="src.similarity.SimilarityModel" rx="2.5" ry="2.5" style="stroke:#181818;stroke-width:0.5;" width="287" x="7" y="394.5"/><ellipse cx="99.25" cy="410.5" fill="#ADD1B2" rx="11" ry="11" style="stroke:#181818;stroke-width:1.0;"/><path d="M102.0156,406.375 Q102.1719,406.1563 102.3594,406.0469 Q102.5469,405.9375 102.7656,405.9375 Q103.1406,405.9375 103.375,406.2031 Q103.6094,406.4531 103.6094,407.0625 L103.6094,408.5156 Q103.6094,409.125 103.375,409.3906 Q103.1406,409.6563 102.7656,409.6563 Q102.4219,409.6563 102.2188,409.4531 Q102.0156,409.2656 101.9063,408.75 Q101.8594,408.3906 101.6719,408.2031 Q101.3438,407.8281 100.7344,407.6094 Q100.125,407.3906 99.5,407.3906 Q98.7344,407.3906 98.0938,407.7188 Q97.4688,408.0469 96.9688,408.7969 Q96.4844,409.5469 96.4844,410.5781 L96.4844,411.6719 Q96.4844,412.9063 97.375,413.7344 Q98.2656,414.5469 99.8594,414.5469 Q100.7969,414.5469 101.4531,414.2969 Q101.8438,414.1406 102.2656,413.7031 Q102.5313,413.4375 102.6719,413.3594 Q102.8281,413.2813 103.0313,413.2813 Q103.3594,413.2813 103.6094,413.5469 Q103.875,413.7969 103.875,414.1406 Q103.875,414.4844 103.5313,414.8906 Q103.0313,415.4688 102.2344,415.7969 Q101.1563,416.25 99.8594,416.25 Q98.3438,416.25 97.1406,415.625 Q96.1563,415.125 95.4688,414.0625 Q94.7813,412.9844 94.7813,411.7031 L94.7813,410.5469 Q94.7813,409.2188 95.3906,408.0781 Q96.0156,406.9219 97.1094,406.3125 Q98.2031,405.6875 99.4375,405.6875 Q100.1719,405.6875 100.8125,405.8594 Q101.4688,406.0156 102.0156,406.375 Z " fill="#000000"/><text fill="#000000" font-family="sans-serif" font-size="14" lengthAdjust="spacing" textLength="94" x="119.75" y="416.2969">SimilarityModel</text><line style="stroke:#181818;stroke-width:0.5;" x1="8" x2="293" y1="426.5" y2="426.5"/><text fill="#000000" font-family="sans-serif" font-size="14" lengthAdjust="spacing" textLength="152" x="13" y="445.6074">image_to_text_predictor</text><text fill="#000000" font-family="sans-serif" font-size="14" lengthAdjust="spacing" textLength="83" x="13" y="464.2285">model_en_ru</text><text fill="#000000" font-family="sans-serif" font-size="14" lengthAdjust="spacing" textLength="272" x="13" y="482.8496">sentence_predictor : SentenceTransformer</text><text fill="#000000" font-family="sans-serif" font-size="14" lengthAdjust="spacing" textLength="275" x="13" y="501.4707">tokenizer_en_ru : PreTrainedTokenizerFast</text><line style="stroke:#181818;stroke-width:0.5;" x1="8" x2="293" y1="508.9844" y2="508.9844"/><text fill="#000000" font-family="sans-serif" font-size="14" lengthAdjust="spacing" textLength="270" x="13" y="528.0918">compare_paint_and_task(paint, task, lang)</text></g><!--class src.task.TaskManager--><g id="elem_src.task.TaskManager"><rect codeLine="36" fill="#F1F1F1" height="215.5898" id="src.task.TaskManager" rx="2.5" ry="2.5" style="stroke:#181818;stroke-width:0.5;" width="256" x="329.5" y="357"/><ellipse cx="409.75" cy="373" fill="#ADD1B2" rx="11" ry="11" style="stroke:#181818;stroke-width:1.0;"/><path d="M412.5156,368.875 Q412.6719,368.6563 412.8594,368.5469 Q413.0469,368.4375 413.2656,368.4375 Q413.6406,368.4375 413.875,368.7031 Q414.1094,368.9531 414.1094,369.5625 L414.1094,371.0156 Q414.1094,371.625 413.875,371.8906 Q413.6406,372.1563 413.2656,372.1563 Q412.9219,372.1563 412.7188,371.9531 Q412.5156,371.7656 412.4063,371.25 Q412.3594,370.8906 412.1719,370.7031 Q411.8438,370.3281 411.2344,370.1094 Q410.625,369.8906 410,369.8906 Q409.2344,369.8906 408.5938,370.2188 Q407.9688,370.5469 407.4688,371.2969 Q406.9844,372.0469 406.9844,373.0781 L406.9844,374.1719 Q406.9844,375.4063 407.875,376.2344 Q408.7656,377.0469 410.3594,377.0469 Q411.2969,377.0469 411.9531,376.7969 Q412.3438,376.6406 412.7656,376.2031 Q413.0313,375.9375 413.1719,375.8594 Q413.3281,375.7813 413.5313,375.7813 Q413.8594,375.7813 414.1094,376.0469 Q414.375,376.2969 414.375,376.6406 Q414.375,376.9844 414.0313,377.3906 Q413.5313,377.9688 412.7344,378.2969 Q411.6563,378.75 410.3594,378.75 Q408.8438,378.75 407.6406,378.125 Q406.6563,377.625 405.9688,376.5625 Q405.2813,375.4844 405.2813,374.2031 L405.2813,373.0469 Q405.2813,371.7188 405.8906,370.5781 Q406.5156,369.4219 407.6094,368.8125 Q408.7031,368.1875 409.9375,368.1875 Q410.6719,368.1875 411.3125,368.3594 Q411.9688,368.5156 412.5156,368.875 Z " fill="#000000"/><text fill="#000000" font-family="sans-serif" font-size="14" lengthAdjust="spacing" textLength="87" x="430.25" y="378.7969">TaskManager</text><line style="stroke:#181818;stroke-width:0.5;" x1="330.5" x2="584.5" y1="389" y2="389"/><text fill="#000000" font-family="sans-serif" font-size="14" lengthAdjust="spacing" textLength="187" x="335.5" y="408.1074">main_folder_path : NoneType</text><text fill="#000000" font-family="sans-serif" font-size="14" lengthAdjust="spacing" textLength="62" x="335.5" y="426.7285">tasks : list</text><text fill="#000000" font-family="sans-serif" font-size="14" lengthAdjust="spacing" textLength="115" x="335.5" y="445.3496">tasks_filepath : str</text><line style="stroke:#181818;stroke-width:0.5;" x1="330.5" x2="584.5" y1="452.8633" y2="452.8633"/><text fill="#000000" font-family="sans-serif" font-size="14" lengthAdjust="spacing" textLength="136" x="335.5" y="471.9707">choose_task_dialog()</text><text fill="#000000" font-family="sans-serif" font-size="14" lengthAdjust="spacing" textLength="130" x="335.5" y="490.5918">create_task_dialog()</text><text fill="#000000" font-family="sans-serif" font-size="14" lengthAdjust="spacing" textLength="112" x="335.5" y="509.2129">find_task(task_id)</text><text fill="#000000" font-family="sans-serif" font-size="14" lengthAdjust="spacing" textLength="244" x="335.5" y="527.834">load_folder_configs(main_folder_path)</text><text fill="#000000" font-family="sans-serif" font-size="14" lengthAdjust="spacing" textLength="137" x="335.5" y="546.4551">save_folder_configs()</text><text fill="#000000" font-family="sans-serif" font-size="14" lengthAdjust="spacing" textLength="145" x="335.5" y="565.0762">show_description(task)</text></g><!--class src.unique_search.UniqueSearchModel--><g id="elem_src.unique_search.UniqueSearchModel"><rect codeLine="47" fill="#F1F1F1" height="215.5898" id="src.unique_search.UniqueSearchModel" rx="2.5" ry="2.5" style="stroke:#181818;stroke-width:0.5;" width="217" x="621" y="357"/><ellipse cx="662.1" cy="373" fill="#ADD1B2" rx="11" ry="11" style="stroke:#181818;stroke-width:1.0;"/><path d="M664.8656,368.875 Q665.0219,368.6563 665.2094,368.5469 Q665.3969,368.4375 665.6156,368.4375 Q665.9906,368.4375 666.225,368.7031 Q666.4594,368.9531 666.4594,369.5625 L666.4594,371.0156 Q666.4594,371.625 666.225,371.8906 Q665.9906,372.1563 665.6156,372.1563 Q665.2719,372.1563 665.0688,371.9531 Q664.8656,371.7656 664.7563,371.25 Q664.7094,370.8906 664.5219,370.7031 Q664.1938,370.3281 663.5844,370.1094 Q662.975,369.8906 662.35,369.8906 Q661.5844,369.8906 660.9438,370.2188 Q660.3188,370.5469 659.8188,371.2969 Q659.3344,372.0469 659.3344,373.0781 L659.3344,374.1719 Q659.3344,375.4063 660.225,376.2344 Q661.1156,377.0469 662.7094,377.0469 Q663.6469,377.0469 664.3031,376.7969 Q664.6938,376.6406 665.1156,376.2031 Q665.3813,375.9375 665.5219,375.8594 Q665.6781,375.7813 665.8813,375.7813 Q666.2094,375.7813 666.4594,376.0469 Q666.725,376.2969 666.725,376.6406 Q666.725,376.9844 666.3813,377.3906 Q665.8813,377.9688 665.0844,378.2969 Q664.0063,378.75 662.7094,378.75 Q661.1938,378.75 659.9906,378.125 Q659.0063,377.625 658.3188,376.5625 Q657.6313,375.4844 657.6313,374.2031 L657.6313,373.0469 Q657.6313,371.7188 658.2406,370.5781 Q658.8656,369.4219 659.9594,368.8125 Q661.0531,368.1875 662.2875,368.1875 Q663.0219,368.1875 663.6625,368.3594 Q664.3188,368.5156 664.8656,368.875 Z " fill="#000000"/><text fill="#000000" font-family="sans-serif" font-size="14" lengthAdjust="spacing" textLength="127" x="681.9" y="378.7969">UniqueSearchModel</text><line style="stroke:#181818;stroke-width:0.5;" x1="622" x2="837" y1="389" y2="389"/><text fill="#000000" font-family="sans-serif" font-size="14" lengthAdjust="spacing" textLength="133" x="627" y="408.1074">all_embeddings : dict</text><text fill="#000000" font-family="sans-serif" font-size="14" lengthAdjust="spacing" textLength="55" x="627" y="426.7285">extractor</text><text fill="#000000" font-family="sans-serif" font-size="14" lengthAdjust="spacing" textLength="38" x="627" y="445.3496">model</text><text fill="#000000" font-family="sans-serif" font-size="14" lengthAdjust="spacing" textLength="205" x="627" y="463.9707">transformation_chain : Compose</text><line style="stroke:#181818;stroke-width:0.5;" x1="622" x2="837" y1="471.4844" y2="471.4844"/><text fill="#000000" font-family="sans-serif" font-size="14" lengthAdjust="spacing" textLength="137" x="627" y="490.5918">add_image(image, id)</text><text fill="#000000" font-family="sans-serif" font-size="14" lengthAdjust="spacing" textLength="170" x="627" y="509.2129">fetch_similar(image, top_k)</text><text fill="#000000" font-family="sans-serif" font-size="14" lengthAdjust="spacing" textLength="143" x="627" y="527.834">find_duplicates(image)</text><text fill="#000000" font-family="sans-serif" font-size="14" lengthAdjust="spacing" textLength="130" x="627" y="546.4551">initialize(images_ids)</text><text fill="#000000" font-family="sans-serif" font-size="14" lengthAdjust="spacing" textLength="114" x="627" y="565.0762">remove_image(id)</text></g><!--class src.user.UserManager--><g id="elem_src.user.UserManager"><rect codeLine="58" fill="#F1F1F1" height="196.9688" id="src.user.UserManager" rx="2.5" ry="2.5" style="stroke:#181818;stroke-width:0.5;" width="256" x="22.5" y="633"/><ellipse cx="103.75" cy="649" fill="#ADD1B2" rx="11" ry="11" style="stroke:#181818;stroke-width:1.0;"/><path d="M106.5156,644.875 Q106.6719,644.6563 106.8594,644.5469 Q107.0469,644.4375 107.2656,644.4375 Q107.6406,644.4375 107.875,644.7031 Q108.1094,644.9531 108.1094,645.5625 L108.1094,647.0156 Q108.1094,647.625 107.875,647.8906 Q107.6406,648.1563 107.2656,648.1563 Q106.9219,648.1563 106.7188,647.9531 Q106.5156,647.7656 106.4063,647.25 Q106.3594,646.8906 106.1719,646.7031 Q105.8438,646.3281 105.2344,646.1094 Q104.625,645.8906 104,645.8906 Q103.2344,645.8906 102.5938,646.2188 Q101.9688,646.5469 101.4688,647.2969 Q100.9844,648.0469 100.9844,649.0781 L100.9844,650.1719 Q100.9844,651.4063 101.875,652.2344 Q102.7656,653.0469 104.3594,653.0469 Q105.2969,653.0469 105.9531,652.7969 Q106.3438,652.6406 106.7656,652.2031 Q107.0313,651.9375 107.1719,651.8594 Q107.3281,651.7813 107.5313,651.7813 Q107.8594,651.7813 108.1094,652.0469 Q108.375,652.2969 108.375,652.6406 Q108.375,652.9844 108.0313,653.3906 Q107.5313,653.9688 106.7344,654.2969 Q105.6563,654.75 104.3594,654.75 Q102.8438,654.75 101.6406,654.125 Q100.6563,653.625 99.9688,652.5625 Q99.2813,651.4844 99.2813,650.2031 L99.2813,649.0469 Q99.2813,647.7188 99.8906,646.5781 Q100.5156,645.4219 101.6094,644.8125 Q102.7031,644.1875 103.9375,644.1875 Q104.6719,644.1875 105.3125,644.3594 Q105.9688,644.5156 106.5156,644.875 Z " fill="#000000"/><text fill="#000000" font-family="sans-serif" font-size="14" lengthAdjust="spacing" textLength="85" x="124.25" y="654.7969">UserManager</text><line style="stroke:#181818;stroke-width:0.5;" x1="23.5" x2="277.5" y1="665" y2="665"/><text fill="#000000" font-family="sans-serif" font-size="14" lengthAdjust="spacing" textLength="187" x="28.5" y="684.1074">main_folder_path : NoneType</text><text fill="#000000" font-family="sans-serif" font-size="14" lengthAdjust="spacing" textLength="64" x="28.5" y="702.7285">users : list</text><text fill="#000000" font-family="sans-serif" font-size="14" lengthAdjust="spacing" textLength="117" x="28.5" y="721.3496">users_filepath : str</text><line style="stroke:#181818;stroke-width:0.5;" x1="23.5" x2="277.5" y1="728.8633" y2="728.8633"/><text fill="#000000" font-family="sans-serif" font-size="14" lengthAdjust="spacing" textLength="138" x="28.5" y="747.9707">choose_user_dialog()</text><text fill="#000000" font-family="sans-serif" font-size="14" lengthAdjust="spacing" textLength="132" x="28.5" y="766.5918">create_user_dialog()</text><text fill="#000000" font-family="sans-serif" font-size="14" lengthAdjust="spacing" textLength="92" x="28.5" y="785.2129">get_students()</text><text fill="#000000" font-family="sans-serif" font-size="14" lengthAdjust="spacing" textLength="244" x="28.5" y="803.834">load_folder_configs(main_folder_path)</text><text fill="#000000" font-family="sans-serif" font-size="14" lengthAdjust="spacing" textLength="137" x="28.5" y="822.4551">save_folder_configs()</text></g><!--SRC=[fLJ1Rjim3BttAuIU4Y3m1-nQOBSE1PAT1KPY4Y6ov4dqigp8lu-IhKHssgx3Ba5CFefFZu-AIC91Yx43XMli803v89nt-A0in2WUdxpRcJt_Kl3MOdWK44KCgb4vqSppulL1Y24dTyOYV-syrHXa1tGGNyJsJ1XN8bBWL0iEzXWYnxznqysvImLx9Dc2SNAeN2mvPfmX0zRynaKfIk48Fr5w9vNr4HbuARoV1z2LRa_6ncQCPfAli6KIeEXYFUYnbnoenqNLFpDVJYfosrb5rVo5YsdEe4l1favb6gRblr830OjWJQH9B6iuAbSacnARIgSEg8xovCDHQfRBxnUtivObZpeZOe54wZKwaaQl144yob5Xdf9fZOLWwBmIlJC_UfGH8QWiXme8X3BVwxsZ_d94cdGcED8qkaIT9paXMnsTC9-TcU_G3ItaoJZjJvDERy-HumT_6ggYt9uP7Azbx5qoP74EUqE0oNNdqdewSDC2JrjO6MXz5UtPQxHN3zt4R6QGoala9U4labr0RHGlT79DmaYM8lI9DxT4f_06OHUjn-0cW8ix7rfCXUIFw7Zhmb3Ck9UG8CQXtfJSLyYsLRxb9wGu0foMwSgB_5diOC7jgujkE3XVb0HigaI-siUsJoNnjZ_vytvrrC7pAv59bN5LFfw7TwPS86V-pNOV6ajZLC5qPBpBPrTwVC-MMMV7J4S_CLDpXyiYWUKPjrlKshXzqYCDb-FiXlHitPoGD2fZXiI3TurlmHLFF4CMAHscTRsRAp4ei4DI1paQiQJ8T_9u5KttdJMADHstPlP-Zml3gvGI0LlFMesTTAr5n73tZ7EigHAVy4OggRoHFz_rHig-uOrvEBrGu-eES_q_Nrp-0000]--></g></svg>