<?xml version="1.0" encoding="us-ascii" standalone="no"?><svg xmlns="http://www.w3.org/2000/svg" xmlns:xlink="http://www.w3.org/1999/xlink" contentStyleType="text/css" height="717px" preserveAspectRatio="none" style="width:1136px;height:717px;background:#FFFFFF;" version="1.1" viewBox="0 0 1136 717" width="1136px" zoomAndPan="magnify"><defs/><g><!--cluster draw-learning-helper--><g id="cluster_draw-learning-helper"><path d="M234.5,6.0137 L383.5,6.0137 A3.75,3.75 0 0 1 386,8.5137 L393,30.6348 L1103.5,30.6348 A2.5,2.5 0 0 1 1106,33.1348 L1106,583.0137 A2.5,2.5 0 0 1 1103.5,585.5137 L234.5,585.5137 A2.5,2.5 0 0 1 232,583.0137 L232,8.5137 A2.5,2.5 0 0 1 234.5,6.0137 " fill="#FFF6DE" style="stroke:#000000;stroke-width:1.5;"/><line style="stroke:#000000;stroke-width:1.5;" x1="232" x2="393" y1="30.6348" y2="30.6348"/><text fill="#000000" font-family="sans-serif" font-size="14" font-weight="bold" lengthAdjust="spacing" textLength="148" x="236" y="23.1211">draw-learning-helper</text></g><!--cluster \~/Draw learning helper--><g id="cluster_\~/Draw learning helper"><path d="M658.5,223.0137 L818.5,223.0137 A3.75,3.75 0 0 1 821,225.5137 L828,247.6348 L1061.5,247.6348 A2.5,2.5 0 0 1 1064,250.1348 L1064,450.0137 A2.5,2.5 0 0 1 1061.5,452.5137 L658.5,452.5137 A2.5,2.5 0 0 1 656,450.0137 L656,225.5137 A2.5,2.5 0 0 1 658.5,223.0137 " fill="none" style="stroke:#000000;stroke-width:1.5;"/><line style="stroke:#000000;stroke-width:1.5;" x1="656" x2="828" y1="247.6348" y2="247.6348"/><text fill="#000000" font-family="sans-serif" font-size="14" font-weight="bold" lengthAdjust="spacing" textLength="159" x="660" y="240.1211">~/Draw learning helper</text></g><!--cluster sentence_transformers--><g id="cluster_sentence_transformers"><path d="M8.5,484.5137 L174.5,484.5137 A3.75,3.75 0 0 1 177,487.0137 L184,509.1348 L205.5,509.1348 A2.5,2.5 0 0 1 208,511.6348 L208,583.0137 A2.5,2.5 0 0 1 205.5,585.5137 L8.5,585.5137 A2.5,2.5 0 0 1 6,583.0137 L6,487.0137 A2.5,2.5 0 0 1 8.5,484.5137 " fill="#DEF7FF" style="stroke:#000000;stroke-width:1.5;"/><line style="stroke:#000000;stroke-width:1.5;" x1="6" x2="184" y1="509.1348" y2="509.1348"/><text fill="#000000" font-family="sans-serif" font-size="14" font-weight="bold" lengthAdjust="spacing" textLength="165" x="10" y="501.6211">sentence_transformers</text></g><!--cluster transformers--><g id="cluster_transformers"><path d="M142.5,609.5137 L234.5,609.5137 A3.75,3.75 0 0 1 237,612.0137 L244,634.1348 L862.5,634.1348 A2.5,2.5 0 0 1 865,636.6348 L865,708.0137 A2.5,2.5 0 0 1 862.5,710.5137 L142.5,710.5137 A2.5,2.5 0 0 1 140,708.0137 L140,612.0137 A2.5,2.5 0 0 1 142.5,609.5137 " fill="#D7F7E8" style="stroke:#000000;stroke-width:1.5;"/><line style="stroke:#000000;stroke-width:1.5;" x1="140" x2="244" y1="634.1348" y2="634.1348"/><text fill="#000000" font-family="sans-serif" font-size="14" font-weight="bold" lengthAdjust="spacing" textLength="91" x="144" y="626.6211">transformers</text></g><!--class ConfigController--><g id="elem_ConfigController"><rect codeLine="5" fill="#F1F1F1" height="48" id="ConfigController" rx="2.5" ry="2.5" style="stroke:#181818;stroke-width:0.5;" width="135" x="467.5" y="151.0137"/><ellipse cx="482.5" cy="167.0137" fill="#ADD1B2" rx="11" ry="11" style="stroke:#181818;stroke-width:1.0;"/><path d="M485.2656,162.8887 Q485.4219,162.6699 485.6094,162.5605 Q485.7969,162.4512 486.0156,162.4512 Q486.3906,162.4512 486.625,162.7168 Q486.8594,162.9668 486.8594,163.5762 L486.8594,165.0293 Q486.8594,165.6387 486.625,165.9043 Q486.3906,166.1699 486.0156,166.1699 Q485.6719,166.1699 485.4688,165.9668 Q485.2656,165.7793 485.1563,165.2637 Q485.1094,164.9043 484.9219,164.7168 Q484.5938,164.3418 483.9844,164.123 Q483.375,163.9043 482.75,163.9043 Q481.9844,163.9043 481.3438,164.2324 Q480.7188,164.5605 480.2188,165.3105 Q479.7344,166.0605 479.7344,167.0918 L479.7344,168.1855 Q479.7344,169.4199 480.625,170.248 Q481.5156,171.0605 483.1094,171.0605 Q484.0469,171.0605 484.7031,170.8105 Q485.0938,170.6543 485.5156,170.2168 Q485.7813,169.9512 485.9219,169.873 Q486.0781,169.7949 486.2813,169.7949 Q486.6094,169.7949 486.8594,170.0605 Q487.125,170.3105 487.125,170.6543 Q487.125,170.998 486.7813,171.4043 Q486.2813,171.9824 485.4844,172.3105 Q484.4063,172.7637 483.1094,172.7637 Q481.5938,172.7637 480.3906,172.1387 Q479.4063,171.6387 478.7188,170.5762 Q478.0313,169.498 478.0313,168.2168 L478.0313,167.0605 Q478.0313,165.7324 478.6406,164.5918 Q479.2656,163.4355 480.3594,162.8262 Q481.4531,162.2012 482.6875,162.2012 Q483.4219,162.2012 484.0625,162.373 Q484.7188,162.5293 485.2656,162.8887 Z " fill="#000000"/><text fill="#000000" font-family="sans-serif" font-size="14" lengthAdjust="spacing" textLength="103" x="496.5" y="172.8105">ConfigController</text><line style="stroke:#181818;stroke-width:0.5;" x1="468.5" x2="601.5" y1="183.0137" y2="183.0137"/><line style="stroke:#181818;stroke-width:0.5;" x1="468.5" x2="601.5" y1="191.0137" y2="191.0137"/></g><!--class Manager--><g id="elem_Manager"><rect codeLine="6" fill="#F1F1F1" height="48" id="Manager" rx="2.5" ry="2.5" style="stroke:#181818;stroke-width:0.5;" width="89" x="490.5" y="272.5137"/><ellipse cx="505.5" cy="288.5137" fill="#B4A7E5" rx="11" ry="11" style="stroke:#181818;stroke-width:1.0;"/><path d="M506.4531,285.1543 L506.4531,291.8105 L508.1719,291.8105 Q508.7813,291.8105 509.0469,292.0449 Q509.3125,292.2793 509.3125,292.6699 Q509.3125,293.0449 509.0469,293.2793 Q508.7813,293.5137 508.1719,293.5137 L503.0313,293.5137 Q502.4219,293.5137 502.1563,293.2793 Q501.8906,293.0449 501.8906,292.6543 Q501.8906,292.2793 502.1563,292.0449 Q502.4219,291.8105 503.0313,291.8105 L504.75,291.8105 L504.75,285.1543 L503.0313,285.1543 Q502.4219,285.1543 502.1563,284.9199 Q501.8906,284.6855 501.8906,284.2949 Q501.8906,283.9199 502.1563,283.6855 Q502.4219,283.4512 503.0313,283.4512 L508.1719,283.4512 Q508.7813,283.4512 509.0469,283.6855 Q509.3125,283.9199 509.3125,284.2949 Q509.3125,284.6855 509.0469,284.9199 Q508.7813,285.1543 508.1719,285.1543 L506.4531,285.1543 Z " fill="#000000"/><text fill="#000000" font-family="sans-serif" font-size="14" font-style="italic" lengthAdjust="spacing" textLength="57" x="519.5" y="294.3105">Manager</text><line style="stroke:#181818;stroke-width:0.5;" x1="491.5" x2="578.5" y1="304.5137" y2="304.5137"/><line style="stroke:#181818;stroke-width:0.5;" x1="491.5" x2="578.5" y1="312.5137" y2="312.5137"/></g><!--class PaintManager--><g id="elem_PaintManager"><rect codeLine="7" fill="#F1F1F1" height="48" id="PaintManager" rx="2.5" ry="2.5" style="stroke:#181818;stroke-width:0.5;" width="120" x="475" y="385.0137"/><ellipse cx="490" cy="401.0137" fill="#ADD1B2" rx="11" ry="11" style="stroke:#181818;stroke-width:1.0;"/><path d="M492.7656,396.8887 Q492.9219,396.6699 493.1094,396.5605 Q493.2969,396.4512 493.5156,396.4512 Q493.8906,396.4512 494.125,396.7168 Q494.3594,396.9668 494.3594,397.5762 L494.3594,399.0293 Q494.3594,399.6387 494.125,399.9043 Q493.8906,400.1699 493.5156,400.1699 Q493.1719,400.1699 492.9688,399.9668 Q492.7656,399.7793 492.6563,399.2637 Q492.6094,398.9043 492.4219,398.7168 Q492.0938,398.3418 491.4844,398.123 Q490.875,397.9043 490.25,397.9043 Q489.4844,397.9043 488.8438,398.2324 Q488.2188,398.5605 487.7188,399.3105 Q487.2344,400.0605 487.2344,401.0918 L487.2344,402.1855 Q487.2344,403.4199 488.125,404.248 Q489.0156,405.0605 490.6094,405.0605 Q491.5469,405.0605 492.2031,404.8105 Q492.5938,404.6543 493.0156,404.2168 Q493.2813,403.9512 493.4219,403.873 Q493.5781,403.7949 493.7813,403.7949 Q494.1094,403.7949 494.3594,404.0605 Q494.625,404.3105 494.625,404.6543 Q494.625,404.998 494.2813,405.4043 Q493.7813,405.9824 492.9844,406.3105 Q491.9063,406.7637 490.6094,406.7637 Q489.0938,406.7637 487.8906,406.1387 Q486.9063,405.6387 486.2188,404.5762 Q485.5313,403.498 485.5313,402.2168 L485.5313,401.0605 Q485.5313,399.7324 486.1406,398.5918 Q486.7656,397.4355 487.8594,396.8262 Q488.9531,396.2012 490.1875,396.2012 Q490.9219,396.2012 491.5625,396.373 Q492.2188,396.5293 492.7656,396.8887 Z " fill="#000000"/><text fill="#000000" font-family="sans-serif" font-size="14" lengthAdjust="spacing" textLength="88" x="504" y="406.8105">PaintManager</text><line style="stroke:#181818;stroke-width:0.5;" x1="476" x2="594" y1="417.0137" y2="417.0137"/><line style="stroke:#181818;stroke-width:0.5;" x1="476" x2="594" y1="425.0137" y2="425.0137"/></g><!--class SimilarityModel--><g id="elem_SimilarityModel"><rect codeLine="8" fill="#F1F1F1" height="48" id="SimilarityModel" rx="2.5" ry="2.5" style="stroke:#181818;stroke-width:0.5;" width="126" x="248" y="521.5137"/><ellipse cx="263" cy="537.5137" fill="#ADD1B2" rx="11" ry="11" style="stroke:#181818;stroke-width:1.0;"/><path d="M265.7656,533.3887 Q265.9219,533.1699 266.1094,533.0605 Q266.2969,532.9512 266.5156,532.9512 Q266.8906,532.9512 267.125,533.2168 Q267.3594,533.4668 267.3594,534.0762 L267.3594,535.5293 Q267.3594,536.1387 267.125,536.4043 Q266.8906,536.6699 266.5156,536.6699 Q266.1719,536.6699 265.9688,536.4668 Q265.7656,536.2793 265.6563,535.7637 Q265.6094,535.4043 265.4219,535.2168 Q265.0938,534.8418 264.4844,534.623 Q263.875,534.4043 263.25,534.4043 Q262.4844,534.4043 261.8438,534.7324 Q261.2188,535.0605 260.7188,535.8105 Q260.2344,536.5605 260.2344,537.5918 L260.2344,538.6855 Q260.2344,539.9199 261.125,540.748 Q262.0156,541.5605 263.6094,541.5605 Q264.5469,541.5605 265.2031,541.3105 Q265.5938,541.1543 266.0156,540.7168 Q266.2813,540.4512 266.4219,540.373 Q266.5781,540.2949 266.7813,540.2949 Q267.1094,540.2949 267.3594,540.5605 Q267.625,540.8105 267.625,541.1543 Q267.625,541.498 267.2813,541.9043 Q266.7813,542.4824 265.9844,542.8105 Q264.9063,543.2637 263.6094,543.2637 Q262.0938,543.2637 260.8906,542.6387 Q259.9063,542.1387 259.2188,541.0762 Q258.5313,539.998 258.5313,538.7168 L258.5313,537.5605 Q258.5313,536.2324 259.1406,535.0918 Q259.7656,533.9355 260.8594,533.3262 Q261.9531,532.7012 263.1875,532.7012 Q263.9219,532.7012 264.5625,532.873 Q265.2188,533.0293 265.7656,533.3887 Z " fill="#000000"/><text fill="#000000" font-family="sans-serif" font-size="14" lengthAdjust="spacing" textLength="94" x="277" y="543.3105">SimilarityModel</text><line style="stroke:#181818;stroke-width:0.5;" x1="249" x2="373" y1="553.5137" y2="553.5137"/><line style="stroke:#181818;stroke-width:0.5;" x1="249" x2="373" y1="561.5137" y2="561.5137"/></g><!--class TaskManager--><g id="elem_TaskManager"><rect codeLine="9" fill="#F1F1F1" height="48" id="TaskManager" rx="2.5" ry="2.5" style="stroke:#181818;stroke-width:0.5;" width="119" x="475.5" y="521.5137"/><ellipse cx="490.5" cy="537.5137" fill="#ADD1B2" rx="11" ry="11" style="stroke:#181818;stroke-width:1.0;"/><path d="M493.2656,533.3887 Q493.4219,533.1699 493.6094,533.0605 Q493.7969,532.9512 494.0156,532.9512 Q494.3906,532.9512 494.625,533.2168 Q494.8594,533.4668 494.8594,534.0762 L494.8594,535.5293 Q494.8594,536.1387 494.625,536.4043 Q494.3906,536.6699 494.0156,536.6699 Q493.6719,536.6699 493.4688,536.4668 Q493.2656,536.2793 493.1563,535.7637 Q493.1094,535.4043 492.9219,535.2168 Q492.5938,534.8418 491.9844,534.623 Q491.375,534.4043 490.75,534.4043 Q489.9844,534.4043 489.3438,534.7324 Q488.7188,535.0605 488.2188,535.8105 Q487.7344,536.5605 487.7344,537.5918 L487.7344,538.6855 Q487.7344,539.9199 488.625,540.748 Q489.5156,541.5605 491.1094,541.5605 Q492.0469,541.5605 492.7031,541.3105 Q493.0938,541.1543 493.5156,540.7168 Q493.7813,540.4512 493.9219,540.373 Q494.0781,540.2949 494.2813,540.2949 Q494.6094,540.2949 494.8594,540.5605 Q495.125,540.8105 495.125,541.1543 Q495.125,541.498 494.7813,541.9043 Q494.2813,542.4824 493.4844,542.8105 Q492.4063,543.2637 491.1094,543.2637 Q489.5938,543.2637 488.3906,542.6387 Q487.4063,542.1387 486.7188,541.0762 Q486.0313,539.998 486.0313,538.7168 L486.0313,537.5605 Q486.0313,536.2324 486.6406,535.0918 Q487.2656,533.9355 488.3594,533.3262 Q489.4531,532.7012 490.6875,532.7012 Q491.4219,532.7012 492.0625,532.873 Q492.7188,533.0293 493.2656,533.3887 Z " fill="#000000"/><text fill="#000000" font-family="sans-serif" font-size="14" lengthAdjust="spacing" textLength="87" x="504.5" y="543.3105">TaskManager</text><line style="stroke:#181818;stroke-width:0.5;" x1="476.5" x2="593.5" y1="553.5137" y2="553.5137"/><line style="stroke:#181818;stroke-width:0.5;" x1="476.5" x2="593.5" y1="561.5137" y2="561.5137"/></g><!--class UniqueSearchModel--><g id="elem_UniqueSearchModel"><rect codeLine="10" fill="#F1F1F1" height="48" id="UniqueSearchModel" rx="2.5" ry="2.5" style="stroke:#181818;stroke-width:0.5;" width="159" x="685.5" y="521.5137"/><ellipse cx="700.5" cy="537.5137" fill="#ADD1B2" rx="11" ry="11" style="stroke:#181818;stroke-width:1.0;"/><path d="M703.2656,533.3887 Q703.4219,533.1699 703.6094,533.0605 Q703.7969,532.9512 704.0156,532.9512 Q704.3906,532.9512 704.625,533.2168 Q704.8594,533.4668 704.8594,534.0762 L704.8594,535.5293 Q704.8594,536.1387 704.625,536.4043 Q704.3906,536.6699 704.0156,536.6699 Q703.6719,536.6699 703.4688,536.4668 Q703.2656,536.2793 703.1563,535.7637 Q703.1094,535.4043 702.9219,535.2168 Q702.5938,534.8418 701.9844,534.623 Q701.375,534.4043 700.75,534.4043 Q699.9844,534.4043 699.3438,534.7324 Q698.7188,535.0605 698.2188,535.8105 Q697.7344,536.5605 697.7344,537.5918 L697.7344,538.6855 Q697.7344,539.9199 698.625,540.748 Q699.5156,541.5605 701.1094,541.5605 Q702.0469,541.5605 702.7031,541.3105 Q703.0938,541.1543 703.5156,540.7168 Q703.7813,540.4512 703.9219,540.373 Q704.0781,540.2949 704.2813,540.2949 Q704.6094,540.2949 704.8594,540.5605 Q705.125,540.8105 705.125,541.1543 Q705.125,541.498 704.7813,541.9043 Q704.2813,542.4824 703.4844,542.8105 Q702.4063,543.2637 701.1094,543.2637 Q699.5938,543.2637 698.3906,542.6387 Q697.4063,542.1387 696.7188,541.0762 Q696.0313,539.998 696.0313,538.7168 L696.0313,537.5605 Q696.0313,536.2324 696.6406,535.0918 Q697.2656,533.9355 698.3594,533.3262 Q699.4531,532.7012 700.6875,532.7012 Q701.4219,532.7012 702.0625,532.873 Q702.7188,533.0293 703.2656,533.3887 Z " fill="#000000"/><text fill="#000000" font-family="sans-serif" font-size="14" lengthAdjust="spacing" textLength="127" x="714.5" y="543.3105">UniqueSearchModel</text><line style="stroke:#181818;stroke-width:0.5;" x1="686.5" x2="843.5" y1="553.5137" y2="553.5137"/><line style="stroke:#181818;stroke-width:0.5;" x1="686.5" x2="843.5" y1="561.5137" y2="561.5137"/></g><!--class UserManager--><g id="elem_UserManager"><rect codeLine="11" fill="#F1F1F1" height="48" id="UserManager" rx="2.5" ry="2.5" style="stroke:#181818;stroke-width:0.5;" width="117" x="322.5" y="385.0137"/><ellipse cx="337.5" cy="401.0137" fill="#ADD1B2" rx="11" ry="11" style="stroke:#181818;stroke-width:1.0;"/><path d="M340.2656,396.8887 Q340.4219,396.6699 340.6094,396.5605 Q340.7969,396.4512 341.0156,396.4512 Q341.3906,396.4512 341.625,396.7168 Q341.8594,396.9668 341.8594,397.5762 L341.8594,399.0293 Q341.8594,399.6387 341.625,399.9043 Q341.3906,400.1699 341.0156,400.1699 Q340.6719,400.1699 340.4688,399.9668 Q340.2656,399.7793 340.1563,399.2637 Q340.1094,398.9043 339.9219,398.7168 Q339.5938,398.3418 338.9844,398.123 Q338.375,397.9043 337.75,397.9043 Q336.9844,397.9043 336.3438,398.2324 Q335.7188,398.5605 335.2188,399.3105 Q334.7344,400.0605 334.7344,401.0918 L334.7344,402.1855 Q334.7344,403.4199 335.625,404.248 Q336.5156,405.0605 338.1094,405.0605 Q339.0469,405.0605 339.7031,404.8105 Q340.0938,404.6543 340.5156,404.2168 Q340.7813,403.9512 340.9219,403.873 Q341.0781,403.7949 341.2813,403.7949 Q341.6094,403.7949 341.8594,404.0605 Q342.125,404.3105 342.125,404.6543 Q342.125,404.998 341.7813,405.4043 Q341.2813,405.9824 340.4844,406.3105 Q339.4063,406.7637 338.1094,406.7637 Q336.5938,406.7637 335.3906,406.1387 Q334.4063,405.6387 333.7188,404.5762 Q333.0313,403.498 333.0313,402.2168 L333.0313,401.0605 Q333.0313,399.7324 333.6406,398.5918 Q334.2656,397.4355 335.3594,396.8262 Q336.4531,396.2012 337.6875,396.2012 Q338.4219,396.2012 339.0625,396.373 Q339.7188,396.5293 340.2656,396.8887 Z " fill="#000000"/><text fill="#000000" font-family="sans-serif" font-size="14" lengthAdjust="spacing" textLength="85" x="351.5" y="406.8105">UserManager</text><line style="stroke:#181818;stroke-width:0.5;" x1="323.5" x2="438.5" y1="417.0137" y2="417.0137"/><line style="stroke:#181818;stroke-width:0.5;" x1="323.5" x2="438.5" y1="425.0137" y2="425.0137"/></g><!--class Main--><g id="elem_Main"><rect codeLine="12" fill="#F1F1F1" height="48" id="Main" rx="2.5" ry="2.5" style="stroke:#181818;stroke-width:0.5;" width="62" x="373" y="43.0137"/><ellipse cx="388" cy="59.0137" fill="#ADD1B2" rx="11" ry="11" style="stroke:#181818;stroke-width:1.0;"/><path d="M390.7656,54.8887 Q390.9219,54.6699 391.1094,54.5605 Q391.2969,54.4512 391.5156,54.4512 Q391.8906,54.4512 392.125,54.7168 Q392.3594,54.9668 392.3594,55.5762 L392.3594,57.0293 Q392.3594,57.6387 392.125,57.9043 Q391.8906,58.1699 391.5156,58.1699 Q391.1719,58.1699 390.9688,57.9668 Q390.7656,57.7793 390.6563,57.2637 Q390.6094,56.9043 390.4219,56.7168 Q390.0938,56.3418 389.4844,56.123 Q388.875,55.9043 388.25,55.9043 Q387.4844,55.9043 386.8438,56.2324 Q386.2188,56.5605 385.7188,57.3105 Q385.2344,58.0605 385.2344,59.0918 L385.2344,60.1855 Q385.2344,61.4199 386.125,62.248 Q387.0156,63.0605 388.6094,63.0605 Q389.5469,63.0605 390.2031,62.8105 Q390.5938,62.6543 391.0156,62.2168 Q391.2813,61.9512 391.4219,61.873 Q391.5781,61.7949 391.7813,61.7949 Q392.1094,61.7949 392.3594,62.0605 Q392.625,62.3105 392.625,62.6543 Q392.625,62.998 392.2813,63.4043 Q391.7813,63.9824 390.9844,64.3105 Q389.9063,64.7637 388.6094,64.7637 Q387.0938,64.7637 385.8906,64.1387 Q384.9063,63.6387 384.2188,62.5762 Q383.5313,61.498 383.5313,60.2168 L383.5313,59.0605 Q383.5313,57.7324 384.1406,56.5918 Q384.7656,55.4355 385.8594,54.8262 Q386.9531,54.2012 388.1875,54.2012 Q388.9219,54.2012 389.5625,54.373 Q390.2188,54.5293 390.7656,54.8887 Z " fill="#000000"/><text fill="#000000" font-family="sans-serif" font-size="14" lengthAdjust="spacing" textLength="30" x="402" y="64.8105">Main</text><line style="stroke:#181818;stroke-width:0.5;" x1="374" x2="434" y1="75.0137" y2="75.0137"/><line style="stroke:#181818;stroke-width:0.5;" x1="374" x2="434" y1="83.0137" y2="83.0137"/></g><!--entity photos--><g id="elem_photos"><path d="M702,268.0137 L743,268.0137 A3.75,3.75 0 0 1 745.5,270.5137 L752.5,289.0137 L770,289.0137 A2.5,2.5 0 0 1 772.5,291.5137 L772.5,322.1348 A2.5,2.5 0 0 1 770,324.6348 L702,324.6348 A2.5,2.5 0 0 1 699.5,322.1348 L699.5,270.5137 A2.5,2.5 0 0 1 702,268.0137 " fill="#F1F1F1" style="stroke:#181818;stroke-width:0.5;"/><line style="stroke:#181818;stroke-width:0.5;" x1="699.5" x2="752.5" y1="289.0137" y2="289.0137"/><text fill="#000000" font-family="sans-serif" font-size="14" lengthAdjust="spacing" textLength="43" x="709.5" y="311.1211">photos</text></g><!--entity image_data.csv--><g id="elem_image_data.csv"><path d="M807.5,279.5137 L807.5,313.1348 A2.5,2.5 0 0 0 810,315.6348 L924,315.6348 A2.5,2.5 0 0 0 926.5,313.1348 L926.5,287.0137 L916.5,277.0137 L810,277.0137 A2.5,2.5 0 0 0 807.5,279.5137 " fill="#F1F1F1" style="stroke:#181818;stroke-width:0.5;"/><path d="M916.5,277.0137 L916.5,284.5137 A2.5,2.5 0 0 0 919,287.0137 L926.5,287.0137 " fill="#F1F1F1" style="stroke:#181818;stroke-width:0.5;"/><text fill="#000000" font-family="sans-serif" font-size="14" lengthAdjust="spacing" textLength="99" x="817.5" y="302.1211">image_data.csv</text></g><!--entity tasks.csv--><g id="elem_tasks.csv"><path d="M962,279.5137 L962,313.1348 A2.5,2.5 0 0 0 964.5,315.6348 L1037.5,315.6348 A2.5,2.5 0 0 0 1040,313.1348 L1040,287.0137 L1030,277.0137 L964.5,277.0137 A2.5,2.5 0 0 0 962,279.5137 " fill="#F1F1F1" style="stroke:#181818;stroke-width:0.5;"/><path d="M1030,277.0137 L1030,284.5137 A2.5,2.5 0 0 0 1032.5,287.0137 L1040,287.0137 " fill="#F1F1F1" style="stroke:#181818;stroke-width:0.5;"/><text fill="#000000" font-family="sans-serif" font-size="14" lengthAdjust="spacing" textLength="58" x="972" y="302.1211">tasks.csv</text></g><!--entity users.csv--><g id="elem_users.csv"><path d="M691,392.0137 L691,425.6348 A2.5,2.5 0 0 0 693.5,428.1348 L768.5,428.1348 A2.5,2.5 0 0 0 771,425.6348 L771,399.5137 L761,389.5137 L693.5,389.5137 A2.5,2.5 0 0 0 691,392.0137 " fill="#F1F1F1" style="stroke:#181818;stroke-width:0.5;"/><path d="M761,389.5137 L761,397.0137 A2.5,2.5 0 0 0 763.5,399.5137 L771,399.5137 " fill="#F1F1F1" style="stroke:#181818;stroke-width:0.5;"/><text fill="#000000" font-family="sans-serif" font-size="14" lengthAdjust="spacing" textLength="60" x="701" y="414.6211">users.csv</text></g><!--entity draw_learning_helper_config.json--><g id="elem_draw_learning_helper_config.json"><path d="M806.5,392.0137 L806.5,425.6348 A2.5,2.5 0 0 0 809,428.1348 L1037,428.1348 A2.5,2.5 0 0 0 1039.5,425.6348 L1039.5,399.5137 L1029.5,389.5137 L809,389.5137 A2.5,2.5 0 0 0 806.5,392.0137 " fill="#F1F1F1" style="stroke:#181818;stroke-width:0.5;"/><path d="M1029.5,389.5137 L1029.5,397.0137 A2.5,2.5 0 0 0 1032,399.5137 L1039.5,399.5137 " fill="#F1F1F1" style="stroke:#181818;stroke-width:0.5;"/><text fill="#000000" font-family="sans-serif" font-size="14" lengthAdjust="spacing" textLength="213" x="816.5" y="414.6211">draw_learning_helper_config.json</text></g><!--class SentenceTransformer--><g id="elem_SentenceTransformer"><rect codeLine="23" fill="#F1F1F1" height="48" id="SentenceTransformer" rx="2.5" ry="2.5" style="stroke:#181818;stroke-width:0.5;" width="170" x="22" y="521.5137"/><ellipse cx="37" cy="537.5137" fill="#ADD1B2" rx="11" ry="11" style="stroke:#181818;stroke-width:1.0;"/><path d="M39.7656,533.3887 Q39.9219,533.1699 40.1094,533.0605 Q40.2969,532.9512 40.5156,532.9512 Q40.8906,532.9512 41.125,533.2168 Q41.3594,533.4668 41.3594,534.0762 L41.3594,535.5293 Q41.3594,536.1387 41.125,536.4043 Q40.8906,536.6699 40.5156,536.6699 Q40.1719,536.6699 39.9688,536.4668 Q39.7656,536.2793 39.6563,535.7637 Q39.6094,535.4043 39.4219,535.2168 Q39.0938,534.8418 38.4844,534.623 Q37.875,534.4043 37.25,534.4043 Q36.4844,534.4043 35.8438,534.7324 Q35.2188,535.0605 34.7188,535.8105 Q34.2344,536.5605 34.2344,537.5918 L34.2344,538.6855 Q34.2344,539.9199 35.125,540.748 Q36.0156,541.5605 37.6094,541.5605 Q38.5469,541.5605 39.2031,541.3105 Q39.5938,541.1543 40.0156,540.7168 Q40.2813,540.4512 40.4219,540.373 Q40.5781,540.2949 40.7813,540.2949 Q41.1094,540.2949 41.3594,540.5605 Q41.625,540.8105 41.625,541.1543 Q41.625,541.498 41.2813,541.9043 Q40.7813,542.4824 39.9844,542.8105 Q38.9063,543.2637 37.6094,543.2637 Q36.0938,543.2637 34.8906,542.6387 Q33.9063,542.1387 33.2188,541.0762 Q32.5313,539.998 32.5313,538.7168 L32.5313,537.5605 Q32.5313,536.2324 33.1406,535.0918 Q33.7656,533.9355 34.8594,533.3262 Q35.9531,532.7012 37.1875,532.7012 Q37.9219,532.7012 38.5625,532.873 Q39.2188,533.0293 39.7656,533.3887 Z " fill="#000000"/><text fill="#000000" font-family="sans-serif" font-size="14" lengthAdjust="spacing" textLength="138" x="51" y="543.3105">SentenceTransformer</text><line style="stroke:#181818;stroke-width:0.5;" x1="23" x2="191" y1="553.5137" y2="553.5137"/><line style="stroke:#181818;stroke-width:0.5;" x1="23" x2="191" y1="561.5137" y2="561.5137"/></g><!--class AutoTokenizer--><g id="elem_AutoTokenizer"><rect codeLine="27" fill="#F1F1F1" height="48" id="AutoTokenizer" rx="2.5" ry="2.5" style="stroke:#181818;stroke-width:0.5;" width="123" x="389.5" y="646.5137"/><ellipse cx="404.5" cy="662.5137" fill="#ADD1B2" rx="11" ry="11" style="stroke:#181818;stroke-width:1.0;"/><path d="M407.2656,658.3887 Q407.4219,658.1699 407.6094,658.0605 Q407.7969,657.9512 408.0156,657.9512 Q408.3906,657.9512 408.625,658.2168 Q408.8594,658.4668 408.8594,659.0762 L408.8594,660.5293 Q408.8594,661.1387 408.625,661.4043 Q408.3906,661.6699 408.0156,661.6699 Q407.6719,661.6699 407.4688,661.4668 Q407.2656,661.2793 407.1563,660.7637 Q407.1094,660.4043 406.9219,660.2168 Q406.5938,659.8418 405.9844,659.623 Q405.375,659.4043 404.75,659.4043 Q403.9844,659.4043 403.3438,659.7324 Q402.7188,660.0605 402.2188,660.8105 Q401.7344,661.5605 401.7344,662.5918 L401.7344,663.6855 Q401.7344,664.9199 402.625,665.748 Q403.5156,666.5605 405.1094,666.5605 Q406.0469,666.5605 406.7031,666.3105 Q407.0938,666.1543 407.5156,665.7168 Q407.7813,665.4512 407.9219,665.373 Q408.0781,665.2949 408.2813,665.2949 Q408.6094,665.2949 408.8594,665.5605 Q409.125,665.8105 409.125,666.1543 Q409.125,666.498 408.7813,666.9043 Q408.2813,667.4824 407.4844,667.8105 Q406.4063,668.2637 405.1094,668.2637 Q403.5938,668.2637 402.3906,667.6387 Q401.4063,667.1387 400.7188,666.0762 Q400.0313,664.998 400.0313,663.7168 L400.0313,662.5605 Q400.0313,661.2324 400.6406,660.0918 Q401.2656,658.9355 402.3594,658.3262 Q403.4531,657.7012 404.6875,657.7012 Q405.4219,657.7012 406.0625,657.873 Q406.7188,658.0293 407.2656,658.3887 Z " fill="#000000"/><text fill="#000000" font-family="sans-serif" font-size="14" lengthAdjust="spacing" textLength="91" x="418.5" y="668.3105">AutoTokenizer</text><line style="stroke:#181818;stroke-width:0.5;" x1="390.5" x2="511.5" y1="678.5137" y2="678.5137"/><line style="stroke:#181818;stroke-width:0.5;" x1="390.5" x2="511.5" y1="686.5137" y2="686.5137"/></g><!--class AutoModelForSeq2SeqLM--><g id="elem_AutoModelForSeq2SeqLM"><rect codeLine="28" fill="#F1F1F1" height="48" id="AutoModelForSeq2SeqLM" rx="2.5" ry="2.5" style="stroke:#181818;stroke-width:0.5;" width="198" x="156" y="646.5137"/><ellipse cx="171" cy="662.5137" fill="#ADD1B2" rx="11" ry="11" style="stroke:#181818;stroke-width:1.0;"/><path d="M173.7656,658.3887 Q173.9219,658.1699 174.1094,658.0605 Q174.2969,657.9512 174.5156,657.9512 Q174.8906,657.9512 175.125,658.2168 Q175.3594,658.4668 175.3594,659.0762 L175.3594,660.5293 Q175.3594,661.1387 175.125,661.4043 Q174.8906,661.6699 174.5156,661.6699 Q174.1719,661.6699 173.9688,661.4668 Q173.7656,661.2793 173.6563,660.7637 Q173.6094,660.4043 173.4219,660.2168 Q173.0938,659.8418 172.4844,659.623 Q171.875,659.4043 171.25,659.4043 Q170.4844,659.4043 169.8438,659.7324 Q169.2188,660.0605 168.7188,660.8105 Q168.2344,661.5605 168.2344,662.5918 L168.2344,663.6855 Q168.2344,664.9199 169.125,665.748 Q170.0156,666.5605 171.6094,666.5605 Q172.5469,666.5605 173.2031,666.3105 Q173.5938,666.1543 174.0156,665.7168 Q174.2813,665.4512 174.4219,665.373 Q174.5781,665.2949 174.7813,665.2949 Q175.1094,665.2949 175.3594,665.5605 Q175.625,665.8105 175.625,666.1543 Q175.625,666.498 175.2813,666.9043 Q174.7813,667.4824 173.9844,667.8105 Q172.9063,668.2637 171.6094,668.2637 Q170.0938,668.2637 168.8906,667.6387 Q167.9063,667.1387 167.2188,666.0762 Q166.5313,664.998 166.5313,663.7168 L166.5313,662.5605 Q166.5313,661.2324 167.1406,660.0918 Q167.7656,658.9355 168.8594,658.3262 Q169.9531,657.7012 171.1875,657.7012 Q171.9219,657.7012 172.5625,657.873 Q173.2188,658.0293 173.7656,658.3887 Z " fill="#000000"/><text fill="#000000" font-family="sans-serif" font-size="14" lengthAdjust="spacing" textLength="166" x="185" y="668.3105">AutoModelForSeq2SeqLM</text><line style="stroke:#181818;stroke-width:0.5;" x1="157" x2="353" y1="678.5137" y2="678.5137"/><line style="stroke:#181818;stroke-width:0.5;" x1="157" x2="353" y1="686.5137" y2="686.5137"/></g><!--class AutoFeatureExtractor--><g id="elem_AutoFeatureExtractor"><rect codeLine="29" fill="#F1F1F1" height="48" id="AutoFeatureExtractor" rx="2.5" ry="2.5" style="stroke:#181818;stroke-width:0.5;" width="167" x="681.5" y="646.5137"/><ellipse cx="696.5" cy="662.5137" fill="#ADD1B2" rx="11" ry="11" style="stroke:#181818;stroke-width:1.0;"/><path d="M699.2656,658.3887 Q699.4219,658.1699 699.6094,658.0605 Q699.7969,657.9512 700.0156,657.9512 Q700.3906,657.9512 700.625,658.2168 Q700.8594,658.4668 700.8594,659.0762 L700.8594,660.5293 Q700.8594,661.1387 700.625,661.4043 Q700.3906,661.6699 700.0156,661.6699 Q699.6719,661.6699 699.4688,661.4668 Q699.2656,661.2793 699.1563,660.7637 Q699.1094,660.4043 698.9219,660.2168 Q698.5938,659.8418 697.9844,659.623 Q697.375,659.4043 696.75,659.4043 Q695.9844,659.4043 695.3438,659.7324 Q694.7188,660.0605 694.2188,660.8105 Q693.7344,661.5605 693.7344,662.5918 L693.7344,663.6855 Q693.7344,664.9199 694.625,665.748 Q695.5156,666.5605 697.1094,666.5605 Q698.0469,666.5605 698.7031,666.3105 Q699.0938,666.1543 699.5156,665.7168 Q699.7813,665.4512 699.9219,665.373 Q700.0781,665.2949 700.2813,665.2949 Q700.6094,665.2949 700.8594,665.5605 Q701.125,665.8105 701.125,666.1543 Q701.125,666.498 700.7813,666.9043 Q700.2813,667.4824 699.4844,667.8105 Q698.4063,668.2637 697.1094,668.2637 Q695.5938,668.2637 694.3906,667.6387 Q693.4063,667.1387 692.7188,666.0762 Q692.0313,664.998 692.0313,663.7168 L692.0313,662.5605 Q692.0313,661.2324 692.6406,660.0918 Q693.2656,658.9355 694.3594,658.3262 Q695.4531,657.7012 696.6875,657.7012 Q697.4219,657.7012 698.0625,657.873 Q698.7188,658.0293 699.2656,658.3887 Z " fill="#000000"/><text fill="#000000" font-family="sans-serif" font-size="14" lengthAdjust="spacing" textLength="135" x="710.5" y="668.3105">AutoFeatureExtractor</text><line style="stroke:#181818;stroke-width:0.5;" x1="682.5" x2="847.5" y1="678.5137" y2="678.5137"/><line style="stroke:#181818;stroke-width:0.5;" x1="682.5" x2="847.5" y1="686.5137" y2="686.5137"/></g><!--class AutoModel--><g id="elem_AutoModel"><rect codeLine="30" fill="#F1F1F1" height="48" id="AutoModel" rx="2.5" ry="2.5" style="stroke:#181818;stroke-width:0.5;" width="99" x="547.5" y="646.5137"/><ellipse cx="562.5" cy="662.5137" fill="#ADD1B2" rx="11" ry="11" style="stroke:#181818;stroke-width:1.0;"/><path d="M565.2656,658.3887 Q565.4219,658.1699 565.6094,658.0605 Q565.7969,657.9512 566.0156,657.9512 Q566.3906,657.9512 566.625,658.2168 Q566.8594,658.4668 566.8594,659.0762 L566.8594,660.5293 Q566.8594,661.1387 566.625,661.4043 Q566.3906,661.6699 566.0156,661.6699 Q565.6719,661.6699 565.4688,661.4668 Q565.2656,661.2793 565.1563,660.7637 Q565.1094,660.4043 564.9219,660.2168 Q564.5938,659.8418 563.9844,659.623 Q563.375,659.4043 562.75,659.4043 Q561.9844,659.4043 561.3438,659.7324 Q560.7188,660.0605 560.2188,660.8105 Q559.7344,661.5605 559.7344,662.5918 L559.7344,663.6855 Q559.7344,664.9199 560.625,665.748 Q561.5156,666.5605 563.1094,666.5605 Q564.0469,666.5605 564.7031,666.3105 Q565.0938,666.1543 565.5156,665.7168 Q565.7813,665.4512 565.9219,665.373 Q566.0781,665.2949 566.2813,665.2949 Q566.6094,665.2949 566.8594,665.5605 Q567.125,665.8105 567.125,666.1543 Q567.125,666.498 566.7813,666.9043 Q566.2813,667.4824 565.4844,667.8105 Q564.4063,668.2637 563.1094,668.2637 Q561.5938,668.2637 560.3906,667.6387 Q559.4063,667.1387 558.7188,666.0762 Q558.0313,664.998 558.0313,663.7168 L558.0313,662.5605 Q558.0313,661.2324 558.6406,660.0918 Q559.2656,658.9355 560.3594,658.3262 Q561.4531,657.7012 562.6875,657.7012 Q563.4219,657.7012 564.0625,657.873 Q564.7188,658.0293 565.2656,658.3887 Z " fill="#000000"/><text fill="#000000" font-family="sans-serif" font-size="14" lengthAdjust="spacing" textLength="67" x="576.5" y="668.3105">AutoModel</text><line style="stroke:#181818;stroke-width:0.5;" x1="548.5" x2="645.5" y1="678.5137" y2="678.5137"/><line style="stroke:#181818;stroke-width:0.5;" x1="548.5" x2="645.5" y1="686.5137" y2="686.5137"/></g><path d="M886.5,642.0137 L1047.5,642.0137 A3.75,3.75 0 0 1 1050,644.5137 L1057,666.6348 L1061.5,666.6348 A2.5,2.5 0 0 1 1064,669.1348 L1064,696.7559 A2.5,2.5 0 0 1 1061.5,699.2559 L886.5,699.2559 A2.5,2.5 0 0 1 884,696.7559 L884,644.5137 A2.5,2.5 0 0 1 886.5,642.0137 " fill="#C9DDF5" style="stroke:#181818;stroke-width:0.5;"/><line style="stroke:#181818;stroke-width:0.5;" x1="884" x2="1057" y1="666.6348" y2="666.6348"/><text fill="#000000" font-family="sans-serif" font-size="14" font-weight="bold" lengthAdjust="spacing" textLength="160" x="888" y="659.1211">torchvision.transforms</text><!--reverse link Manager to PaintManager--><g id="link_Manager_PaintManager"><path d="M535,338.6737 C535,357.5337 535,366.0337 535,384.8837 " fill="none" id="Manager-backto-PaintManager" style="stroke:#181818;stroke-width:1.0;stroke-dasharray:7.0,7.0;"/><polygon fill="none" points="535,320.6737,529,338.6737,541,338.6737,535,320.6737" style="stroke:#181818;stroke-width:1.0;"/></g><!--reverse link Manager to TaskManager--><g id="link_Manager_TaskManager"><path d="M578.0294,332.8538 C595.7594,348.7838 603.29,359.5337 613,385.0137 C626.21,419.6937 627.42,434.3237 613,468.5137 C604.03,489.7637 585.9,508.0237 569.37,521.3137 " fill="none" id="Manager-backto-TaskManager" style="stroke:#181818;stroke-width:1.0;stroke-dasharray:7.0,7.0;"/><polygon fill="none" points="564.64,320.8237,574.0194,337.3169,582.0395,328.3906,564.64,320.8237" style="stroke:#181818;stroke-width:1.0;"/></g><!--reverse link Manager to UserManager--><g id="link_Manager_UserManager"><path d="M488.0943,331.1659 C461.8043,350.0259 439.51,366.0337 413.24,384.8837 " fill="none" id="Manager-backto-UserManager" style="stroke:#181818;stroke-width:1.0;stroke-dasharray:7.0,7.0;"/><polygon fill="none" points="502.72,320.6737,484.5968,326.2907,491.5917,336.0412,502.72,320.6737" style="stroke:#181818;stroke-width:1.0;"/></g><!--reverse link Main to UniqueSearchModel--><g id="link_Main_UniqueSearchModel"><path codeLine="37" d="M447.0892,70.3697 C565.8592,77.3697 976.09,108.2737 1056,207.0137 C1129.11,297.3537 1127.04,376.5337 1056,468.5137 C1030.27,501.8337 921.5,523.3337 844.51,534.6837 " fill="none" id="Main-backto-UniqueSearchModel" style="stroke:#181818;stroke-width:1.0;"/><polygon fill="none" points="435.11,69.6637,440.8643,74.0098,447.0892,70.3697,441.3349,66.0236,435.11,69.6637" style="stroke:#181818;stroke-width:1.0;"/></g><!--reverse link Main to SimilarityModel--><g id="link_Main_SimilarityModel"><path codeLine="38" d="M361.6875,82.8182 C331.0475,94.9082 297.18,113.7137 277,151.0137 C209.85,275.1237 247.54,330.5137 277,468.5137 C280.98,487.1737 289.9,506.7937 297.6,521.4237 " fill="none" id="Main-backto-SimilarityModel" style="stroke:#181818;stroke-width:1.0;"/><polygon fill="none" points="372.85,78.4137,365.8006,76.8951,361.6875,82.8182,368.7369,84.3367,372.85,78.4137" style="stroke:#181818;stroke-width:1.0;"/></g><!--reverse link Main to ConfigController--><g id="link_Main_ConfigController"><path codeLine="39" d="M441.7577,98.5631 C463.5777,116.2231 484.26,132.9537 506.18,150.6937 " fill="none" id="Main-backto-ConfigController" style="stroke:#181818;stroke-width:1.0;"/><polygon fill="none" points="432.43,91.0137,434.5774,97.8976,441.7577,98.5631,439.6103,91.6791,432.43,91.0137" style="stroke:#181818;stroke-width:1.0;"/></g><!--reverse link Main to PaintManager--><g id="link_Main_PaintManager"><path codeLine="40" d="M408.9862,102.897 C416.0262,149.137 433.66,243.9737 473,325.0137 C483.68,347.0237 500.51,369.0637 513.94,384.9037 " fill="none" id="Main-backto-PaintManager" style="stroke:#181818;stroke-width:1.0;"/><polygon fill="none" points="407.18,91.0337,404.1287,97.5674,408.9862,102.897,412.0375,96.3633,407.18,91.0337" style="stroke:#181818;stroke-width:1.0;"/></g><!--reverse link Main to UserManager--><g id="link_Main_UserManager"><path codeLine="41" d="M401.6293,103.0863 C397.4293,165.1163 386.76,322.8137 382.56,384.8837 " fill="none" id="Main-backto-UserManager" style="stroke:#181818;stroke-width:1.0;"/><polygon fill="none" points="402.44,91.1137,398.0438,96.8297,401.6293,103.0863,406.0255,97.3702,402.44,91.1137" style="stroke:#181818;stroke-width:1.0;"/></g><!--reverse link Main to TaskManager--><g id="link_Main_TaskManager"><path codeLine="42" d="M388.2162,102.0798 C353.2262,178.7198 253.11,411.6337 305,468.5137 C318.08,482.8537 373.28,471.3737 392,476.5137 C428.98,486.6637 468.12,505.9437 496.09,521.3837 " fill="none" id="Main-backto-TaskManager" style="stroke:#181818;stroke-width:1.0;"/><polygon fill="none" points="393.2,91.1637,387.0694,94.9605,388.2162,102.0798,394.3468,98.283,393.2,91.1637" style="stroke:#181818;stroke-width:1.0;"/></g><!--reverse link ConfigController to Manager--><g id="link_ConfigController_Manager"><path codeLine="43" d="M535,205.0537 C535,226.0837 535,251.0037 535,272.1337 " fill="none" id="ConfigController-backto-Manager" style="stroke:#181818;stroke-width:1.0;"/><polygon fill="#181818" points="535,199.0537,531,208.0537,535,204.0537,539,208.0537,535,199.0537" style="stroke:#181818;stroke-width:1.0;"/></g><!--reverse link PaintManager to SimilarityModel--><g id="link_PaintManager_SimilarityModel"><path codeLine="44" d="M501.8101,436.8152 C487.3701,448.0852 474.05,457.7837 457,468.5137 C425.8,488.1437 388.97,507.2937 360.11,521.4537 " fill="none" id="PaintManager-backto-SimilarityModel" style="stroke:#181818;stroke-width:1.0;stroke-dasharray:7.0,7.0;"/><polygon fill="#181818" points="506.54,433.1237,496.984,435.5077,502.5984,436.2,501.9062,441.8143,506.54,433.1237" style="stroke:#181818;stroke-width:1.0;"/></g><!--reverse link PaintManager to UniqueSearchModel--><g id="link_PaintManager_UniqueSearchModel"><path codeLine="45" d="M579.7192,436.1628 C621.9692,460.8728 683.39,496.7837 725.59,521.4737 " fill="none" id="PaintManager-backto-UniqueSearchModel" style="stroke:#181818;stroke-width:1.0;stroke-dasharray:7.0,7.0;"/><polygon fill="#181818" points="574.54,433.1337,580.2895,441.1301,578.856,435.6579,584.3283,434.2245,574.54,433.1337" style="stroke:#181818;stroke-width:1.0;"/></g><!--reverse link PaintManager to TaskManager--><g id="link_PaintManager_TaskManager"><path codeLine="46" d="M535,439.1337 C535,463.7737 535,496.5537 535,521.2437 " fill="none" id="PaintManager-backto-TaskManager" style="stroke:#181818;stroke-width:1.0;stroke-dasharray:7.0,7.0;"/><polygon fill="#181818" points="535,433.1337,531,442.1337,535,438.1337,539,442.1337,535,433.1337" style="stroke:#181818;stroke-width:1.0;"/></g><!--reverse link SentenceTransformer to SimilarityModel--><g id="link_SentenceTransformer_SimilarityModel"><path codeLine="47" d="M198.27,545.5137 C216.82,545.5137 229.37,545.5137 247.92,545.5137 " fill="none" id="SentenceTransformer-backto-SimilarityModel" style="stroke:#181818;stroke-width:1.0;stroke-dasharray:7.0,7.0;"/><polygon fill="#181818" points="192.27,545.5137,201.27,549.5137,197.27,545.5137,201.27,541.5137,192.27,545.5137" style="stroke:#181818;stroke-width:1.0;"/></g><!--link SimilarityModel to AutoTokenizer--><g id="link_SimilarityModel_AutoTokenizer"><path codeLine="48" d="M337.33,569.6537 C362.36,591.6437 395.2821,620.564 420.2821,642.524 " fill="none" id="SimilarityModel-to-AutoTokenizer" style="stroke:#181818;stroke-width:1.0;stroke-dasharray:7.0,7.0;"/><polygon fill="#181818" points="424.79,646.4837,420.668,637.5389,421.0335,643.1839,415.3884,643.5494,424.79,646.4837" style="stroke:#181818;stroke-width:1.0;"/></g><!--link SimilarityModel to AutoModelForSeq2SeqLM--><g id="link_SimilarityModel_AutoModelForSeq2SeqLM"><path codeLine="49" d="M300.47,569.6537 C290.45,591.6437 277.9645,619.0622 267.9745,641.0222 " fill="none" id="SimilarityModel-to-AutoModelForSeq2SeqLM" style="stroke:#181818;stroke-width:1.0;stroke-dasharray:7.0,7.0;"/><polygon fill="#181818" points="265.49,646.4837,272.8577,639.9479,267.5604,641.9325,265.5758,636.6352,265.49,646.4837" style="stroke:#181818;stroke-width:1.0;"/></g><!--link UniqueSearchModel to AutoFeatureExtractor--><g id="link_UniqueSearchModel_AutoFeatureExtractor"><path codeLine="50" d="M765,569.6537 C765,591.6437 765,618.5237 765,640.4837 " fill="none" id="UniqueSearchModel-to-AutoFeatureExtractor" style="stroke:#181818;stroke-width:1.0;stroke-dasharray:7.0,7.0;"/><polygon fill="#181818" points="765,646.4837,769,637.4837,765,641.4837,761,637.4837,765,646.4837" style="stroke:#181818;stroke-width:1.0;"/></g><!--link UniqueSearchModel to AutoModel--><g id="link_UniqueSearchModel_AutoModel"><path codeLine="51" d="M715.7,569.6437 C698.66,578.5837 679.87,589.5537 664,601.5137 C646.53,614.6737 633.2743,627.8844 620.6443,641.9144 " fill="none" id="UniqueSearchModel-to-AutoModel" style="stroke:#181818;stroke-width:1.0;stroke-dasharray:7.0,7.0;"/><polygon fill="#181818" points="616.63,646.3737,625.6243,642.3609,619.9753,642.6576,619.6786,637.0085,616.63,646.3737" style="stroke:#181818;stroke-width:1.0;"/></g><!--link UniqueSearchModel to torchvision.transforms--><g id="link_UniqueSearchModel_torchvision.transforms"><path codeLine="52" d="M808.11,569.5537 C825.86,579.2137 846.54,590.6937 865,601.5137 C887.03,614.4337 906.0878,626.1886 926.0278,638.7886 " fill="none" id="UniqueSearchModel-to-torchvision.transforms" style="stroke:#181818;stroke-width:1.0;stroke-dasharray:7.0,7.0;"/><polygon fill="#181818" points="931.1,641.9937,925.6284,633.8045,926.8732,639.3227,921.355,640.5675,931.1,641.9937" style="stroke:#181818;stroke-width:1.0;"/></g><!--link ConfigController to \~/Draw learning helper--><g id="link_ConfigController_\~/Draw learning helper"><path codeLine="53" d="M602.65,185.4137 C627.81,190.3737 652.17,197.4537 660,207.0137 C663.0213,210.7012 665.3694,214.7934 667.1631,219.1381 C667.6115,220.2243 668.0253,221.3263 668.4063,222.4417 C668.4539,222.5811 666.6041,217.0285 666.6507,217.1684 " fill="none" id="ConfigController-to-\~/Draw learning helper" style="stroke:#181818;stroke-width:1.0;stroke-dasharray:7.0,7.0;"/><polygon fill="#181818" points="668.5476,222.8606,669.497,213.0576,666.9668,218.1171,661.9074,215.5869,668.5476,222.8606" style="stroke:#181818;stroke-width:1.0;"/></g><!--SRC=[ZLNRRjD057ptLwp2GryQLqA2Ggag8Q1FH49A-uOKhUnrQ-hifckdBLH5lH0X1AAVW93WFIeDTM_9B-p-4MCxSNoBI5LNyivupfmpnwxF0i9fc_aTQh4cwr190o495vmPrFF4VjizSFcMOG3VeLkCr6n9z-iUevBZlBxDl0wJDVB0SPp7DYE71i6FvL7V9oy4Tzmj_0say3mcOyZb0PCEYf46vH2KcGVUKA3ZO-AsEnvhCnxu5SocstOzAjtWVKFOpCiW6zJVcKjYaxkxNRHCfRLT5DdqcPnBf077yQqZF1lasjkFIoyn838P49aCA1bCbjhP5e7mQzDpryDutJPAj6mQKDFozufeWExyAg0BnvL055ThugQLk6bPSJBcEr_mX7za76KYzj4junPh1P9otn6o3N5aR3DdsN5o6JV7r8qfCoTLL5XsbjcJdCBpRY0sn0xZxeVSQAFpE9Tr8Pjizo6kruq2liveq9NirG7AMDZRgiVpTWJItdDzLt0pjHOPivxQjlE8789i656gHDJh5JkIGiKDJ87IrgT8ThqpDQQxDZtCRB5H52Ih84p0t2kpQfebNoL2kQSI9Lkze6TsrweYBxBCjNoirNWvtfAvCRCKz2nYqb4LMXrzURgWpdwDiHmBN0GCW1CGuPJJNeXMKFtMnwglxbMeRbMelwW1KPVnmRt-gdih2QjEr2ySNglRcGMN_llwBYPQXEXUKbEVerwehecwKmDzea_LK8rmtUBwgmQnATWPWJjIDoea-eJWi1zHeJ24dnjWToeqKvi_nkJ-RF8YKN_Guo21Uu0kuUGKn7EYBlG943mGuluCZAXkz5kK2ises33jwGpIiAu_9zFKtsT7WoT_HbNHz34Q3UCdiuskJ5JZbaPfIvCFCNfJmx7NgAEytxZ9Pra9_MaINk6RlLYHHPf-P6bOaDOzJ6yK3-4YjX-VpIWs_TBFKIT9NdzJLx5s7zimmFsvxbMBJ_-_p2D-XVlBSJAGnBumRfFe_J3-0G00]--></g></svg>