<?xml version="1.0" encoding="us-ascii" standalone="no"?><svg xmlns="http://www.w3.org/2000/svg" xmlns:xlink="http://www.w3.org/1999/xlink" contentStyleType="text/css" height="421px" preserveAspectRatio="none" style="width:694px;height:421px;background:#FFFFFF;" version="1.1" viewBox="0 0 694 421" width="694px" zoomAndPan="magnify"><defs/><g><path d="M240.5,6.0137 L263.5,6.0137 A3.75,3.75 0 0 1 266,8.5137 L273,30.6348 L277.5,30.6348 A2.5,2.5 0 0 1 280,33.1348 L280,60.7559 A2.5,2.5 0 0 1 277.5,63.2559 L240.5,63.2559 A2.5,2.5 0 0 1 238,60.7559 L238,8.5137 A2.5,2.5 0 0 1 240.5,6.0137 " fill="#F1F1F1" style="stroke:#181818;stroke-width:0.5;"/><line style="stroke:#181818;stroke-width:0.5;" x1="238" x2="273" y1="30.6348" y2="30.6348"/><text fill="#000000" font-family="sans-serif" font-size="14" font-weight="bold" lengthAdjust="spacing" textLength="22" x="242" y="23.1211">src</text><path d="M8.5,123.0137 L79.5,123.0137 A3.75,3.75 0 0 1 82,125.5137 L89,147.6348 L93.5,147.6348 A2.5,2.5 0 0 1 96,150.1348 L96,177.7559 A2.5,2.5 0 0 1 93.5,180.2559 L8.5,180.2559 A2.5,2.5 0 0 1 6,177.7559 L6,125.5137 A2.5,2.5 0 0 1 8.5,123.0137 " fill="#F1F1F1" style="stroke:#181818;stroke-width:0.5;"/><line style="stroke:#181818;stroke-width:0.5;" x1="6" x2="89" y1="147.6348" y2="147.6348"/><text fill="#000000" font-family="sans-serif" font-size="14" font-weight="bold" lengthAdjust="spacing" textLength="70" x="10" y="140.1211">src.config</text><path d="M318,6.0137 L378,6.0137 A3.75,3.75 0 0 1 380.5,8.5137 L387.5,30.6348 L392,30.6348 A2.5,2.5 0 0 1 394.5,33.1348 L394.5,60.7559 A2.5,2.5 0 0 1 392,63.2559 L318,63.2559 A2.5,2.5 0 0 1 315.5,60.7559 L315.5,8.5137 A2.5,2.5 0 0 1 318,6.0137 " fill="#F1F1F1" style="stroke:#181818;stroke-width:0.5;"/><line style="stroke:#181818;stroke-width:0.5;" x1="315.5" x2="387.5" y1="30.6348" y2="30.6348"/><text fill="#000000" font-family="sans-serif" font-size="14" font-weight="bold" lengthAdjust="spacing" textLength="59" x="319.5" y="23.1211">src.main</text><path d="M134,123.0137 L196,123.0137 A3.75,3.75 0 0 1 198.5,125.5137 L205.5,147.6348 L210,147.6348 A2.5,2.5 0 0 1 212.5,150.1348 L212.5,177.7559 A2.5,2.5 0 0 1 210,180.2559 L134,180.2559 A2.5,2.5 0 0 1 131.5,177.7559 L131.5,125.5137 A2.5,2.5 0 0 1 134,123.0137 " fill="#F1F1F1" style="stroke:#181818;stroke-width:0.5;"/><line style="stroke:#181818;stroke-width:0.5;" x1="131.5" x2="205.5" y1="147.6348" y2="147.6348"/><text fill="#000000" font-family="sans-serif" font-size="14" font-weight="bold" lengthAdjust="spacing" textLength="61" x="135.5" y="140.1211">src.paint</text><path d="M250.5,123.0137 L339.5,123.0137 A3.75,3.75 0 0 1 342,125.5137 L349,147.6348 L353.5,147.6348 A2.5,2.5 0 0 1 356,150.1348 L356,177.7559 A2.5,2.5 0 0 1 353.5,180.2559 L250.5,180.2559 A2.5,2.5 0 0 1 248,177.7559 L248,125.5137 A2.5,2.5 0 0 1 250.5,123.0137 " fill="#F1F1F1" style="stroke:#181818;stroke-width:0.5;"/><line style="stroke:#181818;stroke-width:0.5;" x1="248" x2="349" y1="147.6348" y2="147.6348"/><text fill="#000000" font-family="sans-serif" font-size="14" font-weight="bold" lengthAdjust="spacing" textLength="88" x="252" y="140.1211">src.similarity</text><path d="M245,240.0137 L301,240.0137 A3.75,3.75 0 0 1 303.5,242.5137 L310.5,264.6348 L315,264.6348 A2.5,2.5 0 0 1 317.5,267.1348 L317.5,294.7559 A2.5,2.5 0 0 1 315,297.2559 L245,297.2559 A2.5,2.5 0 0 1 242.5,294.7559 L242.5,242.5137 A2.5,2.5 0 0 1 245,240.0137 " fill="#F1F1F1" style="stroke:#181818;stroke-width:0.5;"/><line style="stroke:#181818;stroke-width:0.5;" x1="242.5" x2="310.5" y1="264.6348" y2="264.6348"/><text fill="#000000" font-family="sans-serif" font-size="14" font-weight="bold" lengthAdjust="spacing" textLength="55" x="246.5" y="257.1211">src.task</text><path d="M465,123.0137 L597,123.0137 A3.75,3.75 0 0 1 599.5,125.5137 L606.5,147.6348 L611,147.6348 A2.5,2.5 0 0 1 613.5,150.1348 L613.5,177.7559 A2.5,2.5 0 0 1 611,180.2559 L465,180.2559 A2.5,2.5 0 0 1 462.5,177.7559 L462.5,125.5137 A2.5,2.5 0 0 1 465,123.0137 " fill="#F1F1F1" style="stroke:#181818;stroke-width:0.5;"/><line style="stroke:#181818;stroke-width:0.5;" x1="462.5" x2="606.5" y1="147.6348" y2="147.6348"/><text fill="#000000" font-family="sans-serif" font-size="14" font-weight="bold" lengthAdjust="spacing" textLength="131" x="466.5" y="140.1211">src.unique_search</text><path d="M355.5,240.0137 L414.5,240.0137 A3.75,3.75 0 0 1 417,242.5137 L424,264.6348 L428.5,264.6348 A2.5,2.5 0 0 1 431,267.1348 L431,294.7559 A2.5,2.5 0 0 1 428.5,297.2559 L355.5,297.2559 A2.5,2.5 0 0 1 353,294.7559 L353,242.5137 A2.5,2.5 0 0 1 355.5,240.0137 " fill="#F1F1F1" style="stroke:#181818;stroke-width:0.5;"/><line style="stroke:#181818;stroke-width:0.5;" x1="353" x2="424" y1="264.6348" y2="264.6348"/><text fill="#000000" font-family="sans-serif" font-size="14" font-weight="bold" lengthAdjust="spacing" textLength="58" x="357" y="257.1211">src.user</text><path d="M244.5,357.0137 L301.5,357.0137 A3.75,3.75 0 0 1 304,359.5137 L311,381.6348 L315.5,381.6348 A2.5,2.5 0 0 1 318,384.1348 L318,411.7559 A2.5,2.5 0 0 1 315.5,414.2559 L244.5,414.2559 A2.5,2.5 0 0 1 242,411.7559 L242,359.5137 A2.5,2.5 0 0 1 244.5,357.0137 " fill="#F1F1F1" style="stroke:#181818;stroke-width:0.5;"/><line style="stroke:#181818;stroke-width:0.5;" x1="242" x2="311" y1="381.6348" y2="381.6348"/><text fill="#000000" font-family="sans-serif" font-size="14" font-weight="bold" lengthAdjust="spacing" textLength="56" x="246" y="374.1211">src.utils</text><!--link src.main to src.config--><g id="link_src.main_src.config"><path codeLine="20" d="M315.36,55.1137 C309.26,57.8937 303,60.6137 297,63.0137 C217.51,94.7437 193.98,92.5237 114,123.0137 C108.2,125.2237 107.6949,125.3574 101.7449,127.8474 " fill="none" id="src.main-to-src.config" style="stroke:#181818;stroke-width:1.0;"/><polygon fill="#181818" points="96.21,130.1637,106.0565,130.3792,100.8224,128.2334,102.9681,122.9993,96.21,130.1637" style="stroke:#181818;stroke-width:1.0;"/></g><!--link src.main to src.paint--><g id="link_src.main_src.paint"><path codeLine="21" d="M315.29,60.4637 C284.91,79.5537 248.2497,102.5904 217.6597,121.8204 " fill="none" id="src.main-to-src.paint" style="stroke:#181818;stroke-width:1.0;"/><polygon fill="#181818" points="212.58,125.0137,222.3283,123.6102,216.8131,122.3526,218.0707,116.8373,212.58,125.0137" style="stroke:#181818;stroke-width:1.0;"/></g><!--link src.main to src.similarity--><g id="link_src.main_src.similarity"><path codeLine="22" d="M342.31,63.0637 C333.98,81.1337 325.6323,99.2349 317.2823,117.3449 " fill="none" id="src.main-to-src.similarity" style="stroke:#181818;stroke-width:1.0;"/><polygon fill="#181818" points="314.77,122.7937,322.1709,116.2954,316.8635,118.2531,314.9059,112.9458,314.77,122.7937" style="stroke:#181818;stroke-width:1.0;"/></g><!--link src.main to src.task--><g id="link_src.main_src.task"><path codeLine="23" d="M366.58,63.0637 C377.36,93.0637 389.5,141.8437 373,180.0137 C361.66,206.2637 342.9336,224.6785 322.3836,240.0585 " fill="none" id="src.main-to-src.task" style="stroke:#181818;stroke-width:1.0;"/><polygon fill="#181818" points="317.58,243.6537,327.1822,241.4634,321.583,240.6577,322.3887,235.0585,317.58,243.6537" style="stroke:#181818;stroke-width:1.0;"/></g><!--link src.main to src.unique_search--><g id="link_src.main_src.unique_search"><path codeLine="24" d="M394.71,60.4637 C424.04,78.8937 458.8694,100.7919 489.1294,119.8019 " fill="none" id="src.main-to-src.unique_search" style="stroke:#181818;stroke-width:1.0;"/><polygon fill="#181818" points="494.21,122.9937,488.7169,114.819,489.9762,120.3339,484.4612,121.5931,494.21,122.9937" style="stroke:#181818;stroke-width:1.0;"/></g><!--link src.main to src.user--><g id="link_src.main_src.user"><path codeLine="25" d="M394.74,34.6637 C457.04,35.7637 576.22,48.1837 631,123.0137 C687.92,200.7737 518.2894,243.7469 436.9394,259.5869 " fill="none" id="src.main-to-src.user" style="stroke:#181818;stroke-width:1.0;"/><polygon fill="#181818" points="431.05,260.7337,440.6486,262.9398,435.9578,259.778,439.1196,255.0873,431.05,260.7337" style="stroke:#181818;stroke-width:1.0;"/></g><!--link src.paint to src.task--><g id="link_src.paint_src.task"><path codeLine="26" d="M197.87,180.0637 C214.84,198.1337 232.8523,217.3103 249.8623,235.4203 " fill="none" id="src.paint-to-src.task" style="stroke:#181818;stroke-width:1.0;"/><polygon fill="#181818" points="253.97,239.7937,250.724,230.4951,250.5469,236.1492,244.8928,235.9721,253.97,239.7937" style="stroke:#181818;stroke-width:1.0;"/></g><!--link src.paint to src.utils--><g id="link_src.paint_src.utils"><path codeLine="27" d="M167.65,180.1137 C172.47,209.7337 188.75,257.7937 208,297.0137 C218.28,317.9537 228.5363,335.521 242.0763,352.331 " fill="none" id="src.paint-to-src.utils" style="stroke:#181818;stroke-width:1.0;"/><polygon fill="#181818" points="245.84,357.0037,243.3095,347.4854,242.7035,353.1097,237.0792,352.5038,245.84,357.0037" style="stroke:#181818;stroke-width:1.0;"/></g><!--link src.paint to src.utils--><g id="link_src.paint_src.utils"><path codeLine="28" d="M193.53,180.1137 C207.47,209.7337 223.75,257.7937 243,297.0137 C253.28,317.9537 264.4778,334.8989 273.4378,351.7089 " fill="none" id="src.paint-to-src.utils-1" style="stroke:#181818;stroke-width:1.0;"/><polygon fill="#181818" points="276.26,357.0037,275.5565,347.18,273.9081,352.5913,268.4968,350.9429,276.26,357.0037" style="stroke:#181818;stroke-width:1.0;"/></g><!--link src.task to src.utils--><g id="link_src.task_src.utils"><path codeLine="29" d="M268.93,297.0637 C266.7,315.1337 265.96,332.7283 268.18,350.8383 " fill="none" id="src.task-to-src.utils" style="stroke:#181818;stroke-width:1.0;"/><polygon fill="#181818" points="268.91,356.7937,271.7852,347.3738,268.3016,351.8308,263.8447,348.3472,268.91,356.7937" style="stroke:#181818;stroke-width:1.0;"/></g><!--link src.task to src.utils--><g id="link_src.task_src.utils"><path codeLine="30" d="M291.72,297.0637 C294.09,315.1337 294.8621,332.7336 292.5121,350.8436 " fill="none" id="src.task-to-src.utils-1" style="stroke:#181818;stroke-width:1.0;"/><polygon fill="#181818" points="291.74,356.7937,296.8649,348.3832,292.3834,351.8352,288.9314,347.3538,291.74,356.7937" style="stroke:#181818;stroke-width:1.0;"/></g><!--link src.user to src.utils--><g id="link_src.user_src.utils"><path codeLine="31" d="M354.11,297.0637 C334.27,315.1337 315.2083,334.1141 299.7983,352.2241 " fill="none" id="src.user-to-src.utils" style="stroke:#181818;stroke-width:1.0;"/><polygon fill="#181818" points="295.91,356.7937,304.7888,352.5315,299.1503,352.9857,298.6961,347.3471,295.91,356.7937" style="stroke:#181818;stroke-width:1.0;"/></g><!--link src.user to src.utils--><g id="link_src.user_src.utils"><path codeLine="32" d="M376.89,297.0637 C361.54,315.2637 342.8411,335.0102 322.7511,353.1702 " fill="none" id="src.user-to-src.utils-1" style="stroke:#181818;stroke-width:1.0;"/><polygon fill="#181818" points="318.3,357.1937,327.6589,354.1259,322.0092,353.8408,322.2943,348.1911,318.3,357.1937" style="stroke:#181818;stroke-width:1.0;"/></g><!--SRC=[ZP113i8W44Ntd89qNu_W9Jo0cP2nJjhIoj25CTvT81KaGqnNvBzv4EOpUcrXHbx1u0LNSE0Nf-rYKGKqme2wOsSw3Qp3gL_gNGrEPh4t6hxpFKfj1h9PYa4gQw0-Eob9YMcc2HpvPpOBahe77hCOWrGsIuyDhupWp3sx5MrSOdJ53Q6XU9guE34bAHVGz-UVoYHF3KXSrfMpkA6arIwDSVY-AfMBjsgS5ldBKys7SIhl2Fu0]--></g></svg>