<?xml version="1.0" encoding="us-ascii" standalone="no"?><svg xmlns="http://www.w3.org/2000/svg" xmlns:xlink="http://www.w3.org/1999/xlink" contentStyleType="text/css" height="767px" preserveAspectRatio="none" style="width:1124px;height:767px;background:#FFFFFF;" version="1.1" viewBox="0 0 1124 767" width="1124px" zoomAndPan="magnify"><defs/><g><rect fill="#FFFFFF" height="572.5293" style="stroke:#181818;stroke-width:1.0;" width="10" x="27.5" y="93.6211"/><rect fill="#FFFFFF" height="549.2383" style="stroke:#181818;stroke-width:1.0;" width="10" x="205.5" y="116.9121"/><rect fill="#FFFFFF" height="31.291" style="stroke:#181818;stroke-width:1.0;" width="10" x="380.5" y="148.2031"/><rect fill="#FFFFFF" height="31.291" style="stroke:#181818;stroke-width:1.0;" width="10" x="380.5" y="603.5684"/><rect fill="#FFFFFF" height="31.291" style="stroke:#181818;stroke-width:1.0;" width="10" x="498.5" y="228.0762"/><rect fill="#FFFFFF" height="31.291" style="stroke:#181818;stroke-width:1.0;" width="10" x="608.5" y="290.6582"/><rect fill="#FFFFFF" height="156.4551" style="stroke:#181818;stroke-width:1.0;" width="10" x="720" y="353.2402"/><rect fill="#FFFFFF" height="31.291" style="stroke:#181818;stroke-width:1.0;" width="10" x="720" y="540.9863"/><rect fill="#FFFFFF" height="31.291" style="stroke:#181818;stroke-width:1.0;" width="10" x="879" y="384.5313"/><rect fill="#FFFFFF" height="31.291" style="stroke:#181818;stroke-width:1.0;" width="10" x="1059" y="447.1133"/><line style="stroke:#181818;stroke-width:0.5;stroke-dasharray:5.0,5.0;" x1="32" x2="32" y1="83.6211" y2="684.1504"/><line style="stroke:#181818;stroke-width:0.5;stroke-dasharray:5.0,5.0;" x1="210.5" x2="210.5" y1="83.6211" y2="684.1504"/><line style="stroke:#181818;stroke-width:0.5;stroke-dasharray:5.0,5.0;" x1="385" x2="385" y1="83.6211" y2="684.1504"/><line style="stroke:#181818;stroke-width:0.5;stroke-dasharray:5.0,5.0;" x1="503" x2="503" y1="83.6211" y2="684.1504"/><line style="stroke:#181818;stroke-width:0.5;stroke-dasharray:5.0,5.0;" x1="613" x2="613" y1="83.6211" y2="684.1504"/><line style="stroke:#181818;stroke-width:0.5;stroke-dasharray:5.0,5.0;" x1="725" x2="725" y1="83.6211" y2="684.1504"/><line style="stroke:#181818;stroke-width:0.5;stroke-dasharray:5.0,5.0;" x1="883.5" x2="883.5" y1="83.6211" y2="684.1504"/><line style="stroke:#181818;stroke-width:0.5;stroke-dasharray:5.0,5.0;" x1="1064" x2="1064" y1="83.6211" y2="684.1504"/><text fill="#000000" font-family="sans-serif" font-size="14" lengthAdjust="spacing" textLength="49" x="5" y="80.1074">Student</text><ellipse cx="32.5" cy="13.5" fill="#E2E2F0" rx="8" ry="8" style="stroke:#181818;stroke-width:0.5;"/><path d="M32.5,21.5 L32.5,48.5 M19.5,29.5 L45.5,29.5 M32.5,48.5 L19.5,63.5 M32.5,48.5 L45.5,63.5 " fill="none" style="stroke:#181818;stroke-width:0.5;"/><text fill="#000000" font-family="sans-serif" font-size="14" lengthAdjust="spacing" textLength="49" x="5" y="698.2578">Student</text><ellipse cx="32.5" cy="710.2715" fill="#E2E2F0" rx="8" ry="8" style="stroke:#181818;stroke-width:0.5;"/><path d="M32.5,718.2715 L32.5,745.2715 M19.5,726.2715 L45.5,726.2715 M32.5,745.2715 L19.5,760.2715 M32.5,745.2715 L45.5,760.2715 " fill="none" style="stroke:#181818;stroke-width:0.5;"/><rect fill="#E2E2F0" height="32.6211" rx="2.5" ry="2.5" style="stroke:#181818;stroke-width:0.5;" width="44" x="188.5" y="50"/><text fill="#000000" font-family="sans-serif" font-size="14" lengthAdjust="spacing" textLength="30" x="195.5" y="72.1074">Main</text><rect fill="#E2E2F0" height="32.6211" rx="2.5" ry="2.5" style="stroke:#181818;stroke-width:0.5;" width="44" x="188.5" y="683.1504"/><text fill="#000000" font-family="sans-serif" font-size="14" lengthAdjust="spacing" textLength="30" x="195.5" y="705.2578">Main</text><rect fill="#E2E2F0" height="32.6211" rx="2.5" ry="2.5" style="stroke:#181818;stroke-width:0.5;" width="117" x="327" y="50"/><text fill="#000000" font-family="sans-serif" font-size="14" lengthAdjust="spacing" textLength="103" x="334" y="72.1074">ConfigController</text><rect fill="#E2E2F0" height="32.6211" rx="2.5" ry="2.5" style="stroke:#181818;stroke-width:0.5;" width="117" x="327" y="683.1504"/><text fill="#000000" font-family="sans-serif" font-size="14" lengthAdjust="spacing" textLength="103" x="334" y="705.2578">ConfigController</text><rect fill="#E2E2F0" height="32.6211" rx="2.5" ry="2.5" style="stroke:#181818;stroke-width:0.5;" width="99" x="454" y="50"/><text fill="#000000" font-family="sans-serif" font-size="14" lengthAdjust="spacing" textLength="85" x="461" y="72.1074">UserManager</text><rect fill="#E2E2F0" height="32.6211" rx="2.5" ry="2.5" style="stroke:#181818;stroke-width:0.5;" width="99" x="454" y="683.1504"/><text fill="#000000" font-family="sans-serif" font-size="14" lengthAdjust="spacing" textLength="85" x="461" y="705.2578">UserManager</text><rect fill="#E2E2F0" height="32.6211" rx="2.5" ry="2.5" style="stroke:#181818;stroke-width:0.5;" width="101" x="563" y="50"/><text fill="#000000" font-family="sans-serif" font-size="14" lengthAdjust="spacing" textLength="87" x="570" y="72.1074">TaskManager</text><rect fill="#E2E2F0" height="32.6211" rx="2.5" ry="2.5" style="stroke:#181818;stroke-width:0.5;" width="101" x="563" y="683.1504"/><text fill="#000000" font-family="sans-serif" font-size="14" lengthAdjust="spacing" textLength="87" x="570" y="705.2578">TaskManager</text><rect fill="#E2E2F0" height="32.6211" rx="2.5" ry="2.5" style="stroke:#181818;stroke-width:0.5;" width="102" x="674" y="50"/><text fill="#000000" font-family="sans-serif" font-size="14" lengthAdjust="spacing" textLength="88" x="681" y="72.1074">PaintManager</text><rect fill="#E2E2F0" height="32.6211" rx="2.5" ry="2.5" style="stroke:#181818;stroke-width:0.5;" width="102" x="674" y="683.1504"/><text fill="#000000" font-family="sans-serif" font-size="14" lengthAdjust="spacing" textLength="88" x="681" y="705.2578">PaintManager</text><rect fill="#E2E2F0" height="32.6211" rx="2.5" ry="2.5" style="stroke:#181818;stroke-width:0.5;" width="141" x="813.5" y="50"/><text fill="#000000" font-family="sans-serif" font-size="14" lengthAdjust="spacing" textLength="127" x="820.5" y="72.1074">UniqueSearchModel</text><rect fill="#E2E2F0" height="32.6211" rx="2.5" ry="2.5" style="stroke:#181818;stroke-width:0.5;" width="141" x="813.5" y="683.1504"/><text fill="#000000" font-family="sans-serif" font-size="14" lengthAdjust="spacing" textLength="127" x="820.5" y="705.2578">UniqueSearchModel</text><rect fill="#E2E2F0" height="32.6211" rx="2.5" ry="2.5" style="stroke:#181818;stroke-width:0.5;" width="108" x="1010" y="50"/><text fill="#000000" font-family="sans-serif" font-size="14" lengthAdjust="spacing" textLength="94" x="1017" y="72.1074">SimilarityModel</text><rect fill="#E2E2F0" height="32.6211" rx="2.5" ry="2.5" style="stroke:#181818;stroke-width:0.5;" width="108" x="1010" y="683.1504"/><text fill="#000000" font-family="sans-serif" font-size="14" lengthAdjust="spacing" textLength="94" x="1017" y="705.2578">SimilarityModel</text><rect fill="#FFFFFF" height="572.5293" style="stroke:#181818;stroke-width:1.0;" width="10" x="27.5" y="93.6211"/><rect fill="#FFFFFF" height="549.2383" style="stroke:#181818;stroke-width:1.0;" width="10" x="205.5" y="116.9121"/><rect fill="#FFFFFF" height="31.291" style="stroke:#181818;stroke-width:1.0;" width="10" x="380.5" y="148.2031"/><rect fill="#FFFFFF" height="31.291" style="stroke:#181818;stroke-width:1.0;" width="10" x="380.5" y="603.5684"/><rect fill="#FFFFFF" height="31.291" style="stroke:#181818;stroke-width:1.0;" width="10" x="498.5" y="228.0762"/><rect fill="#FFFFFF" height="31.291" style="stroke:#181818;stroke-width:1.0;" width="10" x="608.5" y="290.6582"/><rect fill="#FFFFFF" height="156.4551" style="stroke:#181818;stroke-width:1.0;" width="10" x="720" y="353.2402"/><rect fill="#FFFFFF" height="31.291" style="stroke:#181818;stroke-width:1.0;" width="10" x="720" y="540.9863"/><rect fill="#FFFFFF" height="31.291" style="stroke:#181818;stroke-width:1.0;" width="10" x="879" y="384.5313"/><rect fill="#FFFFFF" height="31.291" style="stroke:#181818;stroke-width:1.0;" width="10" x="1059" y="447.1133"/><polygon fill="#181818" points="193.5,112.9121,203.5,116.9121,193.5,120.9121,197.5,116.9121" style="stroke:#181818;stroke-width:1.0;"/><line style="stroke:#181818;stroke-width:1.0;" x1="37.5" x2="199.5" y1="116.9121" y2="116.9121"/><text fill="#000000" font-family="sans-serif" font-size="13" lengthAdjust="spacing" textLength="127" x="44.5" y="111.6494">&#1079;&#1072;&#1087;&#1091;&#1089;&#1090;&#1080;&#1090;&#1100; &#1087;&#1088;&#1086;&#1075;&#1088;&#1072;&#1084;&#1084;&#1091;</text><polygon fill="#181818" points="368.5,144.2031,378.5,148.2031,368.5,152.2031,372.5,148.2031" style="stroke:#181818;stroke-width:1.0;"/><line style="stroke:#181818;stroke-width:1.0;" x1="215.5" x2="374.5" y1="148.2031" y2="148.2031"/><text fill="#000000" font-family="sans-serif" font-size="13" lengthAdjust="spacing" textLength="47" x="222.5" y="142.9404">initialize</text><polygon fill="#181818" points="226.5,175.4941,216.5,179.4941,226.5,183.4941,222.5,179.4941" style="stroke:#181818;stroke-width:1.0;"/><line style="stroke:#181818;stroke-width:1.0;stroke-dasharray:2.0,2.0;" x1="220.5" x2="384.5" y1="179.4941" y2="179.4941"/><text fill="#000000" font-family="sans-serif" font-size="13" lengthAdjust="spacing" textLength="130" x="232.5" y="174.2314">&#1053;&#1072;&#1089;&#1090;&#1088;&#1086;&#1081;&#1082;&#1080; &#1079;&#1072;&#1075;&#1088;&#1091;&#1078;&#1077;&#1085;&#1099;</text><polygon fill="#181818" points="486.5,224.0762,496.5,228.0762,486.5,232.0762,490.5,228.0762" style="stroke:#181818;stroke-width:1.0;"/><line style="stroke:#181818;stroke-width:1.0;" x1="215.5" x2="492.5" y1="228.0762" y2="228.0762"/><text fill="#000000" font-family="sans-serif" font-size="13" lengthAdjust="spacing" textLength="124" x="222.5" y="205.5225">create_user_dialog or</text><text fill="#000000" font-family="sans-serif" font-size="13" lengthAdjust="spacing" textLength="115" x="226.5" y="222.8135">choose_user_dialog</text><polygon fill="#181818" points="226.5,255.3672,216.5,259.3672,226.5,263.3672,222.5,259.3672" style="stroke:#181818;stroke-width:1.0;"/><line style="stroke:#181818;stroke-width:1.0;stroke-dasharray:2.0,2.0;" x1="220.5" x2="502.5" y1="259.3672" y2="259.3672"/><text fill="#000000" font-family="sans-serif" font-size="13" lengthAdjust="spacing" textLength="131" x="232.5" y="254.1045">&#1055;&#1086;&#1083;&#1100;&#1079;&#1086;&#1074;&#1072;&#1090;&#1077;&#1083;&#1100; &#1074;&#1099;&#1073;&#1088;&#1072;&#1085;</text><polygon fill="#181818" points="596.5,286.6582,606.5,290.6582,596.5,294.6582,600.5,290.6582" style="stroke:#181818;stroke-width:1.0;"/><line style="stroke:#181818;stroke-width:1.0;" x1="215.5" x2="602.5" y1="290.6582" y2="290.6582"/><text fill="#000000" font-family="sans-serif" font-size="13" lengthAdjust="spacing" textLength="115" x="222.5" y="285.3955">choose_task_dialog</text><polygon fill="#181818" points="226.5,317.9492,216.5,321.9492,226.5,325.9492,222.5,321.9492" style="stroke:#181818;stroke-width:1.0;"/><line style="stroke:#181818;stroke-width:1.0;stroke-dasharray:2.0,2.0;" x1="220.5" x2="612.5" y1="321.9492" y2="321.9492"/><text fill="#000000" font-family="sans-serif" font-size="13" lengthAdjust="spacing" textLength="172" x="232.5" y="316.6865">&#1057;&#1090;&#1091;&#1076;&#1077;&#1085;&#1090;&#1086;&#1084; &#1074;&#1099;&#1073;&#1088;&#1072;&#1085;&#1086; &#1079;&#1072;&#1076;&#1072;&#1085;&#1080;&#1077;</text><polygon fill="#181818" points="708,349.2402,718,353.2402,708,357.2402,712,353.2402" style="stroke:#181818;stroke-width:1.0;"/><line style="stroke:#181818;stroke-width:1.0;" x1="215.5" x2="714" y1="353.2402" y2="353.2402"/><text fill="#000000" font-family="sans-serif" font-size="13" lengthAdjust="spacing" textLength="112" x="222.5" y="347.9775">create_paint_dialog</text><polygon fill="#181818" points="867,380.5313,877,384.5313,867,388.5313,871,384.5313" style="stroke:#181818;stroke-width:1.0;"/><line style="stroke:#181818;stroke-width:1.0;" x1="730" x2="873" y1="384.5313" y2="384.5313"/><text fill="#000000" font-family="sans-serif" font-size="13" lengthAdjust="spacing" textLength="86" x="737" y="379.2686">find_duplicates</text><polygon fill="#181818" points="741,411.8223,731,415.8223,741,419.8223,737,415.8223" style="stroke:#181818;stroke-width:1.0;"/><line style="stroke:#181818;stroke-width:1.0;stroke-dasharray:2.0,2.0;" x1="735" x2="883" y1="415.8223" y2="415.8223"/><text fill="#000000" font-family="sans-serif" font-size="13" lengthAdjust="spacing" textLength="125" x="747" y="410.5596">&#1055;&#1088;&#1086;&#1074;&#1077;&#1088;&#1077;&#1085; &#1085;&#1072; &#1087;&#1083;&#1072;&#1075;&#1080;&#1072;&#1090;</text><polygon fill="#181818" points="1047,443.1133,1057,447.1133,1047,451.1133,1051,447.1133" style="stroke:#181818;stroke-width:1.0;"/><line style="stroke:#181818;stroke-width:1.0;" x1="730" x2="1053" y1="447.1133" y2="447.1133"/><text fill="#000000" font-family="sans-serif" font-size="13" lengthAdjust="spacing" textLength="145" x="737" y="441.8506">compare_paint_and_task</text><polygon fill="#181818" points="741,474.4043,731,478.4043,741,482.4043,737,478.4043" style="stroke:#181818;stroke-width:1.0;"/><line style="stroke:#181818;stroke-width:1.0;stroke-dasharray:2.0,2.0;" x1="735" x2="1063" y1="478.4043" y2="478.4043"/><text fill="#000000" font-family="sans-serif" font-size="13" lengthAdjust="spacing" textLength="305" x="747" y="473.1416">&#1041;&#1099;&#1083;&#1086; &#1086;&#1087;&#1088;&#1077;&#1076;&#1077;&#1083;&#1077;&#1085;&#1086; &#1089;&#1086;&#1086;&#1090;&#1074;&#1077;&#1090;&#1089;&#1090;&#1074;&#1080;&#1077; &#1079;&#1072;&#1076;&#1072;&#1085;&#1080;&#1103; &#1080; &#1088;&#1080;&#1089;&#1091;&#1085;&#1082;&#1072;</text><polygon fill="#181818" points="226.5,505.6953,216.5,509.6953,226.5,513.6953,222.5,509.6953" style="stroke:#181818;stroke-width:1.0;"/><line style="stroke:#181818;stroke-width:1.0;stroke-dasharray:2.0,2.0;" x1="220.5" x2="724" y1="509.6953" y2="509.6953"/><text fill="#000000" font-family="sans-serif" font-size="13" lengthAdjust="spacing" textLength="262" x="232.5" y="504.4326">&#1056;&#1080;&#1089;&#1091;&#1085;&#1086;&#1082; &#1076;&#1083;&#1103; &#1074;&#1099;&#1073;&#1088;&#1072;&#1085;&#1085;&#1086;&#1075;&#1086; &#1079;&#1072;&#1076;&#1072;&#1085;&#1080;&#1103; &#1079;&#1072;&#1075;&#1088;&#1091;&#1078;&#1077;&#1085;</text><polygon fill="#181818" points="708,536.9863,718,540.9863,708,544.9863,712,540.9863" style="stroke:#181818;stroke-width:1.0;"/><line style="stroke:#181818;stroke-width:1.0;" x1="215.5" x2="714" y1="540.9863" y2="540.9863"/><text fill="#000000" font-family="sans-serif" font-size="13" lengthAdjust="spacing" textLength="131" x="222.5" y="535.7236">checked_works_dialog</text><polygon fill="#181818" points="226.5,568.2773,216.5,572.2773,226.5,576.2773,222.5,572.2773" style="stroke:#181818;stroke-width:1.0;"/><line style="stroke:#181818;stroke-width:1.0;stroke-dasharray:2.0,2.0;" x1="220.5" x2="724" y1="572.2773" y2="572.2773"/><text fill="#000000" font-family="sans-serif" font-size="13" lengthAdjust="spacing" textLength="343" x="232.5" y="567.0146">&#1057;&#1090;&#1091;&#1076;&#1077;&#1085;&#1090; &#1080;&#1089;&#1087;&#1088;&#1072;&#1074;&#1083;&#1103;&#1077;&#1090; &#1086;&#1090;&#1087;&#1088;&#1072;&#1074;&#1083;&#1077;&#1085;&#1085;&#1099;&#1077; &#1085;&#1072; &#1076;&#1086;&#1088;&#1072;&#1073;&#1086;&#1090;&#1082;&#1091; &#1088;&#1080;&#1089;&#1091;&#1085;&#1082;&#1080;</text><polygon fill="#181818" points="368.5,599.5684,378.5,603.5684,368.5,607.5684,372.5,603.5684" style="stroke:#181818;stroke-width:1.0;"/><line style="stroke:#181818;stroke-width:1.0;" x1="215.5" x2="374.5" y1="603.5684" y2="603.5684"/><text fill="#000000" font-family="sans-serif" font-size="13" lengthAdjust="spacing" textLength="85" x="222.5" y="598.3057">save_on_close</text><polygon fill="#181818" points="226.5,630.8594,216.5,634.8594,226.5,638.8594,222.5,634.8594" style="stroke:#181818;stroke-width:1.0;"/><line style="stroke:#181818;stroke-width:1.0;stroke-dasharray:2.0,2.0;" x1="220.5" x2="384.5" y1="634.8594" y2="634.8594"/><text fill="#000000" font-family="sans-serif" font-size="13" lengthAdjust="spacing" textLength="141" x="232.5" y="629.5967">&#1055;&#1088;&#1080;&#1083;&#1086;&#1078;&#1077;&#1085;&#1080;&#1077; &#1089;&#1086;&#1093;&#1088;&#1072;&#1085;&#1077;&#1085;&#1086;</text><polygon fill="#181818" points="43.5,662.1504,33.5,666.1504,43.5,670.1504,39.5,666.1504" style="stroke:#181818;stroke-width:1.0;"/><line style="stroke:#181818;stroke-width:1.0;" x1="37.5" x2="209.5" y1="666.1504" y2="666.1504"/><text fill="#000000" font-family="sans-serif" font-size="13" lengthAdjust="spacing" textLength="144" x="49.5" y="660.8877">&#1079;&#1072;&#1074;&#1077;&#1088;&#1096;&#1077;&#1085;&#1080;&#1077; &#1087;&#1088;&#1086;&#1075;&#1088;&#1072;&#1084;&#1084;&#1099;</text><!--SRC=[dPHHRjD048RVVOgzG2uG8LvuZbGfy8PahUnjiehh3RPJ14-jBIIaLa8S01LkuAO9c3Xrhp1x8sRMSRos2GXUlDxnxFYRcN-7UucAs3HP-I9C7Eubyf8ducWuh6pqd4su3CSCVa0EJphJrpg5GgVwbk7s2Yfum6SEUzZhh8r3XnnwK8GNAZoNCtmcaGe24OsP36KYUI3VY_P8tylf6zYefVa2EP4OW9-mWw86H1QTmNVOmgE-SNnnEdZ3zYeMqOI7V4PONYJGsLsXpVMHJysOYbw7p9ih5NViBROLmB7URTWxX2prBH9Mi4Rm5FbAAk1Qty2zAT-Z3Mk7R3XVydZHSjOy2Te6F9QZOxtRFD-mS1biJ9LIPDftIA2gQxancmAsDfeTlK4xmpNfrt19nW6SxUhO6zEAKBvPYQdWaJUVA5y4OtOkGz_rLyj0UdWyjghUztK65fDnbmtkZ63MiCKLisUOO8uwXfAqWxbYRpgD6FobppoL5pBWaKpU7OWzTR7aKPC_HtpgadN1kWUStlvtq9-nDoLrfJ8tRciwLn8_6lKrcYji8oMLcjkvfgPrUgW_CRmXUBP0XmmjEyZjFFjGtInRuNmz1gXWnp1wIP5jxT2NXvw2oATtEUsVTpHnGbDpuIs4xxvLqIB-5r6Tq3oZF4mnSwmM9a6rOwQCHwEfBquHAgLHoGQ_qxTxuxVJMRUWnLzp6ex1c5yALuMk5-1r_iz9I98kI1zrPKtlIHJwmw4bHYT_d8NDi7ysieUzkINwup7eODnt1gmP-BQawfY_0000]--></g></svg>