<?xml version="1.0" encoding="us-ascii" standalone="no"?><svg xmlns="http://www.w3.org/2000/svg" xmlns:xlink="http://www.w3.org/1999/xlink" contentStyleType="text/css" height="642px" preserveAspectRatio="none" style="width:784px;height:642px;background:#FFFFFF;" version="1.1" viewBox="0 0 784 642" width="784px" zoomAndPan="magnify"><defs/><g><rect fill="#FFFFFF" height="447.3652" style="stroke:#181818;stroke-width:1.0;" width="10" x="29.5" y="93.6211"/><rect fill="#FFFFFF" height="424.0742" style="stroke:#181818;stroke-width:1.0;" width="10" x="207.5" y="116.9121"/><rect fill="#FFFFFF" height="31.291" style="stroke:#181818;stroke-width:1.0;" width="10" x="382.5" y="148.2031"/><rect fill="#FFFFFF" height="31.291" style="stroke:#181818;stroke-width:1.0;" width="10" x="382.5" y="478.4043"/><rect fill="#FFFFFF" height="31.291" style="stroke:#181818;stroke-width:1.0;" width="10" x="500.5" y="228.0762"/><rect fill="#FFFFFF" height="31.291" style="stroke:#181818;stroke-width:1.0;" width="10" x="610.5" y="290.6582"/><rect fill="#FFFFFF" height="31.291" style="stroke:#181818;stroke-width:1.0;" width="10" x="722" y="353.2402"/><rect fill="#FFFFFF" height="31.291" style="stroke:#181818;stroke-width:1.0;" width="10" x="722" y="415.8223"/><line style="stroke:#181818;stroke-width:0.5;stroke-dasharray:5.0,5.0;" x1="34" x2="34" y1="83.6211" y2="558.9863"/><line style="stroke:#181818;stroke-width:0.5;stroke-dasharray:5.0,5.0;" x1="212.5" x2="212.5" y1="83.6211" y2="558.9863"/><line style="stroke:#181818;stroke-width:0.5;stroke-dasharray:5.0,5.0;" x1="387" x2="387" y1="83.6211" y2="558.9863"/><line style="stroke:#181818;stroke-width:0.5;stroke-dasharray:5.0,5.0;" x1="505" x2="505" y1="83.6211" y2="558.9863"/><line style="stroke:#181818;stroke-width:0.5;stroke-dasharray:5.0,5.0;" x1="615" x2="615" y1="83.6211" y2="558.9863"/><line style="stroke:#181818;stroke-width:0.5;stroke-dasharray:5.0,5.0;" x1="727" x2="727" y1="83.6211" y2="558.9863"/><text fill="#000000" font-family="sans-serif" font-size="14" lengthAdjust="spacing" textLength="53" x="5" y="80.1074">Teacher</text><ellipse cx="34.5" cy="13.5" fill="#E2E2F0" rx="8" ry="8" style="stroke:#181818;stroke-width:0.5;"/><path d="M34.5,21.5 L34.5,48.5 M21.5,29.5 L47.5,29.5 M34.5,48.5 L21.5,63.5 M34.5,48.5 L47.5,63.5 " fill="none" style="stroke:#181818;stroke-width:0.5;"/><text fill="#000000" font-family="sans-serif" font-size="14" lengthAdjust="spacing" textLength="53" x="5" y="573.0938">Teacher</text><ellipse cx="34.5" cy="585.1074" fill="#E2E2F0" rx="8" ry="8" style="stroke:#181818;stroke-width:0.5;"/><path d="M34.5,593.1074 L34.5,620.1074 M21.5,601.1074 L47.5,601.1074 M34.5,620.1074 L21.5,635.1074 M34.5,620.1074 L47.5,635.1074 " fill="none" style="stroke:#181818;stroke-width:0.5;"/><rect fill="#E2E2F0" height="32.6211" rx="2.5" ry="2.5" style="stroke:#181818;stroke-width:0.5;" width="44" x="190.5" y="50"/><text fill="#000000" font-family="sans-serif" font-size="14" lengthAdjust="spacing" textLength="30" x="197.5" y="72.1074">Main</text><rect fill="#E2E2F0" height="32.6211" rx="2.5" ry="2.5" style="stroke:#181818;stroke-width:0.5;" width="44" x="190.5" y="557.9863"/><text fill="#000000" font-family="sans-serif" font-size="14" lengthAdjust="spacing" textLength="30" x="197.5" y="580.0938">Main</text><rect fill="#E2E2F0" height="32.6211" rx="2.5" ry="2.5" style="stroke:#181818;stroke-width:0.5;" width="117" x="329" y="50"/><text fill="#000000" font-family="sans-serif" font-size="14" lengthAdjust="spacing" textLength="103" x="336" y="72.1074">ConfigController</text><rect fill="#E2E2F0" height="32.6211" rx="2.5" ry="2.5" style="stroke:#181818;stroke-width:0.5;" width="117" x="329" y="557.9863"/><text fill="#000000" font-family="sans-serif" font-size="14" lengthAdjust="spacing" textLength="103" x="336" y="580.0938">ConfigController</text><rect fill="#E2E2F0" height="32.6211" rx="2.5" ry="2.5" style="stroke:#181818;stroke-width:0.5;" width="99" x="456" y="50"/><text fill="#000000" font-family="sans-serif" font-size="14" lengthAdjust="spacing" textLength="85" x="463" y="72.1074">UserManager</text><rect fill="#E2E2F0" height="32.6211" rx="2.5" ry="2.5" style="stroke:#181818;stroke-width:0.5;" width="99" x="456" y="557.9863"/><text fill="#000000" font-family="sans-serif" font-size="14" lengthAdjust="spacing" textLength="85" x="463" y="580.0938">UserManager</text><rect fill="#E2E2F0" height="32.6211" rx="2.5" ry="2.5" style="stroke:#181818;stroke-width:0.5;" width="101" x="565" y="50"/><text fill="#000000" font-family="sans-serif" font-size="14" lengthAdjust="spacing" textLength="87" x="572" y="72.1074">TaskManager</text><rect fill="#E2E2F0" height="32.6211" rx="2.5" ry="2.5" style="stroke:#181818;stroke-width:0.5;" width="101" x="565" y="557.9863"/><text fill="#000000" font-family="sans-serif" font-size="14" lengthAdjust="spacing" textLength="87" x="572" y="580.0938">TaskManager</text><rect fill="#E2E2F0" height="32.6211" rx="2.5" ry="2.5" style="stroke:#181818;stroke-width:0.5;" width="102" x="676" y="50"/><text fill="#000000" font-family="sans-serif" font-size="14" lengthAdjust="spacing" textLength="88" x="683" y="72.1074">PaintManager</text><rect fill="#E2E2F0" height="32.6211" rx="2.5" ry="2.5" style="stroke:#181818;stroke-width:0.5;" width="102" x="676" y="557.9863"/><text fill="#000000" font-family="sans-serif" font-size="14" lengthAdjust="spacing" textLength="88" x="683" y="580.0938">PaintManager</text><rect fill="#FFFFFF" height="447.3652" style="stroke:#181818;stroke-width:1.0;" width="10" x="29.5" y="93.6211"/><rect fill="#FFFFFF" height="424.0742" style="stroke:#181818;stroke-width:1.0;" width="10" x="207.5" y="116.9121"/><rect fill="#FFFFFF" height="31.291" style="stroke:#181818;stroke-width:1.0;" width="10" x="382.5" y="148.2031"/><rect fill="#FFFFFF" height="31.291" style="stroke:#181818;stroke-width:1.0;" width="10" x="382.5" y="478.4043"/><rect fill="#FFFFFF" height="31.291" style="stroke:#181818;stroke-width:1.0;" width="10" x="500.5" y="228.0762"/><rect fill="#FFFFFF" height="31.291" style="stroke:#181818;stroke-width:1.0;" width="10" x="610.5" y="290.6582"/><rect fill="#FFFFFF" height="31.291" style="stroke:#181818;stroke-width:1.0;" width="10" x="722" y="353.2402"/><rect fill="#FFFFFF" height="31.291" style="stroke:#181818;stroke-width:1.0;" width="10" x="722" y="415.8223"/><polygon fill="#181818" points="195.5,112.9121,205.5,116.9121,195.5,120.9121,199.5,116.9121" style="stroke:#181818;stroke-width:1.0;"/><line style="stroke:#181818;stroke-width:1.0;" x1="39.5" x2="201.5" y1="116.9121" y2="116.9121"/><text fill="#000000" font-family="sans-serif" font-size="13" lengthAdjust="spacing" textLength="127" x="46.5" y="111.6494">&#1079;&#1072;&#1087;&#1091;&#1089;&#1090;&#1080;&#1090;&#1100; &#1087;&#1088;&#1086;&#1075;&#1088;&#1072;&#1084;&#1084;&#1091;</text><polygon fill="#181818" points="370.5,144.2031,380.5,148.2031,370.5,152.2031,374.5,148.2031" style="stroke:#181818;stroke-width:1.0;"/><line style="stroke:#181818;stroke-width:1.0;" x1="217.5" x2="376.5" y1="148.2031" y2="148.2031"/><text fill="#000000" font-family="sans-serif" font-size="13" lengthAdjust="spacing" textLength="47" x="224.5" y="142.9404">initialize</text><polygon fill="#181818" points="228.5,175.4941,218.5,179.4941,228.5,183.4941,224.5,179.4941" style="stroke:#181818;stroke-width:1.0;"/><line style="stroke:#181818;stroke-width:1.0;stroke-dasharray:2.0,2.0;" x1="222.5" x2="386.5" y1="179.4941" y2="179.4941"/><text fill="#000000" font-family="sans-serif" font-size="13" lengthAdjust="spacing" textLength="130" x="234.5" y="174.2314">&#1053;&#1072;&#1089;&#1090;&#1088;&#1086;&#1081;&#1082;&#1080; &#1079;&#1072;&#1075;&#1088;&#1091;&#1078;&#1077;&#1085;&#1099;</text><polygon fill="#181818" points="488.5,224.0762,498.5,228.0762,488.5,232.0762,492.5,228.0762" style="stroke:#181818;stroke-width:1.0;"/><line style="stroke:#181818;stroke-width:1.0;" x1="217.5" x2="494.5" y1="228.0762" y2="228.0762"/><text fill="#000000" font-family="sans-serif" font-size="13" lengthAdjust="spacing" textLength="124" x="224.5" y="205.5225">create_user_dialog or</text><text fill="#000000" font-family="sans-serif" font-size="13" lengthAdjust="spacing" textLength="115" x="228.5" y="222.8135">choose_user_dialog</text><polygon fill="#181818" points="228.5,255.3672,218.5,259.3672,228.5,263.3672,224.5,259.3672" style="stroke:#181818;stroke-width:1.0;"/><line style="stroke:#181818;stroke-width:1.0;stroke-dasharray:2.0,2.0;" x1="222.5" x2="504.5" y1="259.3672" y2="259.3672"/><text fill="#000000" font-family="sans-serif" font-size="13" lengthAdjust="spacing" textLength="131" x="234.5" y="254.1045">&#1055;&#1086;&#1083;&#1100;&#1079;&#1086;&#1074;&#1072;&#1090;&#1077;&#1083;&#1100; &#1074;&#1099;&#1073;&#1088;&#1072;&#1085;</text><polygon fill="#181818" points="598.5,286.6582,608.5,290.6582,598.5,294.6582,602.5,290.6582" style="stroke:#181818;stroke-width:1.0;"/><line style="stroke:#181818;stroke-width:1.0;" x1="217.5" x2="604.5" y1="290.6582" y2="290.6582"/><text fill="#000000" font-family="sans-serif" font-size="13" lengthAdjust="spacing" textLength="109" x="224.5" y="285.3955">create_task_dialog</text><polygon fill="#181818" points="228.5,317.9492,218.5,321.9492,228.5,325.9492,224.5,321.9492" style="stroke:#181818;stroke-width:1.0;"/><line style="stroke:#181818;stroke-width:1.0;stroke-dasharray:2.0,2.0;" x1="222.5" x2="614.5" y1="321.9492" y2="321.9492"/><text fill="#000000" font-family="sans-serif" font-size="13" lengthAdjust="spacing" textLength="207" x="234.5" y="316.6865">&#1055;&#1088;&#1077;&#1087;&#1086;&#1076;&#1072;&#1074;&#1072;&#1090;&#1077;&#1083;&#1077;&#1084; &#1089;&#1086;&#1079;&#1076;&#1072;&#1085;&#1086; &#1079;&#1072;&#1076;&#1072;&#1085;&#1080;&#1077;</text><polygon fill="#181818" points="710,349.2402,720,353.2402,710,357.2402,714,353.2402" style="stroke:#181818;stroke-width:1.0;"/><line style="stroke:#181818;stroke-width:1.0;" x1="217.5" x2="716" y1="353.2402" y2="353.2402"/><text fill="#000000" font-family="sans-serif" font-size="13" lengthAdjust="spacing" textLength="140" x="224.5" y="347.9775">get_not_checked_works</text><polygon fill="#181818" points="228.5,380.5313,218.5,384.5313,228.5,388.5313,224.5,384.5313" style="stroke:#181818;stroke-width:1.0;"/><line style="stroke:#181818;stroke-width:1.0;stroke-dasharray:2.0,2.0;" x1="222.5" x2="726" y1="384.5313" y2="384.5313"/><text fill="#000000" font-family="sans-serif" font-size="13" lengthAdjust="spacing" textLength="238" x="234.5" y="379.2686">&#1057;&#1087;&#1080;&#1089;&#1086;&#1082; &#1088;&#1080;&#1089;&#1091;&#1085;&#1082;&#1086;&#1074;, &#1090;&#1088;&#1077;&#1073;&#1091;&#1102;&#1097;&#1080;&#1093; &#1087;&#1088;&#1086;&#1074;&#1077;&#1088;&#1082;&#1091;</text><polygon fill="#181818" points="710,411.8223,720,415.8223,710,419.8223,714,415.8223" style="stroke:#181818;stroke-width:1.0;"/><line style="stroke:#181818;stroke-width:1.0;" x1="217.5" x2="716" y1="415.8223" y2="415.8223"/><text fill="#000000" font-family="sans-serif" font-size="13" lengthAdjust="spacing" textLength="110" x="224.5" y="410.5596">check_work_dialog</text><polygon fill="#181818" points="228.5,443.1133,218.5,447.1133,228.5,451.1133,224.5,447.1133" style="stroke:#181818;stroke-width:1.0;"/><line style="stroke:#181818;stroke-width:1.0;stroke-dasharray:2.0,2.0;" x1="222.5" x2="726" y1="447.1133" y2="447.1133"/><text fill="#000000" font-family="sans-serif" font-size="13" lengthAdjust="spacing" textLength="213" x="234.5" y="441.8506">&#1055;&#1088;&#1077;&#1087;&#1086;&#1076;&#1072;&#1074;&#1072;&#1090;&#1077;&#1083;&#1077;&#1084; &#1087;&#1088;&#1086;&#1074;&#1077;&#1088;&#1077;&#1085; &#1088;&#1080;&#1089;&#1091;&#1085;&#1086;&#1082;</text><polygon fill="#181818" points="370.5,474.4043,380.5,478.4043,370.5,482.4043,374.5,478.4043" style="stroke:#181818;stroke-width:1.0;"/><line style="stroke:#181818;stroke-width:1.0;" x1="217.5" x2="376.5" y1="478.4043" y2="478.4043"/><text fill="#000000" font-family="sans-serif" font-size="13" lengthAdjust="spacing" textLength="85" x="224.5" y="473.1416">save_on_close</text><polygon fill="#181818" points="228.5,505.6953,218.5,509.6953,228.5,513.6953,224.5,509.6953" style="stroke:#181818;stroke-width:1.0;"/><line style="stroke:#181818;stroke-width:1.0;stroke-dasharray:2.0,2.0;" x1="222.5" x2="386.5" y1="509.6953" y2="509.6953"/><text fill="#000000" font-family="sans-serif" font-size="13" lengthAdjust="spacing" textLength="141" x="234.5" y="504.4326">&#1055;&#1088;&#1080;&#1083;&#1086;&#1078;&#1077;&#1085;&#1080;&#1077; &#1089;&#1086;&#1093;&#1088;&#1072;&#1085;&#1077;&#1085;&#1086;</text><polygon fill="#181818" points="45.5,536.9863,35.5,540.9863,45.5,544.9863,41.5,540.9863" style="stroke:#181818;stroke-width:1.0;"/><line style="stroke:#181818;stroke-width:1.0;" x1="39.5" x2="211.5" y1="540.9863" y2="540.9863"/><text fill="#000000" font-family="sans-serif" font-size="13" lengthAdjust="spacing" textLength="144" x="51.5" y="535.7236">&#1079;&#1072;&#1074;&#1077;&#1088;&#1096;&#1077;&#1085;&#1080;&#1077; &#1087;&#1088;&#1086;&#1075;&#1088;&#1072;&#1084;&#1084;&#1099;</text><!--SRC=[dPHBJiCm48RtEOKFG2zG8JQiAx4eEwJ8IaqRjOgbn834YhQg16h53H3Y1gKG6le8LnZVY3yEQPmM2c8HFoRZyUVnF-QUaY5h2kvrHEXmJ_cNN8cDuQjdjIFMu7vGPpIdANteeUxh0ILwe2SCqnjAwGNjb5QqqiCoJhR8oPeimh4CplqsMXNANa-4TUO7ll9vpxyMvP9jBsVRm6ebpGDDCn83y4uBId90iEWXlL5CQprsMkBdu0NRQIJ21WzuEyFoGW5dzm8sjmK-sMOoF0kOrv4ogjXBR2k0Ourjs4T0BlK4X2dD03u0tp9Bu4oFwTcaRst3sY4BpYQFkjkS2hOT7ilHiSOL7cmPqmTeNh7rXWZVYka-p7FpOqrfdjLyab1iGzhx590dwDM6iYsK6qZbGaXULxJSAnbsenBKTdRiYOtw1Cp4C2qOg374_QvnuSZa0JC2Y972eRxNT_WxAaGvenZz0fAqa2ixViziM0tfJcB_nBiljHKqADG-4CxtA-bk6KNyKhWoSBqUvFdFIig84n2cUTbarsn4e4UvC8qntLjBnMDnMBCV2tDEVRi9klDSL0hKF1YslFAOdm00]--></g></svg>