<?xml version="1.0" encoding="us-ascii" standalone="no"?><svg xmlns="http://www.w3.org/2000/svg" xmlns:xlink="http://www.w3.org/1999/xlink" contentStyleType="text/css" height="935px" preserveAspectRatio="none" style="width:945px;height:935px;background:#FFFFFF;" version="1.1" viewBox="0 0 945 935" width="945px" zoomAndPan="magnify"><defs/><g><rect fill="none" height="81.873" style="stroke:#000000;stroke-width:1.5;" width="485.5" x="10" y="198.0762"/><rect fill="none" height="269.6191" style="stroke:#000000;stroke-width:1.5;" width="929.5" x="10" y="293.9492"/><rect fill="none" height="144.4551" style="stroke:#000000;stroke-width:1.5;" width="597.5" x="10" y="577.5684"/><rect fill="none" height="81.873" style="stroke:#000000;stroke-width:1.5;" width="597.5" x="10" y="736.0234"/><line style="stroke:#181818;stroke-width:0.5;stroke-dasharray:5.0,5.0;" x1="42" x2="42" y1="38.6211" y2="897.4785"/><line style="stroke:#181818;stroke-width:0.5;stroke-dasharray:5.0,5.0;" x1="206.5" x2="206.5" y1="38.6211" y2="897.4785"/><line style="stroke:#181818;stroke-width:0.5;stroke-dasharray:5.0,5.0;" x1="324.5" x2="324.5" y1="38.6211" y2="897.4785"/><line style="stroke:#181818;stroke-width:0.5;stroke-dasharray:5.0,5.0;" x1="434.5" x2="434.5" y1="38.6211" y2="897.4785"/><line style="stroke:#181818;stroke-width:0.5;stroke-dasharray:5.0,5.0;" x1="546.5" x2="546.5" y1="38.6211" y2="897.4785"/><line style="stroke:#181818;stroke-width:0.5;stroke-dasharray:5.0,5.0;" x1="695" x2="695" y1="38.6211" y2="897.4785"/><line style="stroke:#181818;stroke-width:0.5;stroke-dasharray:5.0,5.0;" x1="875.5" x2="875.5" y1="38.6211" y2="897.4785"/><rect fill="#E2E2F0" height="32.6211" rx="2.5" ry="2.5" style="stroke:#181818;stroke-width:0.5;" width="44" x="20" y="5"/><text fill="#000000" font-family="sans-serif" font-size="14" lengthAdjust="spacing" textLength="30" x="27" y="27.1074">Main</text><rect fill="#E2E2F0" height="32.6211" rx="2.5" ry="2.5" style="stroke:#181818;stroke-width:0.5;" width="44" x="20" y="896.4785"/><text fill="#000000" font-family="sans-serif" font-size="14" lengthAdjust="spacing" textLength="30" x="27" y="918.5859">Main</text><rect fill="#E2E2F0" height="32.6211" rx="2.5" ry="2.5" style="stroke:#181818;stroke-width:0.5;" width="117" x="148.5" y="5"/><text fill="#000000" font-family="sans-serif" font-size="14" lengthAdjust="spacing" textLength="103" x="155.5" y="27.1074">ConfigController</text><rect fill="#E2E2F0" height="32.6211" rx="2.5" ry="2.5" style="stroke:#181818;stroke-width:0.5;" width="117" x="148.5" y="896.4785"/><text fill="#000000" font-family="sans-serif" font-size="14" lengthAdjust="spacing" textLength="103" x="155.5" y="918.5859">ConfigController</text><rect fill="#E2E2F0" height="32.6211" rx="2.5" ry="2.5" style="stroke:#181818;stroke-width:0.5;" width="99" x="275.5" y="5"/><text fill="#000000" font-family="sans-serif" font-size="14" lengthAdjust="spacing" textLength="85" x="282.5" y="27.1074">UserManager</text><rect fill="#E2E2F0" height="32.6211" rx="2.5" ry="2.5" style="stroke:#181818;stroke-width:0.5;" width="99" x="275.5" y="896.4785"/><text fill="#000000" font-family="sans-serif" font-size="14" lengthAdjust="spacing" textLength="85" x="282.5" y="918.5859">UserManager</text><rect fill="#E2E2F0" height="32.6211" rx="2.5" ry="2.5" style="stroke:#181818;stroke-width:0.5;" width="101" x="384.5" y="5"/><text fill="#000000" font-family="sans-serif" font-size="14" lengthAdjust="spacing" textLength="87" x="391.5" y="27.1074">TaskManager</text><rect fill="#E2E2F0" height="32.6211" rx="2.5" ry="2.5" style="stroke:#181818;stroke-width:0.5;" width="101" x="384.5" y="896.4785"/><text fill="#000000" font-family="sans-serif" font-size="14" lengthAdjust="spacing" textLength="87" x="391.5" y="918.5859">TaskManager</text><rect fill="#E2E2F0" height="32.6211" rx="2.5" ry="2.5" style="stroke:#181818;stroke-width:0.5;" width="102" x="495.5" y="5"/><text fill="#000000" font-family="sans-serif" font-size="14" lengthAdjust="spacing" textLength="88" x="502.5" y="27.1074">PaintManager</text><rect fill="#E2E2F0" height="32.6211" rx="2.5" ry="2.5" style="stroke:#181818;stroke-width:0.5;" width="102" x="495.5" y="896.4785"/><text fill="#000000" font-family="sans-serif" font-size="14" lengthAdjust="spacing" textLength="88" x="502.5" y="918.5859">PaintManager</text><rect fill="#E2E2F0" height="32.6211" rx="2.5" ry="2.5" style="stroke:#181818;stroke-width:0.5;" width="141" x="625" y="5"/><text fill="#000000" font-family="sans-serif" font-size="14" lengthAdjust="spacing" textLength="127" x="632" y="27.1074">UniqueSearchModel</text><rect fill="#E2E2F0" height="32.6211" rx="2.5" ry="2.5" style="stroke:#181818;stroke-width:0.5;" width="141" x="625" y="896.4785"/><text fill="#000000" font-family="sans-serif" font-size="14" lengthAdjust="spacing" textLength="127" x="632" y="918.5859">UniqueSearchModel</text><rect fill="#E2E2F0" height="32.6211" rx="2.5" ry="2.5" style="stroke:#181818;stroke-width:0.5;" width="108" x="821.5" y="5"/><text fill="#000000" font-family="sans-serif" font-size="14" lengthAdjust="spacing" textLength="94" x="828.5" y="27.1074">SimilarityModel</text><rect fill="#E2E2F0" height="32.6211" rx="2.5" ry="2.5" style="stroke:#181818;stroke-width:0.5;" width="108" x="821.5" y="896.4785"/><text fill="#000000" font-family="sans-serif" font-size="14" lengthAdjust="spacing" textLength="94" x="828.5" y="918.5859">SimilarityModel</text><polygon fill="#181818" points="195,67.9121,205,71.9121,195,75.9121,199,71.9121" style="stroke:#181818;stroke-width:1.0;"/><line style="stroke:#181818;stroke-width:1.0;" x1="42" x2="201" y1="71.9121" y2="71.9121"/><text fill="#000000" font-family="sans-serif" font-size="13" lengthAdjust="spacing" textLength="47" x="49" y="66.6494">initialize</text><polygon fill="#181818" points="53,99.2031,43,103.2031,53,107.2031,49,103.2031" style="stroke:#181818;stroke-width:1.0;"/><line style="stroke:#181818;stroke-width:1.0;stroke-dasharray:2.0,2.0;" x1="47" x2="206" y1="103.2031" y2="103.2031"/><text fill="#000000" font-family="sans-serif" font-size="13" lengthAdjust="spacing" textLength="130" x="59" y="97.9404">&#1053;&#1072;&#1089;&#1090;&#1088;&#1086;&#1081;&#1082;&#1080; &#1079;&#1072;&#1075;&#1088;&#1091;&#1078;&#1077;&#1085;&#1099;</text><polygon fill="#181818" points="313,147.7852,323,151.7852,313,155.7852,317,151.7852" style="stroke:#181818;stroke-width:1.0;"/><line style="stroke:#181818;stroke-width:1.0;" x1="42" x2="319" y1="151.7852" y2="151.7852"/><text fill="#000000" font-family="sans-serif" font-size="13" lengthAdjust="spacing" textLength="124" x="49" y="129.2314">create_user_dialog or</text><text fill="#000000" font-family="sans-serif" font-size="13" lengthAdjust="spacing" textLength="115" x="53" y="146.5225">choose_user_dialog</text><polygon fill="#181818" points="53,179.0762,43,183.0762,53,187.0762,49,183.0762" style="stroke:#181818;stroke-width:1.0;"/><line style="stroke:#181818;stroke-width:1.0;stroke-dasharray:2.0,2.0;" x1="47" x2="324" y1="183.0762" y2="183.0762"/><text fill="#000000" font-family="sans-serif" font-size="13" lengthAdjust="spacing" textLength="131" x="59" y="177.8135">&#1055;&#1086;&#1083;&#1100;&#1079;&#1086;&#1074;&#1072;&#1090;&#1077;&#1083;&#1100; &#1074;&#1099;&#1073;&#1088;&#1072;&#1085;</text><path d="M10,198.0762 L71,198.0762 L71,207.3672 L61,217.3672 L10,217.3672 L10,198.0762 " fill="#EEEEEE" style="stroke:#000000;stroke-width:1.5;"/><rect fill="none" height="81.873" style="stroke:#000000;stroke-width:1.5;" width="485.5" x="10" y="198.0762"/><text fill="#000000" font-family="sans-serif" font-size="13" font-weight="bold" lengthAdjust="spacing" textLength="16" x="25" y="213.1045">alt</text><text fill="#000000" font-family="sans-serif" font-size="11" font-weight="bold" lengthAdjust="spacing" textLength="95" x="86" y="211.9463">[User is Teacher]</text><polygon fill="#181818" points="423,236.6582,433,240.6582,423,244.6582,427,240.6582" style="stroke:#181818;stroke-width:1.0;"/><line style="stroke:#181818;stroke-width:1.0;" x1="42" x2="429" y1="240.6582" y2="240.6582"/><text fill="#000000" font-family="sans-serif" font-size="13" lengthAdjust="spacing" textLength="109" x="49" y="235.3955">create_task_dialog</text><polygon fill="#181818" points="53,267.9492,43,271.9492,53,275.9492,49,271.9492" style="stroke:#181818;stroke-width:1.0;"/><line style="stroke:#181818;stroke-width:1.0;stroke-dasharray:2.0,2.0;" x1="47" x2="434" y1="271.9492" y2="271.9492"/><text fill="#000000" font-family="sans-serif" font-size="13" lengthAdjust="spacing" textLength="207" x="59" y="266.6865">&#1055;&#1088;&#1077;&#1087;&#1086;&#1076;&#1072;&#1074;&#1072;&#1090;&#1077;&#1083;&#1077;&#1084; &#1089;&#1086;&#1079;&#1076;&#1072;&#1085;&#1086; &#1079;&#1072;&#1076;&#1072;&#1085;&#1080;&#1077;</text><path d="M10,293.9492 L71,293.9492 L71,303.2402 L61,313.2402 L10,313.2402 L10,293.9492 " fill="#EEEEEE" style="stroke:#000000;stroke-width:1.5;"/><rect fill="none" height="269.6191" style="stroke:#000000;stroke-width:1.5;" width="929.5" x="10" y="293.9492"/><text fill="#000000" font-family="sans-serif" font-size="13" font-weight="bold" lengthAdjust="spacing" textLength="16" x="25" y="308.9775">alt</text><text fill="#000000" font-family="sans-serif" font-size="11" font-weight="bold" lengthAdjust="spacing" textLength="93" x="86" y="307.8193">[User is Student]</text><polygon fill="#181818" points="423,332.5313,433,336.5313,423,340.5313,427,336.5313" style="stroke:#181818;stroke-width:1.0;"/><line style="stroke:#181818;stroke-width:1.0;" x1="42" x2="429" y1="336.5313" y2="336.5313"/><text fill="#000000" font-family="sans-serif" font-size="13" lengthAdjust="spacing" textLength="115" x="49" y="331.2686">choose_task_dialog</text><polygon fill="#181818" points="53,363.8223,43,367.8223,53,371.8223,49,367.8223" style="stroke:#181818;stroke-width:1.0;"/><line style="stroke:#181818;stroke-width:1.0;stroke-dasharray:2.0,2.0;" x1="47" x2="434" y1="367.8223" y2="367.8223"/><text fill="#000000" font-family="sans-serif" font-size="13" lengthAdjust="spacing" textLength="172" x="59" y="362.5596">&#1057;&#1090;&#1091;&#1076;&#1077;&#1085;&#1090;&#1086;&#1084; &#1074;&#1099;&#1073;&#1088;&#1072;&#1085;&#1086; &#1079;&#1072;&#1076;&#1072;&#1085;&#1080;&#1077;</text><polygon fill="#181818" points="534.5,395.1133,544.5,399.1133,534.5,403.1133,538.5,399.1133" style="stroke:#181818;stroke-width:1.0;"/><line style="stroke:#181818;stroke-width:1.0;" x1="42" x2="540.5" y1="399.1133" y2="399.1133"/><text fill="#000000" font-family="sans-serif" font-size="13" lengthAdjust="spacing" textLength="112" x="49" y="393.8506">create_paint_dialog</text><polygon fill="#181818" points="683.5,426.4043,693.5,430.4043,683.5,434.4043,687.5,430.4043" style="stroke:#181818;stroke-width:1.0;"/><line style="stroke:#181818;stroke-width:1.0;" x1="546.5" x2="689.5" y1="430.4043" y2="430.4043"/><text fill="#000000" font-family="sans-serif" font-size="13" lengthAdjust="spacing" textLength="86" x="553.5" y="425.1416">find_duplicates</text><polygon fill="#181818" points="557.5,457.6953,547.5,461.6953,557.5,465.6953,553.5,461.6953" style="stroke:#181818;stroke-width:1.0;"/><line style="stroke:#181818;stroke-width:1.0;stroke-dasharray:2.0,2.0;" x1="551.5" x2="694.5" y1="461.6953" y2="461.6953"/><text fill="#000000" font-family="sans-serif" font-size="13" lengthAdjust="spacing" textLength="125" x="563.5" y="456.4326">&#1055;&#1088;&#1086;&#1074;&#1077;&#1088;&#1077;&#1085; &#1085;&#1072; &#1087;&#1083;&#1072;&#1075;&#1080;&#1072;&#1090;</text><polygon fill="#181818" points="863.5,488.9863,873.5,492.9863,863.5,496.9863,867.5,492.9863" style="stroke:#181818;stroke-width:1.0;"/><line style="stroke:#181818;stroke-width:1.0;" x1="546.5" x2="869.5" y1="492.9863" y2="492.9863"/><text fill="#000000" font-family="sans-serif" font-size="13" lengthAdjust="spacing" textLength="145" x="553.5" y="487.7236">compare_paint_and_task</text><polygon fill="#181818" points="557.5,520.2773,547.5,524.2773,557.5,528.2773,553.5,524.2773" style="stroke:#181818;stroke-width:1.0;"/><line style="stroke:#181818;stroke-width:1.0;stroke-dasharray:2.0,2.0;" x1="551.5" x2="874.5" y1="524.2773" y2="524.2773"/><text fill="#000000" font-family="sans-serif" font-size="13" lengthAdjust="spacing" textLength="305" x="563.5" y="519.0146">&#1041;&#1099;&#1083;&#1086; &#1086;&#1087;&#1088;&#1077;&#1076;&#1077;&#1083;&#1077;&#1085;&#1086; &#1089;&#1086;&#1086;&#1090;&#1074;&#1077;&#1090;&#1089;&#1090;&#1074;&#1080;&#1077; &#1079;&#1072;&#1076;&#1072;&#1085;&#1080;&#1103; &#1080; &#1088;&#1080;&#1089;&#1091;&#1085;&#1082;&#1072;</text><polygon fill="#181818" points="53,551.5684,43,555.5684,53,559.5684,49,555.5684" style="stroke:#181818;stroke-width:1.0;"/><line style="stroke:#181818;stroke-width:1.0;stroke-dasharray:2.0,2.0;" x1="47" x2="545.5" y1="555.5684" y2="555.5684"/><text fill="#000000" font-family="sans-serif" font-size="13" lengthAdjust="spacing" textLength="262" x="59" y="550.3057">&#1056;&#1080;&#1089;&#1091;&#1085;&#1086;&#1082; &#1076;&#1083;&#1103; &#1074;&#1099;&#1073;&#1088;&#1072;&#1085;&#1085;&#1086;&#1075;&#1086; &#1079;&#1072;&#1076;&#1072;&#1085;&#1080;&#1103; &#1079;&#1072;&#1075;&#1088;&#1091;&#1078;&#1077;&#1085;</text><path d="M10,577.5684 L71,577.5684 L71,586.8594 L61,596.8594 L10,596.8594 L10,577.5684 " fill="#EEEEEE" style="stroke:#000000;stroke-width:1.5;"/><rect fill="none" height="144.4551" style="stroke:#000000;stroke-width:1.5;" width="597.5" x="10" y="577.5684"/><text fill="#000000" font-family="sans-serif" font-size="13" font-weight="bold" lengthAdjust="spacing" textLength="16" x="25" y="592.5967">alt</text><text fill="#000000" font-family="sans-serif" font-size="11" font-weight="bold" lengthAdjust="spacing" textLength="95" x="86" y="591.4385">[User is Teacher]</text><polygon fill="#181818" points="534.5,616.1504,544.5,620.1504,534.5,624.1504,538.5,620.1504" style="stroke:#181818;stroke-width:1.0;"/><line style="stroke:#181818;stroke-width:1.0;" x1="42" x2="540.5" y1="620.1504" y2="620.1504"/><text fill="#000000" font-family="sans-serif" font-size="13" lengthAdjust="spacing" textLength="140" x="49" y="614.8877">get_not_checked_works</text><polygon fill="#181818" points="53,647.4414,43,651.4414,53,655.4414,49,651.4414" style="stroke:#181818;stroke-width:1.0;"/><line style="stroke:#181818;stroke-width:1.0;stroke-dasharray:2.0,2.0;" x1="47" x2="545.5" y1="651.4414" y2="651.4414"/><text fill="#000000" font-family="sans-serif" font-size="13" lengthAdjust="spacing" textLength="238" x="59" y="646.1787">&#1057;&#1087;&#1080;&#1089;&#1086;&#1082; &#1088;&#1080;&#1089;&#1091;&#1085;&#1082;&#1086;&#1074;, &#1090;&#1088;&#1077;&#1073;&#1091;&#1102;&#1097;&#1080;&#1093; &#1087;&#1088;&#1086;&#1074;&#1077;&#1088;&#1082;&#1091;</text><polygon fill="#181818" points="534.5,678.7324,544.5,682.7324,534.5,686.7324,538.5,682.7324" style="stroke:#181818;stroke-width:1.0;"/><line style="stroke:#181818;stroke-width:1.0;" x1="42" x2="540.5" y1="682.7324" y2="682.7324"/><text fill="#000000" font-family="sans-serif" font-size="13" lengthAdjust="spacing" textLength="110" x="49" y="677.4697">check_work_dialog</text><polygon fill="#181818" points="53,710.0234,43,714.0234,53,718.0234,49,714.0234" style="stroke:#181818;stroke-width:1.0;"/><line style="stroke:#181818;stroke-width:1.0;stroke-dasharray:2.0,2.0;" x1="47" x2="545.5" y1="714.0234" y2="714.0234"/><text fill="#000000" font-family="sans-serif" font-size="13" lengthAdjust="spacing" textLength="213" x="59" y="708.7607">&#1055;&#1088;&#1077;&#1087;&#1086;&#1076;&#1072;&#1074;&#1072;&#1090;&#1077;&#1083;&#1077;&#1084; &#1087;&#1088;&#1086;&#1074;&#1077;&#1088;&#1077;&#1085; &#1088;&#1080;&#1089;&#1091;&#1085;&#1086;&#1082;</text><path d="M10,736.0234 L71,736.0234 L71,745.3145 L61,755.3145 L10,755.3145 L10,736.0234 " fill="#EEEEEE" style="stroke:#000000;stroke-width:1.5;"/><rect fill="none" height="81.873" style="stroke:#000000;stroke-width:1.5;" width="597.5" x="10" y="736.0234"/><text fill="#000000" font-family="sans-serif" font-size="13" font-weight="bold" lengthAdjust="spacing" textLength="16" x="25" y="751.0518">alt</text><text fill="#000000" font-family="sans-serif" font-size="11" font-weight="bold" lengthAdjust="spacing" textLength="93" x="86" y="749.8936">[User is Student]</text><polygon fill="#181818" points="534.5,774.6055,544.5,778.6055,534.5,782.6055,538.5,778.6055" style="stroke:#181818;stroke-width:1.0;"/><line style="stroke:#181818;stroke-width:1.0;" x1="42" x2="540.5" y1="778.6055" y2="778.6055"/><text fill="#000000" font-family="sans-serif" font-size="13" lengthAdjust="spacing" textLength="131" x="49" y="773.3428">checked_works_dialog</text><polygon fill="#181818" points="53,805.8965,43,809.8965,53,813.8965,49,809.8965" style="stroke:#181818;stroke-width:1.0;"/><line style="stroke:#181818;stroke-width:1.0;stroke-dasharray:2.0,2.0;" x1="47" x2="545.5" y1="809.8965" y2="809.8965"/><text fill="#000000" font-family="sans-serif" font-size="13" lengthAdjust="spacing" textLength="343" x="59" y="804.6338">&#1057;&#1090;&#1091;&#1076;&#1077;&#1085;&#1090; &#1080;&#1089;&#1087;&#1088;&#1072;&#1074;&#1083;&#1103;&#1077;&#1090; &#1086;&#1090;&#1087;&#1088;&#1072;&#1074;&#1083;&#1077;&#1085;&#1085;&#1099;&#1077; &#1085;&#1072; &#1076;&#1086;&#1088;&#1072;&#1073;&#1086;&#1090;&#1082;&#1091; &#1088;&#1080;&#1089;&#1091;&#1085;&#1082;&#1080;</text><polygon fill="#181818" points="195,844.1875,205,848.1875,195,852.1875,199,848.1875" style="stroke:#181818;stroke-width:1.0;"/><line style="stroke:#181818;stroke-width:1.0;" x1="42" x2="201" y1="848.1875" y2="848.1875"/><text fill="#000000" font-family="sans-serif" font-size="13" lengthAdjust="spacing" textLength="85" x="49" y="842.9248">save_on_close</text><polygon fill="#181818" points="53,875.4785,43,879.4785,53,883.4785,49,879.4785" style="stroke:#181818;stroke-width:1.0;"/><line style="stroke:#181818;stroke-width:1.0;stroke-dasharray:2.0,2.0;" x1="47" x2="206" y1="879.4785" y2="879.4785"/><text fill="#000000" font-family="sans-serif" font-size="13" lengthAdjust="spacing" textLength="141" x="59" y="874.2158">&#1055;&#1088;&#1080;&#1083;&#1086;&#1078;&#1077;&#1085;&#1080;&#1077; &#1089;&#1086;&#1093;&#1088;&#1072;&#1085;&#1077;&#1085;&#1086;</text><!--SRC=[ZPHFRjf05CRtFiKSeBa0YswwjbI9T5V96jaJ6E7Or1vIjQi4b4MLgbKFKBMv0I7Gk13C5MPkrEyz_jGs1844nZDl_FtylM_6bpeHPw_5cpIvq1tycYoDOvMrX4wqqJBMdvNNd1HdME5ZPKlOdtRiRjpGNTlI_hLpMmZxPCVsqLsxaVrZPtRfxZn_e_8kLval4zaXWJ1JqgXWWB4WWbBQ4MdsFX5XDqtpshXNMLVL_WNDXViAmT9Em3647Ew5dRWx-m2aiLrwdemD2mkTYtCbmwxAF87F5kfSvhqcbC7OLfngApKr06ZCx0hoKsZj4F1z5ku6mqyyiRJbsfNrJM5ddagY6bZR32ALc2DWQrTE1Bj7HqQG8_k7u7YkURAFKvLzYwjf6jAdmQfmjOfRc-WF0zLMCWkxVXgfk2KkT185qQ0Vwn2Fo7dPNXbJroNPLkheZErT2a2E1MnUKB302viFChJrfOvbfisd3K6ONlPbjgMNm27_U6sZzX363pYs8AzAksAIwQQvP22tjuIvX3caBO1_iBBchFiki26mja3122DpEpv0_hzlltULfPqBF6P1ZwYsZcOU6msaciQcsmlOeUJNtxUZJ92a9a1Ps5DHy37DUlbHsdlqf60ZvlMNHFDU2JuKPW0VkM_k2sPl1VkuxUpSZOxbZYYOuUNKdROHQw8Kfmego4_QYWVOjWwTWbVRZe8zMt4_9zHW2f3WBEq6EMGuEIbF7FufvcdkWUjWNTtmWj_2V_4mp-ML2j8a26CS8aVFStAoeDYlSyIHfXQxsqq0EVx_0000]--></g></svg>